<svg width="64" height="64" viewBox="0 0 64 64" fill="none" xmlns="http://www.w3.org/2000/svg">
<g clip-path="url(#clip0_3374_3425)">
<mask id="mask0_3374_3425" style="mask-type:luminance" maskUnits="userSpaceOnUse" x="0" y="0" width="64" height="64">
<path d="M64 0H0V64H64V0Z" fill="white"/>
</mask>
<g mask="url(#mask0_3374_3425)">
<path d="M32 0C14.3193 0 0 14.6813 0 32.8089C0 47.3276 9.16035 59.5895 21.8797 63.9346C23.4797 64.2227 24.0779 63.2384 24.0779 62.3768C24.0779 61.598 24.039 59.0161 24.039 56.2658C16 57.7836 13.9214 54.2574 13.2814 52.4144C12.9197 51.47 11.3614 48.5572 9.99791 47.7783C8.8793 47.1621 7.2793 45.6443 9.95896 45.6044C12.48 45.5644 14.2803 47.9837 14.8814 48.968C17.7614 53.9321 22.361 52.5342 24.2003 51.6726C24.4786 49.5414 25.319 48.1064 26.24 47.2848C19.1193 46.466 11.6814 43.6358 11.6814 31.0857C11.6814 27.5195 12.9197 24.5667 14.9593 22.2701C14.6393 21.4485 13.5207 18.0848 15.2793 13.5743C15.2793 13.5743 17.959 12.7127 24.0807 16.9379C26.6407 16.199 29.3593 15.831 32.0807 15.831C34.7993 15.831 37.5207 16.2019 40.0807 16.9379C46.2024 12.6728 48.8793 13.5743 48.8793 13.5743C50.6407 18.0848 49.5193 21.4485 49.1993 22.2701C51.239 24.5667 52.48 27.4767 52.48 31.0857C52.48 43.6758 45.0003 46.4631 37.8797 47.2848C39.04 48.3118 40.039 50.2803 40.039 53.3558C40.039 57.7437 40 61.2699 40 62.3768C40 63.2384 40.601 64.2655 42.1983 63.9374C54.8424 59.5895 64 47.2848 64 32.8089C64 14.6813 49.6807 0 32 0Z" fill="black"/>
</g>
</g>
<defs>
<clipPath id="clip0_3374_3425">
<rect width="64" height="64" fill="white"/>
</clipPath>
</defs>
</svg>
