<svg width="64" height="64" viewBox="0 0 64 64" fill="none" xmlns="http://www.w3.org/2000/svg">
<path d="M55.8 4H8.2C7.08609 4 6.0178 4.4425 5.23015 5.23015C4.4425 6.0178 4 7.08609 4 8.2V55.8C4 56.9139 4.4425 57.9822 5.23015 58.7698C6.0178 59.5575 7.08609 60 8.2 60H55.8C56.9139 60 57.9822 59.5575 58.7698 58.7698C59.5575 57.9822 60 56.9139 60 55.8V8.2C60 7.08609 59.5575 6.0178 58.7698 5.23015C57.9822 4.4425 56.9139 4 55.8 4ZM20.8 51.6H12.4V26.4H20.8V51.6ZM16.6 21.5C15.6373 21.4725 14.7041 21.1619 13.9169 20.607C13.1297 20.0521 12.5235 19.2776 12.174 18.3802C11.8245 17.4827 11.7472 16.5022 11.9518 15.5611C12.1564 14.62 12.6338 13.7601 13.3243 13.0887C14.0148 12.4174 14.8879 11.9644 15.8344 11.7864C16.7809 11.6084 17.7588 11.7133 18.6461 12.0879C19.5333 12.4625 20.2904 13.0903 20.8229 13.8928C21.3554 14.6953 21.6396 15.6369 21.64 16.6C21.6179 17.917 21.0753 19.1717 20.1309 20.0898C19.1865 21.008 17.9171 21.515 16.6 21.5ZM51.6 51.6H43.2V38.328C43.2 34.352 41.52 32.924 39.336 32.924C38.6957 32.9666 38.0701 33.1353 37.4951 33.4205C36.9202 33.7056 36.4072 34.1015 35.9858 34.5854C35.5643 35.0693 35.2425 35.6318 35.0391 36.2404C34.8356 36.849 34.7543 37.4919 34.8 38.132C34.7861 38.2623 34.7861 38.3937 34.8 38.524V51.6H26.4V26.4H34.52V30.04C35.3391 28.794 36.4644 27.7792 37.7881 27.0928C39.1119 26.4064 40.5897 26.0715 42.08 26.12C46.42 26.12 51.488 28.528 51.488 36.368L51.6 51.6Z" fill="#142342"/>
</svg>
