<svg width="64" height="64" viewBox="0 0 64 64" fill="none" xmlns="http://www.w3.org/2000/svg">
<rect x="2" y="2" width="60" height="60" rx="7" stroke="#95A2BD" stroke-width="4"/>
<path fill-rule="evenodd" clip-rule="evenodd" d="M44.772 46.856C50.916 46.856 53.988 43.992 53.988 38.264C53.988 34.552 52.724 32.2 50.196 31.208V30.92C52.404 29.512 53.508 27.464 53.508 24.776C53.508 22.088 52.772 20.136 51.3 18.92C49.828 17.672 47.572 17.048 44.532 17.048H35.012V17.144H28.828L26.62 30.632H26.188L23.932 17.144H11.164L10.012 46.952H18.988V32.744H19.228L22.012 46.952H30.412L33.244 32.744H33.484V46.952H42.556L42.5524 46.856H44.772ZM42.3551 41.528H42.852C43.812 41.528 44.452 41.32 44.772 40.904C45.124 40.456 45.3 39.56 45.3 38.216C45.3 36.84 45.124 35.88 44.772 35.336C44.42 34.76 43.78 34.472 42.852 34.472H42.0938L42.3551 41.528ZM41.9213 29.816H42.9C43.636 29.816 44.148 29.592 44.436 29.144C44.724 28.696 44.868 27.912 44.868 26.792C44.868 25.64 44.708 24.84 44.388 24.392C44.1 23.912 43.588 23.672 42.852 23.672H41.6938L41.9213 29.816Z" fill="#3D1A00"/>
</svg>
