<svg width="128" height="128" viewBox="0 0 128 128" fill="none" xmlns="http://www.w3.org/2000/svg">
<g clip-path="url(#clip0_54_126)">
<path fill-rule="evenodd" clip-rule="evenodd" d="M63.813 9.18176C63.78 9.2147 63.4222 9.26256 63.0182 9.28788C62.409 9.32607 61.7288 9.41781 61.4786 9.49538C61.4202 9.51351 60.949 9.59967 59.8693 9.78979C59.4857 9.85739 59.0616 9.98227 58.9267 10.0675C58.7918 10.1528 58.5987 10.23 58.4975 10.2392C58.3963 10.2485 58.1266 10.3384 57.8981 10.439C57.6695 10.5397 57.2889 10.622 57.0522 10.622C56.386 10.622 55.7746 10.8383 55.363 11.2197C54.9912 11.5641 54.8744 11.6333 53.5183 12.3116C53.135 12.5033 52.7341 12.7569 52.6271 12.8749C52.5083 13.0062 52.2966 13.0897 52.0826 13.0897C51.6856 13.0897 50.0394 13.9008 49.9468 14.142C49.9141 14.2273 49.9435 14.3649 50.0123 14.4476C50.1101 14.5656 50.0874 14.651 49.9068 14.8433C49.7801 14.9781 49.6765 15.1596 49.6765 15.2465C49.6765 15.3889 49.0677 16.0275 48.4061 16.579C48.166 16.7793 48.1488 16.78 48.0147 16.5965C47.9257 16.4749 47.8954 16.24 47.9319 15.9542C47.965 15.694 47.949 15.5414 47.8941 15.593C47.8416 15.6422 47.7747 15.9731 47.7452 16.3283L47.6915 16.9744L46.9673 17.3494C46.5691 17.5556 46.2431 17.768 46.2431 17.8211C46.2431 17.9464 46.4274 17.9464 46.5048 17.8211C46.5377 17.768 46.7095 17.6739 46.8866 17.6121C47.1626 17.5159 47.2087 17.526 47.2087 17.683C47.2087 18.0867 46.468 18.3038 44.7488 18.404C44.2515 18.4328 43.8212 18.4801 43.7925 18.5086C43.7639 18.5372 43.7984 18.6879 43.8693 18.8432C44.0081 19.1481 43.9328 19.3527 43.7754 19.0981C43.7228 19.013 43.6469 18.9762 43.6068 19.0162C43.5138 19.1093 44.3537 19.9212 44.6355 20.0106C44.8633 20.0829 44.9128 20.2258 44.7457 20.329C44.6893 20.3639 44.6703 20.4635 44.7037 20.5502C44.7382 20.6404 44.6579 20.794 44.5159 20.9089C44.2731 21.1056 44.2571 21.1055 43.7902 20.9054C43.0963 20.608 43.0304 20.713 43.6565 21.1187C43.955 21.3122 44.2231 21.5089 44.2522 21.5561C44.2814 21.6032 43.9743 22.0782 43.5699 22.6117C43.1299 23.192 42.7591 23.8123 42.6465 24.1562C42.5431 24.4723 42.375 24.8999 42.2731 25.1064C42.1711 25.313 42.0529 25.6734 42.0103 25.9074C41.9678 26.1414 41.8617 26.4707 41.7747 26.6391C41.533 27.1066 41.3125 28.4314 41.2556 29.7585C41.1726 31.6951 41.0897 32.4 40.8251 33.4216C40.4298 34.9482 40.4192 35.1032 40.6642 35.7584C40.9121 36.4208 40.9447 37.0768 40.7965 38.4152C40.713 39.1699 40.6462 39.3844 40.418 39.6307C40.2655 39.7952 40.1144 40.0587 40.0824 40.2164C39.7803 41.6983 39.671 44.0741 39.8925 44.3409C39.9603 44.4225 40.1152 44.8116 40.2368 45.2052C40.3584 45.599 40.4991 45.9212 40.5494 45.9212C40.6599 45.9212 40.7712 45.6537 40.7712 45.3883C40.7712 45.2818 40.8516 44.9457 40.9499 44.6414C41.0765 44.2494 41.173 44.105 41.2806 44.1463C41.3641 44.1783 41.4768 44.2045 41.531 44.2045C41.5852 44.2045 41.6295 44.2718 41.6295 44.354C41.6295 44.4362 41.6929 44.5278 41.7704 44.5575C41.9628 44.6313 41.9009 46.1626 41.6803 46.7878C41.491 47.3241 41.2006 48.6568 41.2005 48.9892C41.2003 49.2978 41.5292 49.5688 41.9062 49.5708C42.3506 49.5731 42.4717 49.6823 42.5205 50.1252C42.544 50.3391 42.6633 50.6411 42.7854 50.7965C42.9986 51.0674 43.0103 51.07 43.0768 50.8604C43.1149 50.7404 43.1142 50.5416 43.0753 50.4189C42.9913 50.1542 42.9858 47.9626 43.069 47.8794C43.1006 47.8477 43.194 47.8779 43.2764 47.9463C43.434 48.0771 43.7741 48.0019 43.9079 47.8067C43.9512 47.7434 43.9886 47.4984 43.9909 47.2624C43.9957 46.7834 44.1549 45.9804 44.31 45.653C44.4524 45.3524 44.6529 44.3409 44.6717 43.829C44.6803 43.593 44.7478 43.3612 44.8215 43.314C44.8953 43.2668 44.9556 43.1099 44.9556 42.9653C44.9556 42.8208 44.9917 42.7023 45.0361 42.7023C45.0804 42.7022 45.1302 42.497 45.1468 42.2463C45.2003 41.4382 45.5118 40.0798 45.6923 39.8675C45.7887 39.7541 45.8073 39.6966 45.7335 39.7398C45.6085 39.8129 45.5326 39.524 45.5959 39.2154C45.6802 38.8046 45.6747 38.3034 45.5858 38.3034C45.5272 38.3034 45.5123 38.2501 45.5526 38.185C45.5929 38.1199 45.6483 37.818 45.6756 37.5144C45.703 37.2108 45.7656 36.9202 45.8149 36.8687C45.8641 36.8173 45.8787 36.708 45.8472 36.6259C45.8156 36.5438 45.8408 36.4155 45.9029 36.3406C45.965 36.2658 46.0386 36.0854 46.0666 35.9397C46.2312 35.0807 46.3869 34.5599 46.5745 34.2408C46.7774 33.8959 46.7784 33.8735 46.5954 33.7391C46.4191 33.6096 46.332 33.1717 46.4577 33.0461C46.5719 32.9318 46.8869 32.3096 46.8869 32.1981C46.8869 32.1334 46.8185 32.0805 46.7348 32.0805C46.6512 32.0805 46.565 32.0267 46.543 31.9609C46.5211 31.8952 46.2413 32.0939 45.9212 32.4023C45.5348 32.7748 45.3235 32.9141 45.2923 32.8169C45.2338 32.6346 45.0466 32.5071 44.9369 32.5748C44.8915 32.6029 44.7576 32.8446 44.6393 33.1121C44.4177 33.613 44.2045 33.6589 44.2045 33.2057C44.2045 32.7942 44.422 32.4118 44.6202 32.4745C44.7569 32.5179 44.7631 32.5074 44.6492 32.4259C44.5281 32.3395 44.5348 32.2563 44.6882 31.9329C44.9199 31.4446 45.0677 31.4314 44.9907 31.9059C44.9584 32.1049 44.9785 32.2965 45.0355 32.3318C45.0941 32.368 45.1216 32.2923 45.0986 32.1577C45.0481 31.8608 45.2871 31.3831 45.4863 31.3831C45.5681 31.3831 45.6575 31.316 45.6847 31.234C45.7149 31.1436 45.6868 31.1144 45.6133 31.1599C45.4334 31.271 45.4664 31.0552 45.653 30.9002C45.7415 30.8267 45.8139 30.6926 45.8139 30.6023C45.8139 30.467 45.8546 30.4741 46.0428 30.6422C46.2687 30.844 46.2708 30.8438 46.2025 30.6243C46.1523 30.4626 46.2209 30.3161 46.4535 30.0878C46.6296 29.915 46.7742 29.7012 46.7749 29.6127C46.7761 29.4697 46.7645 29.4697 46.6707 29.6127C46.5868 29.7405 46.5466 29.7452 46.4759 29.6359C46.427 29.5602 46.3066 29.5289 46.2086 29.5666C46.097 29.6094 46.0057 29.5707 45.9642 29.463C45.928 29.3683 45.8547 29.2909 45.8016 29.2909C45.7484 29.2909 45.7599 29.3789 45.827 29.4866C45.9277 29.6477 45.9005 29.731 45.6735 29.958C45.5219 30.1096 45.3707 30.2067 45.3377 30.1735C45.3045 30.1405 45.2775 30.2213 45.2775 30.3532C45.2775 30.5513 45.3183 30.5799 45.5138 30.5177C45.7318 30.4486 45.7368 30.4563 45.5763 30.6168C45.4806 30.7125 45.3704 30.9361 45.3313 31.1138C45.259 31.4429 45.1149 31.5391 45.0383 31.3092C44.9853 31.1502 44.4275 31.5329 44.4225 31.7318C44.4206 31.8056 44.378 31.8659 44.3278 31.8659C44.2776 31.8659 44.2894 31.6969 44.3541 31.4904C44.4345 31.2337 44.5397 31.1109 44.6868 31.1024C44.8694 31.0919 44.8733 31.0824 44.7129 31.0406C44.6089 31.0134 44.553 30.944 44.5886 30.8863C44.628 30.8227 44.7554 30.848 44.9119 30.9506C45.054 31.0436 45.1702 31.0756 45.1702 31.0215C45.1702 30.9674 45.0978 30.8954 45.0092 30.8614C44.8389 30.7961 44.7816 30.3638 44.9434 30.3638C44.9956 30.3638 45.119 30.1828 45.2174 29.9614C45.3159 29.7402 45.4709 29.4229 45.562 29.2566C45.6531 29.0902 45.7011 28.9277 45.6688 28.8954C45.5823 28.8089 44.9685 29.3206 44.9615 29.4849C44.9583 29.5622 44.9073 29.5956 44.8483 29.5591C44.7893 29.5226 44.741 29.544 44.741 29.6064C44.741 29.6688 44.6565 29.7193 44.5532 29.7184C44.4407 29.7174 44.4113 29.6852 44.48 29.6379C44.7102 29.4793 45.4921 28.3542 45.4921 28.1813C45.4921 27.9599 45.3462 27.9522 45.1702 28.1643C45.0967 28.2528 44.9753 28.3252 44.9004 28.3252C44.8255 28.3252 44.7339 28.4459 44.6969 28.5935C44.6599 28.741 44.5822 28.8617 44.5244 28.8617C44.4664 28.8617 44.4191 28.8437 44.4191 28.8216C44.4191 28.6909 44.9973 27.7871 45.273 27.4871C45.4525 27.2917 45.5993 27.0652 45.5993 26.9837C45.5993 26.9024 45.6509 26.8039 45.7139 26.765C45.777 26.726 45.8013 26.623 45.7679 26.5361C45.7345 26.4491 45.7752 26.3101 45.8583 26.227C45.9414 26.1439 46.0312 26.0147 46.0579 25.9399C46.0846 25.8651 46.1411 25.8359 46.1834 25.8751C46.2258 25.9144 46.2044 26.0513 46.1358 26.1794C46.0672 26.3075 46.038 26.4392 46.0708 26.472C46.1706 26.5717 46.5339 26.0574 46.8836 25.321C47.3273 24.3873 47.3845 24.2975 47.5168 24.3273C47.5791 24.3413 47.6074 24.2931 47.5797 24.22C47.552 24.1468 47.7464 23.9503 48.0128 23.7822C48.2787 23.6145 48.4962 23.4149 48.4962 23.3385C48.4962 23.2621 48.6617 23.1211 48.8639 23.0252C49.0661 22.9293 49.4134 22.6741 49.6357 22.4582C49.8878 22.2134 50.0565 22.1159 50.0843 22.1991C50.1146 22.2902 50.2101 22.256 50.3854 22.0914C50.567 21.9208 50.6425 21.895 50.6437 22.0031C50.6451 22.133 50.6596 22.1335 50.7402 22.0061C50.7923 21.9238 50.9124 21.8861 51.0068 21.9223C51.1013 21.9586 51.1786 21.9442 51.1786 21.8904C51.1786 21.8366 51.3838 21.6702 51.6345 21.5206C51.8853 21.3711 52.0905 21.2133 52.0905 21.1701C52.0905 21.1269 52.2806 21.0867 52.5128 21.0809C52.7451 21.075 52.9544 21.0128 52.9778 20.9425C53.0012 20.8723 53.0667 20.8147 53.1232 20.8147C53.1798 20.8147 53.3298 20.7182 53.4564 20.6002C53.6188 20.4489 53.835 20.3856 54.1898 20.3856C54.5061 20.3856 54.7425 20.3258 54.8265 20.2246C54.9 20.1361 54.9179 20.0581 54.8664 20.0514C54.651 20.0229 55.6691 19.861 56.0987 19.8553C56.4867 19.8502 56.5547 19.8192 56.4985 19.673C56.4408 19.5224 56.4558 19.5176 56.6025 19.6392C56.7359 19.75 56.7921 19.7525 56.855 19.6508C56.9024 19.5742 57.0174 19.5513 57.1326 19.5955C57.2645 19.6461 57.305 19.6314 57.2552 19.5508C57.2081 19.4748 57.318 19.405 57.5557 19.3605C57.7617 19.3219 57.9839 19.2257 58.0492 19.1469C58.1147 19.068 58.2412 19.0315 58.3304 19.0658C58.4531 19.1129 58.4602 19.1478 58.3598 19.21C58.275 19.2623 58.3203 19.294 58.4849 19.2975C59.076 19.3103 60.6905 19.4916 60.7965 19.5572C60.9651 19.6613 62.1369 19.6872 62.4191 19.593C62.5526 19.5483 62.6338 19.4662 62.5993 19.4105C62.5649 19.3547 62.5016 19.3309 62.4585 19.3575C62.4155 19.384 62.3103 19.3615 62.2245 19.3072C62.0068 19.1694 62.7729 19.1724 63.1367 19.3108C63.3802 19.4033 63.3979 19.442 63.2819 19.6278C63.0637 19.9773 63.2808 20.014 63.5829 19.6787C63.7377 19.5068 63.8395 19.4146 63.8092 19.4736C63.7791 19.5326 63.8217 19.6431 63.904 19.7192C63.9863 19.7954 64.0537 19.8359 64.0537 19.8094C64.0537 19.7829 64.2951 19.825 64.5901 19.9028C65.0563 20.0257 65.1266 20.0235 65.1266 19.8852C65.1266 19.7904 65.2025 19.7418 65.3143 19.7649C65.4176 19.7862 65.4967 19.8783 65.4902 19.9696C65.4816 20.0885 65.5726 20.1319 65.8121 20.1232C65.9957 20.1166 66.2026 20.0757 66.2719 20.0324C66.4445 19.9248 66.9615 20.1728 66.873 20.3208C66.8339 20.3859 66.8836 20.3731 66.9832 20.2923C67.1416 20.1638 67.2171 20.1907 67.5849 20.5069C67.8161 20.7057 68.0094 20.9288 68.0144 21.0025C68.0198 21.0821 68.1652 21.1335 68.3722 21.1291C68.6644 21.1228 68.6861 21.1066 68.5063 21.0293C68.2121 20.9029 68.5007 20.901 69.0391 21.0258C69.3233 21.0917 69.5103 21.0865 69.6024 21.0101C69.6936 20.9345 69.7855 20.9315 69.8743 21.0014C69.9481 21.0595 70.1411 21.1388 70.3035 21.1775C70.4658 21.2162 70.5985 21.2938 70.5985 21.3499C70.5985 21.4059 70.514 21.4258 70.4107 21.3941C70.3075 21.3624 70.339 21.4057 70.4806 21.4904C70.675 21.6066 70.7013 21.6611 70.5879 21.7124C70.4727 21.7645 70.4689 21.795 70.5717 21.8429C70.6455 21.8774 70.7058 22.001 70.7058 22.1175C70.7058 22.2341 70.7541 22.2997 70.8131 22.2632C70.8721 22.2267 70.9204 22.2481 70.9204 22.3105C70.9204 22.373 70.856 22.4241 70.7774 22.4241C70.6986 22.4241 70.6342 22.4923 70.6342 22.5756C70.6342 22.6912 70.6953 22.7038 70.8916 22.6293C71.2884 22.4784 71.3014 22.5092 70.9639 22.7995C70.7924 22.947 70.7097 23.0677 70.7799 23.0678C70.8502 23.0678 70.9381 23.0189 70.9751 22.9589C71.0122 22.8989 71.0882 22.8781 71.1441 22.9126C71.2 22.9472 71.2134 23.0279 71.1738 23.0919C71.1299 23.1629 71.1519 23.1773 71.2303 23.1288C71.3011 23.0852 71.4293 23.1078 71.5152 23.179C71.6411 23.2835 71.6714 23.275 71.6714 23.1346C71.6714 23.0389 71.7514 22.9606 71.849 22.9606C72.007 22.9606 72.0046 22.985 71.8267 23.1815C71.5721 23.4627 71.7295 23.7605 72.1409 23.7761C72.4163 23.7866 72.6948 23.9262 72.4404 23.9262C72.3027 23.9262 72.2672 24.2034 72.3957 24.2753C72.44 24.2999 72.4276 24.31 72.3683 24.2976C72.1728 24.2566 71.9957 24.5294 72.1302 24.664C72.2195 24.7532 72.2104 24.785 72.0952 24.7862C71.9626 24.7876 71.9634 24.8046 72.1006 24.9016C72.2224 24.9878 72.2287 25.0288 72.1268 25.0702C71.937 25.147 72.0728 25.325 72.265 25.2512C72.3631 25.2135 72.4225 25.2557 72.4225 25.3632C72.4225 25.458 72.4708 25.5356 72.5298 25.5356C72.5888 25.5356 72.6371 25.4873 72.6371 25.4283C72.6371 25.3693 72.7124 25.321 72.8043 25.321C72.8963 25.321 72.9445 25.3649 72.9113 25.4187C72.8187 25.5684 72.9637 25.8575 73.1314 25.8575C73.2135 25.8575 73.2808 25.9058 73.2808 25.9648C73.2808 26.0238 73.2384 26.0721 73.1865 26.0721C73.0279 26.0721 72.8233 26.6959 72.8921 26.9697C72.9333 27.1338 72.8987 27.276 72.7969 27.3604C72.7091 27.4334 72.6371 27.5545 72.6371 27.6294C72.6371 27.7044 72.5646 27.7936 72.4761 27.8276C72.3876 27.8615 72.3152 27.9665 72.3152 28.0609C72.3152 28.184 72.2472 28.2164 72.0738 28.1755C71.9104 28.1371 71.9278 28.1588 72.1274 28.2427C72.292 28.3118 72.4225 28.4509 72.4225 28.5572C72.4225 28.6939 72.4755 28.7278 72.6102 28.6772C72.7707 28.6172 72.7778 28.6318 72.6589 28.7781C72.4873 28.9894 71.7843 29.3322 71.6985 29.2463C71.6639 29.2118 71.692 29.1836 71.7608 29.1836C71.8297 29.1836 71.886 29.1353 71.886 29.0763C71.886 28.9044 71.6542 28.9523 71.4975 29.1567C71.3718 29.3209 71.3401 29.3242 71.246 29.1836C71.1869 29.095 71.1247 28.9837 71.1078 28.936C71.091 28.8884 70.999 28.8794 70.9033 28.9161C70.7294 28.9828 70.7432 29.3212 70.9297 29.5627C71.0804 29.7576 70.8605 29.9635 70.5851 29.8855C70.3886 29.8298 70.3671 29.839 70.4912 29.9259C70.6001 30.0022 70.6088 30.0391 70.518 30.0403C70.4443 30.0411 70.3839 30.1098 70.3839 30.1928C70.3839 30.3152 70.4343 30.3202 70.6513 30.2196C70.7984 30.1513 70.9191 30.0534 70.9195 30.002C70.92 29.9505 70.9928 29.9684 71.0813 30.0419C71.2759 30.2034 71.2943 30.399 71.1091 30.3373C71.0358 30.3128 70.9117 30.3571 70.8332 30.4357C70.7144 30.5544 70.7188 30.6067 70.8591 30.7469C70.9518 30.8397 71.0277 30.9589 71.0277 31.0118C71.0277 31.0647 71.1001 31.0803 71.1886 31.0464C71.2771 31.0124 71.3496 31.0327 71.3496 31.0918C71.3496 31.1507 71.4816 31.232 71.6431 31.2725C71.8993 31.3368 71.9129 31.3595 71.7504 31.4504C71.5142 31.5825 71.4968 31.9147 71.7307 31.8249C71.8223 31.7898 71.8695 31.8058 71.8357 31.8605C71.8019 31.9152 71.8356 31.9991 71.9106 32.0471C72.1611 32.207 72.3437 32.6313 72.2167 32.7583C72.1528 32.8222 72.1014 32.9492 72.1022 33.0407C72.1037 33.1869 72.1163 33.1875 72.2053 33.0466C72.2922 32.9091 72.3292 32.9167 72.4646 33.1003C72.6081 33.2947 72.6029 33.3175 72.4086 33.3495C72.291 33.3688 72.1684 33.4533 72.1362 33.5373C72.104 33.6212 72.0121 33.6898 71.9319 33.6898C71.8518 33.6898 71.7282 33.7983 71.6573 33.9309C71.5727 34.0889 71.5121 34.124 71.4816 34.0325C71.4476 33.9303 71.396 33.9447 71.2885 34.0865C71.2078 34.1929 71.1402 34.2248 71.1384 34.1573C71.1365 34.0898 71.0595 34.0057 70.9674 33.9704C70.852 33.9261 70.8058 33.9643 70.8189 34.0931C70.8766 34.6629 70.8318 34.723 70.3571 34.7106C70.1064 34.7041 69.8396 34.7442 69.7645 34.7996C69.6642 34.8737 69.6459 34.8537 69.6955 34.7243C69.8129 34.4186 69.0782 34.4947 68.7215 34.8252C68.4224 35.1025 68.2442 35.0496 68.2397 34.6823C68.237 34.4573 68.0891 34.5347 67.8398 34.8914C67.6426 35.1737 67.5909 35.2005 67.5333 35.0505C67.426 34.7708 67.1764 34.8376 67.1046 35.1651C66.9975 35.6536 66.9625 35.7284 66.8403 35.7284C66.776 35.7284 66.7529 35.6806 66.7891 35.622C66.8252 35.5634 66.8078 35.4313 66.7501 35.3284C66.658 35.1637 66.6369 35.1752 66.5744 35.4248C66.5352 35.5806 66.4108 35.7323 66.2977 35.7619C66.1847 35.7914 66.0922 35.8669 66.0922 35.9296C66.0922 35.9926 66.1762 36.0131 66.28 35.9755C66.3983 35.9326 66.3699 35.9887 66.2029 36.1274C65.999 36.2971 65.9656 36.3812 66.0577 36.4939C66.1234 36.5745 66.2267 36.8215 66.287 37.0427C66.3757 37.3678 66.3681 37.4451 66.2471 37.4451C66.1534 37.4451 66.0108 37.7439 65.8649 38.2461C65.7369 38.6868 65.543 39.1429 65.4341 39.2598C65.3208 39.3813 65.2805 39.4998 65.3401 39.5366C65.4634 39.6128 65.2384 40.0201 65.0729 40.0201C65.0129 40.0201 64.9033 40.1167 64.8296 40.2347C64.7559 40.3527 64.6293 40.4493 64.5483 40.4493C64.3355 40.4493 63.8086 41.1807 63.8825 41.3733C63.9168 41.4627 63.9887 41.5087 64.0424 41.4755C64.2089 41.3726 64.5981 42.1507 64.5252 42.441C64.4891 42.5847 64.4106 42.7024 64.3508 42.7024C64.2891 42.7024 64.3006 42.7731 64.3777 42.8659C64.4524 42.9558 64.4828 43.0601 64.4454 43.0975C64.408 43.1349 64.4312 43.2303 64.497 43.3096C64.5628 43.3889 64.6174 43.7883 64.6183 44.1972C64.6199 44.8668 64.6511 44.9745 64.932 45.282C65.1034 45.4697 65.2243 45.6783 65.2006 45.7455C65.1768 45.8126 65.1988 45.9794 65.2493 46.1159C65.3057 46.2682 65.2968 46.4475 65.2265 46.5788C65.1544 46.7136 65.149 46.8406 65.212 46.9205C65.3577 47.1053 65.4354 47.6333 65.3268 47.7004C65.1689 47.798 65.2244 48.5225 65.405 48.7221C65.4992 48.8261 65.5836 49.0713 65.5928 49.267C65.6019 49.4627 65.6566 49.6566 65.7142 49.6979C65.8328 49.7827 65.845 50.6528 65.7339 51.0952C65.675 51.3293 65.6927 51.375 65.8227 51.3251C66.0585 51.2346 66.0258 51.5268 65.7625 51.8615C65.5926 52.0776 65.4449 52.1442 65.1353 52.1442C64.6996 52.1442 64.1367 52.3738 63.7756 52.6988C63.6206 52.8381 63.4876 52.8742 63.3464 52.815C62.9656 52.6553 62.337 52.2309 62.337 52.1335C62.337 52.0804 62.2404 52.0369 62.1224 52.0369C62.0044 52.0369 61.9063 51.9766 61.9045 51.9028C61.9026 51.8291 61.7698 51.6721 61.6094 51.5541C61.3687 51.377 61.1489 51.3395 60.3521 51.3395C59.4078 51.3395 59.3856 51.3453 59.3492 51.6035C59.3287 51.7487 59.2502 51.9177 59.1746 51.979C58.9213 52.1848 58.8919 52.744 59.1232 52.9535C59.2385 53.0578 59.3328 53.208 59.3328 53.2874C59.3328 53.3668 59.3689 53.4318 59.4133 53.4319C59.4576 53.432 59.5043 53.5825 59.5172 53.7663C59.5432 54.1357 59.8952 54.5057 59.9576 54.2292C59.9767 54.1446 60.0612 54.0754 60.1453 54.0754C60.2295 54.0754 60.2984 53.9971 60.2984 53.9014C60.2984 53.7679 60.332 53.7552 60.4424 53.8468C60.6106 53.9864 60.7364 53.9014 60.6592 53.7002C60.5767 53.4852 60.798 53.4101 60.9795 53.5917C61.0686 53.6807 61.1899 53.7536 61.2491 53.7536C61.3084 53.7536 61.3875 53.8501 61.425 53.9681C61.4624 54.0862 61.5414 54.1827 61.6004 54.1827C61.6594 54.1827 61.677 54.2793 61.6396 54.3973C61.6005 54.5204 61.6203 54.6119 61.686 54.6119C61.8965 54.6119 61.8037 54.843 61.4786 55.1283C61.3016 55.2837 61.1568 55.4951 61.1568 55.5985C61.1568 55.7521 61.235 55.7795 61.5883 55.7495C61.8256 55.7294 62.0457 55.7549 62.0774 55.8062C62.1091 55.8575 62.2474 55.8994 62.3846 55.8994C62.5329 55.8994 62.706 56.0091 62.8111 56.1695C62.9672 56.4077 63.0161 56.424 63.2258 56.3073C63.3566 56.2347 63.4957 56.1735 63.5351 56.1714C63.5744 56.1694 63.6411 56.1331 63.6833 56.0909C63.7254 56.0488 63.8542 56.0646 63.9693 56.1263C64.1688 56.233 64.1699 56.2482 63.9923 56.4445C63.8773 56.5715 63.855 56.6505 63.9339 56.6505C64.01 56.6505 63.9822 56.7361 63.8656 56.8614C63.6971 57.0422 63.5473 57.0684 62.8146 57.0449C62.3448 57.0297 61.8999 56.9801 61.8259 56.9345C61.7521 56.8887 61.1247 56.8537 60.4318 56.8564C58.4963 56.8641 57.9877 56.8253 57.7821 56.6546C57.6782 56.5685 57.4952 56.4478 57.3753 56.3864C57.2554 56.3251 57.1684 56.2309 57.1818 56.1773C57.1952 56.1235 57.1331 56.0387 57.0436 55.9887C56.9221 55.9206 56.8838 55.7185 56.8919 55.1867C56.9006 54.6144 56.8645 54.4477 56.7071 54.3326C56.4894 54.1734 56.3114 54.2262 56.387 54.4276C56.4139 54.4995 56.3115 54.6159 56.1594 54.6861L55.8828 54.8141L56.0634 54.5386C56.2124 54.3112 56.2185 54.2469 56.0985 54.1709C56.0185 54.1202 55.9169 54.078 55.8726 54.077C55.8283 54.0762 55.7921 53.9789 55.7921 53.8608C55.7921 53.7428 55.7341 53.6463 55.6631 53.6463C55.592 53.6463 55.7226 53.4531 55.9531 53.2171C56.1835 52.9811 56.3141 52.7879 56.2431 52.7879C56.1721 52.7879 56.0174 52.6914 55.8994 52.5733C55.7814 52.4553 55.7331 52.3588 55.7921 52.3588C55.8511 52.3588 55.8994 52.2834 55.8994 52.1915C55.8994 52.0995 55.9443 52.0519 55.999 52.0858C56.0795 52.1355 56.2309 51.8714 56.273 51.6077C56.3034 51.4174 56.707 50.6421 56.7757 50.6421C56.8218 50.6421 56.9358 50.4947 57.029 50.3145C57.1221 50.1344 57.2977 49.8876 57.419 49.7662C57.6114 49.5739 57.6221 49.5126 57.5025 49.2891C57.3293 48.9655 57.1034 48.9665 56.3878 49.2938C55.8302 49.5488 55.2814 50.1611 55.1011 50.7294C55.0636 50.8475 54.9623 50.9712 54.8761 51.0043C54.7898 51.0374 54.7192 51.1373 54.7192 51.2264C54.7192 51.3153 54.5985 51.4673 54.451 51.5639C54.3035 51.6606 54.1827 51.8256 54.1827 51.9307C54.1827 52.0357 54.0629 52.2354 53.9163 52.3743C53.7699 52.5133 53.6492 52.6833 53.6481 52.7522C53.6471 52.821 53.6101 52.8934 53.5658 52.9131C53.4462 52.9662 52.5734 54.2622 52.5734 54.3867C52.5734 54.4457 52.5104 54.5325 52.4334 54.5797C52.1197 54.7722 51.8895 55.5126 51.8979 56.3018C51.9086 57.2876 51.9561 57.4666 52.4135 58.2471C52.6401 58.6339 52.7879 59.0284 52.7879 59.2465C52.7879 59.4447 52.8584 59.7075 52.9445 59.8304C53.0306 59.9533 53.1113 60.2418 53.1238 60.4713C53.1362 60.7008 53.1909 60.9472 53.2454 61.0189C53.2999 61.0907 53.3125 61.3391 53.2732 61.5712C53.1765 62.1444 53.3688 62.239 53.7601 61.8107L54.0679 61.4736L54.343 61.7126C54.4942 61.8442 54.5946 62.0127 54.566 62.0873C54.5373 62.1619 54.5602 62.2513 54.6166 62.2862C54.6731 62.3211 54.7192 62.2784 54.7192 62.1913C54.7192 62.1042 54.7796 62.0111 54.8533 61.9844C54.9606 61.9456 54.9606 61.8904 54.8533 61.7087C54.7796 61.5838 54.7192 61.3389 54.7192 61.1646C54.7192 60.9902 54.6653 60.8143 54.5996 60.7736C54.4311 60.6695 54.5411 59.6967 54.7474 59.4658C54.8392 59.3631 54.9307 59.159 54.9509 59.012C55.0136 58.5538 55.3121 58.6389 55.9183 59.2877C56.8029 60.2346 57.1889 60.6203 57.2518 60.6203C57.359 60.6203 57.6161 60.9259 57.6161 61.0533C57.6161 61.1228 57.6883 61.152 57.7765 61.1181C57.8647 61.0843 58.1549 61.1501 58.4214 61.2643C58.688 61.3785 59.0668 61.466 59.2635 61.4586C59.46 61.4512 59.6869 61.4858 59.7674 61.5356C59.9906 61.6736 60.4057 61.693 60.4057 61.5654C60.4057 61.4953 60.4668 61.503 60.5667 61.5859C60.6778 61.6782 60.7276 61.6823 60.7276 61.599C60.7276 61.5328 60.8121 61.4752 60.9154 61.4711C61.0744 61.4647 61.0703 61.4507 60.8887 61.3799C60.7092 61.3099 60.7354 61.2872 61.0497 61.2411C61.3378 61.1988 61.4687 61.2362 61.6128 61.4023C61.716 61.5213 61.8005 61.6559 61.8005 61.7013C61.8005 61.8935 62.6226 62.0282 63.7013 62.0126C65.1044 61.9923 65.1811 61.9963 65.0917 62.0857C64.9352 62.2422 65.2873 62.4443 65.7167 62.4443C66.2731 62.4443 66.5315 62.6733 66.1714 62.8474C65.7904 63.0314 65.2758 63.087 65.1468 62.958C65.011 62.8222 64.6974 63.0225 64.6974 63.2449C64.6974 63.3235 64.5656 63.3675 64.3658 63.3557C64.1716 63.3441 64.0112 63.3957 63.9788 63.4802C63.9483 63.5596 63.8613 63.6245 63.7854 63.6245C63.609 63.6245 63.5161 63.8653 63.5874 64.1381C63.624 64.2779 63.5631 64.4063 63.4093 64.5141C63.1922 64.6661 63.1896 64.6815 63.3732 64.7288C63.5342 64.7704 63.526 64.7822 63.3294 64.7922C63.1967 64.7991 63.088 64.7484 63.088 64.6795C63.088 64.6107 63.0627 64.5796 63.0318 64.6105C62.904 64.7384 63.1379 65.0373 63.4765 65.1787C63.676 65.2621 63.8391 65.381 63.8391 65.443C63.8391 65.505 63.9385 65.5557 64.06 65.5557C64.1838 65.5557 64.251 65.6041 64.2129 65.6659C64.1754 65.7264 64.0662 65.7627 63.9702 65.7464C63.8435 65.7248 63.7871 65.8118 63.7651 66.0633C63.7397 66.3531 63.7865 66.4368 64.0498 66.573C64.4516 66.7808 64.5452 66.7794 64.3697 66.568C64.1859 66.3466 64.1692 65.8776 64.3452 65.8776C64.4209 65.8776 64.4771 65.9138 64.4702 65.9581C64.4631 66.0024 64.4692 66.0747 64.4836 66.119C64.5261 66.2502 64.5624 66.4069 64.5767 66.5214C64.5841 66.5804 64.6647 66.6287 64.7559 66.6287C64.8471 66.6287 65.0425 66.7494 65.19 66.8969C65.3375 67.0444 65.5499 67.1651 65.6618 67.1651C65.8027 67.1651 65.8535 67.2267 65.8267 67.3655C65.8049 67.4787 65.9257 67.7166 66.1043 67.9122C66.4129 68.25 66.5828 68.8313 66.405 68.9411C66.3562 68.9713 66.3416 69.0623 66.3727 69.1433C66.4038 69.2243 66.2894 69.4471 66.1185 69.6384C65.8561 69.9322 65.7756 69.9676 65.6012 69.8664C65.4877 69.8005 65.4345 69.7452 65.4829 69.7434C65.5314 69.7416 65.4987 69.6677 65.4102 69.5792C65.1902 69.3593 64.6974 69.3672 64.6974 69.5907C64.6974 69.7052 64.6393 69.7408 64.5246 69.6968C64.3995 69.6487 64.3693 69.6764 64.4155 69.7968C64.4674 69.9321 64.4001 69.9586 64.0548 69.9382C63.8214 69.9244 63.5972 69.9463 63.5568 69.9866C63.5163 70.027 63.419 70.0069 63.3406 69.9417C63.233 69.8524 63.1815 69.8658 63.1315 69.9963C63.0949 70.0914 62.9993 70.1693 62.9189 70.1693C62.8354 70.1693 62.7984 70.1027 62.8327 70.0135C62.8655 69.9278 62.855 69.7971 62.8092 69.723C62.6341 69.4397 62.6717 69.1068 62.8865 69.0386C63.1647 68.9503 63.6381 69.258 63.5555 69.4733C63.511 69.5892 63.5425 69.6164 63.6662 69.5689C63.7613 69.5324 63.8391 69.556 63.8391 69.6214C63.8391 69.8032 64.0665 69.7627 64.2262 69.5524C64.4606 69.2436 64.4042 69 64.0805 68.9227C63.9181 68.8839 63.7371 68.8197 63.6781 68.7799C63.5236 68.6757 63.2946 68.7078 62.9271 68.885C62.5291 69.0769 62.3049 69.282 62.4414 69.3292C62.4977 69.3486 62.3886 69.5657 62.199 69.8115C61.8781 70.2274 61.4218 70.4524 60.969 70.4179C60.8953 70.4123 60.8349 70.4506 60.8349 70.5031C60.8349 70.5556 60.7354 70.5985 60.614 70.5985C60.4726 70.5985 60.4175 70.5502 60.461 70.4644C60.4983 70.3907 60.4561 70.4195 60.3672 70.5287C60.1953 70.7396 59.7255 70.7855 59.1139 70.6512C58.8515 70.5936 58.8036 70.5503 58.9162 70.4725C59.0191 70.4014 58.9823 70.3923 58.7963 70.4429C58.6488 70.483 58.504 70.5161 58.4744 70.5163C57.94 70.5197 57.7234 70.4695 57.7234 70.3422C57.7234 70.2565 57.5618 70.1629 57.343 70.1218C57.0744 70.0715 56.9333 69.9732 56.8626 69.7872C56.8075 69.6424 56.7033 69.5364 56.6308 69.5516C56.5585 69.5668 56.4954 69.5309 56.4906 69.4719C56.4727 69.2497 56.2065 68.8783 56.1086 68.9388C56.0525 68.9734 56.0067 68.8971 56.0067 68.7694C56.0067 68.6069 55.9583 68.5555 55.8458 68.5988C55.7499 68.6356 55.6848 68.5997 55.6848 68.5101C55.6848 68.4274 55.5883 68.3291 55.4703 68.2917C55.3331 68.2481 55.2557 68.1294 55.2557 67.9626C55.2557 67.8191 55.1954 67.7008 55.1216 67.7C55.0319 67.6988 55.0408 67.6633 55.1484 67.5927C55.2811 67.5055 55.284 67.4707 55.1647 67.3938C55.0444 67.3161 55.0459 67.2764 55.1738 67.1569C55.307 67.0325 55.3048 66.9712 55.1575 66.6969C55.0639 66.5229 54.8992 66.2877 54.7914 66.1744C54.6836 66.0611 54.6234 65.8951 54.6577 65.8057C54.6921 65.7162 54.7513 65.5189 54.7894 65.3672C54.8462 65.1405 54.827 65.1034 54.6817 65.1592C54.3952 65.2692 54.461 64.7212 54.7852 64.2961C54.9727 64.0502 55.0301 63.8925 54.9583 63.8206C54.8864 63.7487 54.8278 63.7502 54.7815 63.825C54.6464 64.0438 53.985 63.5663 53.8171 63.1286C53.7545 62.9658 53.7261 62.9589 53.6466 63.0874C53.5394 63.261 53.6995 63.5172 53.9152 63.5172C53.9895 63.5172 54.0803 63.6017 54.1167 63.7049C54.1531 63.8082 54.211 63.9531 54.2454 64.0268C54.2813 64.104 54.2357 64.1609 54.138 64.1609C53.9529 64.1609 53.9288 64.2818 53.9634 65.0361C53.9861 65.5282 53.8361 65.9849 53.652 65.9849C53.5608 65.9849 53.371 65.2101 53.3956 64.9388C53.4024 64.8651 53.3374 64.8047 53.2511 64.8047C53.165 64.8047 53.0221 64.7323 52.9335 64.6437C52.845 64.5552 52.8243 64.4828 52.8876 64.4828C53.0468 64.4828 53.0312 64.3469 52.8436 64.101C52.7109 63.927 52.6682 63.9179 52.5843 64.0455C52.5172 64.1476 52.5526 64.3727 52.6911 64.7239C52.805 65.0129 52.8706 65.2943 52.8368 65.349C52.803 65.4037 52.8167 65.4484 52.8673 65.4484C52.918 65.4484 52.9405 65.6106 52.9173 65.8086C52.8868 66.0708 52.9233 66.1874 53.0518 66.2366C53.1681 66.2812 53.2024 66.2626 53.1524 66.1817C53.1057 66.1061 53.1242 66.0884 53.2005 66.1357C53.2686 66.1777 53.3244 66.2978 53.3244 66.4025C53.3244 66.5072 53.3576 66.6261 53.3981 66.6666C53.5095 66.7779 53.5167 67.1651 53.4074 67.1651C53.3548 67.1651 53.3354 67.2034 53.3643 67.2502C53.3932 67.2969 53.2754 67.346 53.1024 67.3591C52.8824 67.376 52.7879 67.3342 52.7879 67.2205C52.7879 67.131 52.7368 67.0578 52.6743 67.0578C52.6119 67.0578 52.5869 67.0156 52.6187 66.9638C52.6507 66.9121 52.4846 66.7366 52.2495 66.5737C52.0146 66.4109 51.8223 66.2359 51.8223 66.1849C51.8223 66.1339 51.7482 66.0922 51.6576 66.0922C51.5236 66.0922 51.5153 66.0502 51.6132 65.8674C51.7205 65.6669 51.7094 65.6504 51.5097 65.7138C51.3602 65.7612 51.2856 65.7378 51.2853 65.6434C51.285 65.5657 51.1764 65.3791 51.0439 65.2288C50.9114 65.0785 50.8452 65.0181 50.8966 65.0947C51.0546 65.3296 50.8036 65.2517 50.5571 64.9894C50.4308 64.8549 50.3138 64.5773 50.297 64.3725C50.2682 64.0201 50.0084 63.7662 49.74 63.828C49.6863 63.8403 49.6091 63.7964 49.5683 63.7303C49.5274 63.6643 49.4265 63.6 49.3439 63.5875C49.2612 63.575 49.1333 63.5271 49.0595 63.481C48.9653 63.4221 48.9254 63.479 48.9254 63.6718C48.9254 63.8227 48.8771 63.9463 48.8181 63.9463C48.637 63.9463 48.6989 64.2563 48.9254 64.4828C49.0434 64.6008 49.1402 64.7336 49.1404 64.7779C49.141 64.8625 49.8317 65.6533 50.4995 66.3336C50.7167 66.5549 50.9583 66.736 51.0365 66.736C51.1146 66.736 51.1786 66.834 51.1786 66.9539C51.1786 67.0738 51.251 67.1997 51.3395 67.2336C51.428 67.2676 51.5004 67.3801 51.5004 67.4837C51.5004 67.5873 51.6454 67.8597 51.8226 68.0891C51.9999 68.3186 52.2171 68.6006 52.3054 68.7158C52.3937 68.8312 52.4662 68.976 52.4664 69.0377C52.4665 69.0995 52.6079 69.2447 52.7806 69.3603C52.9533 69.4761 53.0767 69.5998 53.0547 69.6353C53.0327 69.6708 53.1028 69.8342 53.2106 69.9984C53.3331 70.1852 53.4341 70.2524 53.4801 70.1778C53.5206 70.1121 53.6011 70.0878 53.6589 70.1235C53.725 70.1644 53.7174 70.2445 53.6383 70.3398C53.5692 70.4231 53.5566 70.4912 53.6103 70.4912C53.664 70.4912 53.7152 70.5878 53.7241 70.7058C53.733 70.8238 53.6921 70.9204 53.6333 70.9204C53.5745 70.9204 53.5579 70.9714 53.5965 71.034C53.6367 71.0991 53.7996 71.1183 53.9784 71.079C54.2198 71.026 54.29 71.0488 54.29 71.1801C54.29 71.2732 54.3439 71.3495 54.4099 71.3495C54.4782 71.3495 54.5047 71.445 54.4715 71.5721C54.4033 71.8327 54.6447 72.1095 55.126 72.3225C55.3773 72.4337 55.43 72.5026 55.3435 72.6068C55.2573 72.7106 55.2808 72.7443 55.4392 72.7443C55.5547 72.7443 55.6582 72.8168 55.6695 72.9053C55.6808 72.9938 55.6991 73.1628 55.7104 73.2808C55.7243 73.4268 55.8092 73.4954 55.976 73.4954C56.1776 73.4954 56.2213 73.5533 56.2213 73.821C56.2213 74.1183 56.2408 74.1362 56.446 74.0265C56.5939 73.9473 56.6523 73.8359 56.6169 73.7006C56.5874 73.5875 56.5949 73.5095 56.6336 73.5271C57.1307 73.7531 57.4001 73.9185 57.6669 74.1618C58.0025 74.4679 58.689 74.5568 58.689 74.2942C58.689 74.0699 58.9523 74.0469 59.2022 74.2491C59.333 74.3551 59.4401 74.5237 59.4401 74.6238C59.4401 74.7416 59.4969 74.7841 59.601 74.7441C59.7132 74.701 59.7642 74.7544 59.7695 74.9203C59.7768 75.148 59.7808 75.1491 59.8653 74.9438C59.9463 74.7468 59.9598 74.7447 60.0302 74.917C60.0731 75.0222 60.2198 75.1048 60.3635 75.1048C60.5227 75.1048 60.6203 75.1673 60.6203 75.2691C60.6203 75.4405 61.0372 75.655 61.1922 75.5633C61.2411 75.5345 61.48 75.5006 61.7233 75.4881C62.1396 75.4669 62.2972 75.538 62.7168 75.9363C62.7946 76.0101 63.0092 76.0704 63.1937 76.0704C63.5191 76.0704 63.5243 76.0777 63.3624 76.3089C63.2705 76.44 63.1953 76.6482 63.1953 76.7715C63.1953 76.8947 63.0988 77.0992 62.9807 77.2259C62.7733 77.4485 62.6698 78.2143 62.8466 78.2179C62.8909 78.2188 62.9995 78.2674 63.088 78.326C63.2246 78.4162 63.2083 78.466 62.9807 78.6541C62.7927 78.8096 62.7541 78.8927 62.852 78.9323C62.9624 78.977 62.956 79.0427 62.8214 79.2482C62.6697 79.4797 62.669 79.5144 62.8154 79.5706C63.0591 79.6641 62.8916 79.8458 62.6364 79.7649C62.4978 79.7209 62.4427 79.7363 62.4862 79.8068C62.5241 79.868 62.5036 79.9499 62.4408 79.9887C62.3602 80.0386 62.3604 80.1001 62.4418 80.1982C62.5266 80.3004 62.5141 80.3535 62.3946 80.3994C62.2703 80.4471 62.2554 80.5233 62.3314 80.723C62.4155 80.9442 62.3947 80.9943 62.1961 81.0488C61.963 81.1127 61.9632 81.114 62.2297 81.2519C62.455 81.3684 62.4922 81.4542 62.4627 81.7883C62.4324 82.1308 62.4584 82.1861 62.6505 82.1861C62.7771 82.1861 62.8734 82.1166 62.8734 82.0251C62.8734 81.9366 62.9217 81.8642 62.9807 81.8642C63.0397 81.8642 63.088 81.9387 63.088 82.0296C63.088 82.1206 63.1846 82.2987 63.3026 82.4253C63.4206 82.5521 63.5172 82.5983 63.5172 82.5282C63.5172 82.2589 63.7098 82.4165 63.7546 82.7225C63.7806 82.8996 63.756 83.0444 63.7 83.0444C63.644 83.0444 63.6516 83.1088 63.717 83.1875C63.8856 83.3907 64.2555 83.3359 64.5356 83.0663C64.7893 82.8221 64.9389 82.8495 64.8348 83.1209C64.7869 83.2456 64.8242 83.2673 64.9941 83.2134C65.116 83.1747 65.2469 83.1932 65.2848 83.2546C65.3228 83.3161 65.2999 83.3663 65.2339 83.3663C65.1679 83.3663 65.1457 83.4177 65.1845 83.4806C65.2324 83.5579 65.3125 83.5465 65.4323 83.4457C65.6411 83.2698 66.0922 83.2251 66.0922 83.3802C66.0922 83.5063 66.5569 83.385 66.6108 83.2448C66.6862 83.0485 66.8542 83.1627 66.7896 83.3663C66.7365 83.5337 66.7703 83.5809 66.9434 83.5809C67.0654 83.5809 67.1651 83.6321 67.1651 83.6945C67.1651 83.757 67.1093 83.7737 67.0412 83.7316C66.966 83.6851 66.9465 83.702 66.9914 83.7749C67.0863 83.9283 67.6181 83.706 67.5617 83.5366C67.5244 83.4248 67.7324 83.1517 67.8549 83.1517C67.8886 83.1517 67.9162 83.219 67.9162 83.3012C67.9162 83.4954 68.1622 83.5874 68.3551 83.4653C68.4383 83.4126 68.5764 83.3689 68.6619 83.3679C68.7829 83.3666 68.7888 83.3949 68.6887 83.495C68.4916 83.6921 68.5354 83.8178 68.7745 83.7418C68.9569 83.6839 68.9891 83.7225 68.9891 83.9994C68.9891 84.2607 69.0263 84.3135 69.1769 84.2662C69.3336 84.2168 69.3292 84.2371 69.1501 84.3891C68.9913 84.5239 68.9723 84.5848 69.0771 84.6239C69.1792 84.662 69.1569 84.72 68.9966 84.8322C68.7503 85.0049 68.7007 85.3525 68.9086 85.4496C69.0123 85.498 69.0133 85.526 68.9128 85.5733C68.8316 85.6116 68.8065 85.7525 68.8458 85.9488C68.8884 86.162 68.8656 86.2632 68.7749 86.2632C68.6819 86.2632 68.6739 86.3043 68.7484 86.3973C68.8706 86.5499 68.8921 87.5507 68.7732 87.5507C68.7303 87.5507 68.6883 87.7076 68.6797 87.8994C68.64 88.7875 68.6083 89.0528 68.542 89.0528C68.4525 89.0528 68.5064 89.6797 68.6195 89.9556C68.6788 90.1003 68.6667 90.1381 68.5782 90.0833C68.5039 90.0374 68.4527 90.0707 68.4527 90.1646C68.4527 90.4181 69.0838 90.5081 69.2961 90.285C69.4269 90.1474 69.4376 90.0873 69.3378 90.0503C69.1392 89.9767 69.1727 89.8484 69.4754 89.5218C69.6248 89.3605 69.8058 89.109 69.8777 88.9629C69.9496 88.8166 70.1023 88.6443 70.2171 88.5799C70.6501 88.3368 70.8414 88.0998 70.7835 87.8784C70.7518 87.7571 70.7696 87.658 70.8232 87.658C70.8766 87.658 70.9204 87.7092 70.9204 87.7716C70.9204 87.8341 70.9665 87.8567 71.023 87.8218C71.0794 87.787 71.0984 87.6875 71.0651 87.6009C71.0275 87.5027 71.0696 87.4434 71.1771 87.4434C71.2871 87.4434 71.3496 87.351 71.3496 87.1883C71.3496 87.0451 71.4555 86.8592 71.591 86.7647C71.8053 86.6152 71.8101 86.5957 71.6338 86.5907C71.4839 86.5865 71.567 86.4559 71.9723 86.059C72.2678 85.7698 72.6107 85.501 72.7343 85.4617C72.8579 85.4225 72.9589 85.351 72.9589 85.3028C72.9589 85.1744 73.4898 85.0945 73.5625 85.2119C73.5966 85.2671 73.6904 85.2868 73.771 85.2559C73.8517 85.2249 73.9462 85.2458 73.9811 85.3023C74.0809 85.4637 74.5278 85.4221 74.6812 85.2372C74.8075 85.0851 74.8293 85.0851 74.9148 85.238C74.9667 85.3307 74.9795 85.4544 74.9433 85.513C74.9072 85.5716 74.9287 85.6194 74.9912 85.6194C75.0536 85.6194 75.1048 85.5757 75.1048 85.5222C75.1048 85.4687 75.2014 85.4502 75.3194 85.481C75.4393 85.5125 75.534 85.4844 75.534 85.4174C75.534 85.3514 75.5862 85.2976 75.65 85.2976C75.7208 85.2976 75.7463 85.4442 75.7154 85.6731C75.673 85.9877 75.6978 86.0486 75.8676 86.0486C75.9791 86.0486 76.0704 86.1151 76.0704 86.1965C76.0704 86.2777 76.1428 86.4043 76.2314 86.4778C76.4498 86.659 76.4339 86.8925 76.1615 87.5103C75.891 88.1233 75.0356 88.9817 74.4147 89.263C72.4525 90.1519 69.6501 90.9011 69.1961 90.6581C69.0525 90.5813 68.8775 90.6202 68.525 90.8078C67.8614 91.1606 66.5103 91.3535 64.8047 91.3388C63.3551 91.3263 61.7016 91.1567 61.5911 91.009C61.5588 90.9657 61.4116 90.9238 61.2641 90.9156C60.5527 90.8761 60.0721 90.786 59.9257 90.6645C59.8372 90.5911 59.6976 90.5566 59.6155 90.5882C59.5334 90.6197 59.4218 90.601 59.3677 90.5468C59.3135 90.4927 59.0323 90.4205 58.7427 90.3864C58.4532 90.3524 58.1327 90.2798 58.0306 90.2251C57.9283 90.1705 57.7751 90.1257 57.6898 90.1257C57.6046 90.1257 57.1411 89.9079 56.6598 89.6417C56.1785 89.3754 55.726 89.1461 55.6544 89.1321C55.5826 89.1179 55.4922 89.0628 55.4536 89.0093C55.415 88.9559 55.2467 88.8977 55.0796 88.8798C54.9127 88.862 54.7591 88.7971 54.7386 88.7355C54.7181 88.674 54.6147 88.6236 54.5088 88.6236C54.4029 88.6236 54.2562 88.5512 54.1827 88.4627C54.1093 88.3742 53.8902 88.3018 53.6957 88.3018C53.5013 88.3018 53.3262 88.2595 53.3065 88.2079C53.2869 88.1563 52.9811 87.9613 52.627 87.7747C52.0387 87.4647 51.4881 87.1086 51.0713 86.7684C50.9827 86.6962 50.5965 86.4262 50.2129 86.1684C49.8294 85.9105 49.4009 85.597 49.2609 85.4717C48.8806 85.1314 48.1661 84.1393 47.834 83.4906C47.6728 83.1755 47.4861 82.8518 47.4193 82.7714C47.2567 82.5754 46.8869 81.8442 46.8869 81.7186C46.8869 81.6636 46.7179 81.2671 46.5113 80.8377C46.2395 80.2725 46.1358 79.9119 46.1358 79.5312C46.1358 78.8791 46.4005 78.067 46.7743 77.5725C47.3999 76.7447 47.7688 76.0881 47.6847 75.952C47.5068 75.6642 46.8646 75.992 45.8166 76.9055C45.0707 77.5557 44.3464 77.9937 44.0079 77.9993C43.9291 78.0006 43.5115 78.1431 43.0798 78.316C42.2699 78.6403 41.4263 79.1753 40.7712 79.78C40.5646 79.9707 39.7301 80.4457 38.9166 80.8357C38.1031 81.2256 37.0805 81.7614 36.6442 82.0263C36.2078 82.2912 35.8183 82.508 35.7789 82.508C35.7393 82.508 35.2305 82.7753 34.6481 83.1023C33.058 83.9947 30.6521 85.1347 28.5398 85.9966C28.2153 86.129 27.0499 86.6034 25.9501 87.0508C23.4109 88.0838 21.1215 89.2231 19.8537 90.0846C19.6468 90.2253 19.4398 90.3403 19.3938 90.3403C19.1765 90.3403 15.747 92.1336 15.1488 92.5601C14.7764 92.8254 14.0281 93.4605 13.4857 93.9714C12.3872 95.0061 11.671 95.6055 10.9282 96.1115C10.3979 96.4726 9.76363 97.2438 9.76363 97.5273C9.76363 97.6847 9.52856 98.2805 8.74693 100.104C8.41121 100.887 8.02399 101.906 7.72754 102.786C7.61821 103.111 7.3768 103.787 7.19097 104.288C6.36461 106.519 5.55744 108.894 5.30263 109.846C5.21261 110.182 5.01551 110.916 4.86466 111.477C4.71391 112.038 4.40212 113.196 4.17198 114.052C3.94173 114.908 3.62865 116.115 3.47618 116.734C3.32372 117.354 3.01182 118.526 2.78307 119.339C2.55433 120.151 2.24307 121.453 2.09136 122.231C1.93965 123.009 1.62936 124.3 1.40179 125.099C1.012 126.467 0.643768 127.855 0.643768 127.955C0.643768 127.98 29.2075 128 64.1188 128C124.53 128 127.59 127.991 127.513 127.812C127.469 127.709 127.375 127.431 127.306 127.195C127.236 126.959 127.128 126.645 127.066 126.498C126.703 125.63 126.009 123.372 125.483 121.348C125.321 120.728 125.005 119.569 124.78 118.773C124.555 117.976 124.337 117.155 124.295 116.949C124.254 116.742 124.185 116.525 124.141 116.466C124.062 116.357 123.864 115.78 123.278 113.945C123.098 113.384 122.903 112.781 122.843 112.604C122.783 112.426 122.511 111.606 122.24 110.78C121.969 109.953 121.633 109.027 121.494 108.721C121.354 108.415 121.241 108.113 121.241 108.051C121.241 107.926 120.744 106.593 120.589 106.302C120.534 106.199 120.49 106.063 120.49 106C120.49 105.885 120.176 105.162 119.676 104.126C119.533 103.83 119.417 103.547 119.417 103.496C119.417 103.446 119.255 103.181 119.057 102.908C118.86 102.634 118.627 102.266 118.539 102.089C118.451 101.912 118.282 101.598 118.164 101.391C118.027 101.152 117.964 100.88 117.99 100.64C118.035 100.212 117.824 99.7761 117.003 98.5928C116.291 97.568 116.142 97.3638 115.436 96.4385C115.106 96.0055 114.772 95.531 114.694 95.384C114.617 95.237 114.32 94.8362 114.034 94.4933C113.749 94.1504 113.516 93.8176 113.516 93.7536C113.516 93.5617 110.861 91.0218 110.463 90.833C110.26 90.7368 109.839 90.49 109.527 90.2845C109.216 90.0792 108.93 89.9111 108.893 89.9111C108.857 89.9111 108.496 89.6939 108.091 89.4283C107.687 89.1628 107.313 88.9455 107.259 88.9455C107.206 88.9455 106.987 88.8085 106.772 88.6409C106.557 88.4734 106.212 88.249 106.005 88.1422C105.799 88.0353 105.436 87.8492 105.2 87.7285C104.964 87.6078 104.747 87.4786 104.718 87.4414C104.688 87.4043 104.447 87.2627 104.181 87.1269C103.916 86.9912 103.626 86.8395 103.537 86.7899C103.449 86.7402 103.102 86.5552 102.766 86.3789C101.915 85.9322 101.668 85.7907 101.606 85.7143C101.538 85.6309 100.379 85.083 100.271 85.083C100.185 85.083 99.9533 84.9838 98.7632 84.4374C98.3504 84.2478 97.602 83.9484 97.1002 83.772C96.5984 83.5956 96.1395 83.413 96.0805 83.3661C96.0215 83.3192 95.7318 83.2087 95.4367 83.1205C94.6498 82.8851 93.8546 82.5556 92.812 82.0329C92.3034 81.7778 91.7203 81.5334 91.5161 81.4898C91.3121 81.446 91.0243 81.3466 90.8768 81.2687C90.7293 81.1909 90.4843 81.1011 90.3325 81.0693C90.1807 81.0374 89.8693 80.8843 89.6407 80.7292C89.412 80.574 89.0535 80.3551 88.8438 80.2429C88.6343 80.1306 88.2358 79.8377 87.9585 79.5921C87.4474 79.1393 86.0394 78.4924 85.2919 78.3669C84.9717 78.3131 84.8699 78.223 84.6554 77.8036C84.5151 77.5289 84.2547 77.1474 84.0768 76.9556C83.7931 76.6498 83.6858 76.6069 83.2045 76.6069C82.8305 76.6069 82.5895 76.5467 82.4478 76.4177C82.3333 76.3136 82.0225 76.1398 81.7569 76.0313C81.4914 75.9229 81.1136 75.7657 80.9175 75.682C80.7213 75.5983 80.1902 75.5036 79.7373 75.4714C78.5926 75.3902 78.461 75.3528 78.3023 75.064C78.2255 74.9242 78.0834 74.6711 77.9868 74.5014C77.8815 74.3168 77.7866 73.8263 77.7504 73.2808C77.7172 72.7792 77.641 71.9101 77.5812 71.3495C77.4552 70.1676 77.4363 69.5193 77.4524 66.9505C77.464 65.0771 77.575 64.2742 77.8542 64.0426C77.9353 63.9752 78.0017 63.8726 78.0017 63.8146C78.0017 63.7565 78.1292 63.5575 78.285 63.3723C78.8602 62.6888 79.879 60.135 80.1533 58.689C80.2261 58.3054 80.3216 57.9433 80.3656 57.8843C80.4095 57.8253 80.4837 57.4149 80.5304 56.9723C80.5769 56.5298 80.6233 56.1194 80.6333 56.0603C80.6431 56.0013 80.6587 55.7302 80.6677 55.4579C80.6782 55.139 80.7632 54.8621 80.9063 54.6801L81.1286 54.3975L81.8051 54.8802C82.6361 55.4731 83.0267 55.5079 83.6649 55.0456C84.2542 54.6188 84.6538 53.9193 84.6538 53.3149C84.6538 53.0545 84.7301 52.4553 84.8234 51.9832C84.9166 51.5111 85.0162 50.5697 85.0448 49.891C85.0733 49.2124 85.1681 48.3916 85.2553 48.0671C85.3425 47.7425 85.4352 47.3804 85.4612 47.2624C85.4872 47.1443 85.5821 46.7822 85.6721 46.4577C85.9471 45.4667 85.995 44.9712 85.9938 43.1316L85.9926 41.3613L85.5768 40.3956C85.3445 39.8563 85.0982 39.051 85.0189 38.5717C84.9409 38.0996 84.8273 37.4719 84.7665 37.1769C84.2747 34.7904 84.0821 32.4131 84.3464 31.9899C84.4348 31.8484 84.4381 31.5916 84.3582 31.0526C84.2977 30.6442 84.2502 29.5572 84.2526 28.6367C84.257 26.9141 84.2639 26.9509 83.7572 26.0184C83.6609 25.8414 83.582 25.6101 83.5815 25.5043C83.5812 25.3986 83.4897 25.2142 83.3783 25.0945C83.2669 24.975 83.198 24.792 83.2252 24.6878C83.2524 24.5837 83.1752 24.3335 83.0536 24.1319C82.932 23.9303 82.7848 23.6567 82.7265 23.5239C82.6683 23.3911 82.5745 23.2825 82.5181 23.2825C82.2897 23.2825 81.6477 22.7839 81.5856 22.5582C81.549 22.4254 81.4717 22.3168 81.4138 22.3168C81.274 22.3168 80.9066 21.8708 80.9021 21.6956C80.9002 21.6195 80.7962 21.3567 80.6712 21.1115C80.5021 20.7801 80.4722 20.6203 80.5546 20.4884C80.6458 20.3423 80.6009 20.2857 80.3001 20.1678C80.0993 20.0889 79.9071 19.9367 79.8731 19.8295C79.8391 19.7223 79.7541 19.6326 79.6844 19.6302C79.5404 19.6254 78.7527 18.3281 78.7527 18.096C78.7527 18.0124 78.6776 17.8818 78.5859 17.8057C78.3006 17.5689 78.2044 17.2856 78.2773 16.8971C78.3246 16.6444 78.4065 16.523 78.5296 16.523C78.6298 16.523 78.8053 16.4546 78.9197 16.371C79.052 16.2742 79.1714 16.2552 79.2478 16.3186C79.3248 16.3826 79.4129 16.3642 79.4929 16.2678C79.5922 16.1483 79.5491 16.0484 79.283 15.7823C79.0988 15.5981 78.8573 15.3988 78.7465 15.3395C78.58 15.2503 78.5636 15.1827 78.6519 14.9505C78.7107 14.7958 78.7453 14.664 78.7289 14.6573C78.7125 14.6508 78.5368 14.5601 78.3384 14.4557C78.0124 14.2844 77.9469 14.2815 77.6575 14.4259C77.3965 14.5562 77.3477 14.5584 77.3939 14.4383C77.4805 14.2126 77.0738 14.1589 76.5848 14.3314C75.9365 14.56 75.4913 14.5249 75.1243 14.2163C74.949 14.0687 74.7228 13.948 74.6217 13.948C74.4791 13.948 74.4529 13.8877 74.5051 13.6798C74.5603 13.4601 74.5332 13.4116 74.3558 13.4116C74.1936 13.4116 74.1392 13.341 74.1392 13.1302C74.1392 12.9195 74.1055 12.8757 74.005 12.9559C73.8657 13.067 73.6187 13.0574 73.1917 12.9238C73.0155 12.8687 72.9571 12.7864 72.994 12.6453C73.0318 12.5008 72.9747 12.427 72.7889 12.3804C72.5773 12.3273 72.5433 12.2682 72.5983 12.0493C72.6612 11.7985 72.6513 11.7912 72.43 11.9266C72.2248 12.0521 72.176 12.0451 72.0476 11.8719C71.9666 11.7627 71.8565 11.7005 71.803 11.7336C71.7493 11.7667 71.6039 11.6564 71.4798 11.4884C71.2812 11.2198 71.2723 11.1592 71.4058 10.983C71.6749 10.6276 71.6034 10.4083 71.2154 10.3991C71.0236 10.3946 70.6978 10.3795 70.4912 10.3655C70.2847 10.3516 70.0159 10.3749 69.894 10.4172C69.58 10.5265 68.7344 10.3474 68.0618 10.0293C67.6178 9.81919 67.3364 9.76168 66.817 9.77455C65.9349 9.79655 64.3559 9.48047 63.9901 9.2088C63.9257 9.16084 63.8459 9.14872 63.813 9.18176ZM47.5105 17.3474C47.5879 17.3784 47.6805 17.3745 47.7161 17.3389C47.7517 17.3033 47.6884 17.278 47.5753 17.2826C47.4504 17.2877 47.4249 17.3131 47.5105 17.3474ZM62.7661 19.7481C62.7661 19.8106 62.8144 19.8319 62.8734 19.7955C62.9325 19.759 62.9807 19.7079 62.9807 19.6818C62.9807 19.6558 62.9325 19.6345 62.8734 19.6345C62.8144 19.6345 62.7661 19.6857 62.7661 19.7481ZM54.5046 19.9564C54.5046 20.0154 54.5529 20.0637 54.6119 20.0637C54.6709 20.0637 54.7192 20.0154 54.7192 19.9564C54.7192 19.8974 54.6709 19.8491 54.6119 19.8491C54.5529 19.8491 54.5046 19.8974 54.5046 19.9564ZM70.7058 21.1399C70.7058 21.1971 70.7782 21.2439 70.8667 21.2439C70.9553 21.2439 71.0277 21.2249 71.0277 21.2017C71.0277 21.1786 70.9553 21.1318 70.8667 21.0978C70.7782 21.0639 70.7058 21.0829 70.7058 21.1399ZM70.0153 21.6416C69.9571 21.7945 69.9693 21.8069 70.0753 21.7017C70.1487 21.6289 70.1817 21.5423 70.1486 21.5094C70.1156 21.4763 70.0556 21.5359 70.0153 21.6416ZM71.3496 23.5839C71.3496 23.6906 71.4223 23.8716 71.5111 23.9862C71.6617 24.1803 71.6653 24.1738 71.564 23.8904C71.5043 23.7231 71.4826 23.5421 71.5161 23.488C71.5494 23.434 71.5256 23.3898 71.4632 23.3898C71.4007 23.3898 71.3496 23.4771 71.3496 23.5839ZM71.886 23.4971C71.886 23.5561 71.9372 23.6043 71.9996 23.6043C72.0621 23.6043 72.0834 23.5561 72.047 23.4971C72.0105 23.438 71.9594 23.3898 71.9333 23.3898C71.9073 23.3898 71.886 23.438 71.886 23.4971ZM72.5298 24.9992C72.5298 25.0582 72.5752 25.1064 72.6307 25.1064C72.6863 25.1064 72.7615 25.0582 72.798 24.9992C72.8345 24.9401 72.789 24.8919 72.697 24.8919C72.6051 24.8919 72.5298 24.9401 72.5298 24.9992ZM73.2117 27.2082C73.2032 27.3497 73.2395 27.4388 73.2922 27.4062C73.4087 27.3342 73.4188 27.0694 73.3076 27.0007C73.2633 26.9733 73.2202 27.0668 73.2117 27.2082ZM71.3901 27.8737C71.3249 27.9155 71.3034 28.0389 71.3425 28.1479C71.4076 28.3302 71.425 28.332 71.5593 28.1702C71.7197 27.9768 71.5883 27.7467 71.3901 27.8737ZM46.6723 28.8617C46.6723 28.9207 46.5998 28.969 46.5113 28.969C46.4228 28.969 46.3504 29.0373 46.3504 29.121C46.3504 29.2046 46.2901 29.2973 46.2163 29.3271C46.1426 29.3568 46.2102 29.3851 46.3667 29.3897C46.59 29.3963 46.6755 29.3287 46.7635 29.0763C46.8316 28.8809 46.8358 28.7544 46.774 28.7544C46.7181 28.7544 46.6723 28.8027 46.6723 28.8617ZM72.1006 28.8617C72.0039 28.9241 71.9906 28.9663 72.0674 28.9674C72.1377 28.9682 72.2251 28.9207 72.2615 28.8617C72.3438 28.7284 72.3067 28.7284 72.1006 28.8617ZM72.8248 28.9327C72.8986 28.9625 73.0193 28.9625 73.0931 28.9327C73.1669 28.903 73.1065 28.8786 72.9589 28.8786C72.8114 28.8786 72.7511 28.903 72.8248 28.9327ZM70.4912 29.2909C70.4912 29.3499 70.5395 29.3981 70.5985 29.3981C70.6575 29.3981 70.7058 29.3499 70.7058 29.2909C70.7058 29.2318 70.6575 29.1836 70.5985 29.1836C70.5395 29.1836 70.4912 29.2318 70.4912 29.2909ZM72.7444 29.2875C72.7444 29.3446 72.8168 29.3636 72.9053 29.3297C72.9938 29.2957 73.0662 29.2489 73.0662 29.2257C73.0662 29.2026 72.9938 29.1836 72.9053 29.1836C72.8168 29.1836 72.7444 29.2303 72.7444 29.2875ZM68.8818 29.5054C68.8818 29.5645 68.9571 29.6127 69.0491 29.6127C69.141 29.6127 69.1865 29.5645 69.1501 29.5054C69.1136 29.4464 69.0384 29.3981 68.9828 29.3981C68.9272 29.3981 68.8818 29.4464 68.8818 29.5054ZM70.4663 29.6308C70.5288 29.6932 70.643 29.723 70.7205 29.6973C70.8009 29.6705 70.7521 29.6219 70.6071 29.5839C70.4287 29.5372 70.3867 29.5511 70.4663 29.6308ZM71.1866 29.7725C70.9844 29.9303 70.9924 29.937 71.3496 29.9097C71.5561 29.8938 71.7155 29.8327 71.7039 29.7737C71.669 29.5964 71.4127 29.5958 71.1866 29.7725ZM70.4912 30.9002C70.4061 30.9528 70.3606 31.02 70.3901 31.0495C70.4196 31.079 70.5134 31.0601 70.5985 31.0075C70.6836 30.955 70.7291 30.8878 70.6996 30.8583C70.6701 30.8288 70.5763 30.8477 70.4912 30.9002ZM43.8404 32.3047C43.7005 32.5416 43.6775 32.6693 43.76 32.7518C43.8426 32.8344 43.891 32.824 43.9297 32.7153C43.9593 32.6317 44.0321 32.4304 44.0915 32.2682C44.2364 31.8713 44.0832 31.8937 43.8404 32.3047ZM71.6714 32.295C71.6714 32.3541 71.7468 32.4023 71.8387 32.4023C71.9307 32.4023 71.9761 32.3541 71.9397 32.295C71.9032 32.236 71.828 32.1878 71.7724 32.1878C71.7168 32.1878 71.6714 32.236 71.6714 32.295ZM72.4225 32.81C72.4225 32.9547 72.6705 33.1536 72.8463 33.15C72.9869 33.1471 72.9839 33.1247 72.8265 33.0052C72.7242 32.9275 72.6718 32.8325 72.7102 32.7941C72.7486 32.7557 72.6996 32.7242 72.6013 32.7242C72.5029 32.7242 72.4225 32.7628 72.4225 32.81ZM44.3118 33.2134C44.3118 33.3053 44.3609 33.3503 44.4208 33.3133C44.4808 33.2761 44.5022 33.2009 44.4682 33.146C44.3762 32.9972 44.3118 33.0248 44.3118 33.2134ZM44.0972 33.7971C44.0972 33.8562 44.1455 33.9044 44.2045 33.9044C44.2636 33.9044 44.3118 33.8562 44.3118 33.7971C44.3118 33.7381 44.2636 33.6898 44.2045 33.6898C44.1455 33.6898 44.0972 33.7381 44.0972 33.7971ZM43.896 34.556C43.7515 34.9704 43.751 34.9774 43.8654 34.9774C44.0159 34.9774 44.2251 34.4186 44.1157 34.3091C44.0551 34.2485 43.9698 34.3444 43.896 34.556ZM52.4348 34.322C52.1197 34.3726 51.8196 34.5807 51.103 35.2456C49.0771 37.1252 49.057 37.1549 49.0904 38.1961C49.1082 38.7496 49.0854 38.8074 48.7224 39.1266L48.3353 39.4669L48.7108 39.6219C49.3538 39.8874 49.712 39.9455 49.6461 39.7738C49.5985 39.6497 49.6845 39.6406 50.1421 39.7212C50.8109 39.8389 51.2642 40.0234 51.3345 40.2065C51.363 40.281 51.3439 40.342 51.292 40.342C51.2399 40.342 51.2107 40.4627 51.2269 40.6102C51.243 40.7577 51.2203 40.8785 51.1763 40.8785C51.0206 40.8785 50.9861 41.4302 51.1382 41.4885C51.3358 41.5644 51.3266 41.7368 51.1249 41.7368C51.0364 41.7368 50.964 41.7918 50.964 41.8591C50.964 41.9264 50.8822 42.0412 50.7823 42.1142C50.6219 42.2315 50.6439 42.2564 50.9701 42.3263C51.3945 42.4171 51.6317 42.5769 51.5466 42.7145C51.5143 42.7669 51.6309 42.8097 51.8059 42.8097C52.0628 42.8097 52.114 42.848 52.0722 43.0083C52.0437 43.1175 52.1001 43.2867 52.1976 43.3843C52.3567 43.5434 52.3987 43.545 52.6053 43.4003C52.9077 43.1885 53.0637 43.1931 52.8492 43.4074C52.6634 43.5934 52.6178 43.8269 52.7879 43.7217C52.847 43.6852 52.8952 43.7307 52.8952 43.8227C52.8952 43.9146 52.9435 43.9959 53.0025 44.0033C53.0615 44.0108 53.1702 44.0258 53.2439 44.0367C53.3178 44.0478 53.4363 44.0134 53.5074 43.9604C53.5787 43.9075 53.6873 43.8953 53.7489 43.9334C53.8104 43.9715 53.8609 43.9514 53.8609 43.889C53.8609 43.7914 53.7621 43.7488 53.539 43.7502C53.5095 43.7505 53.3801 43.7825 53.2514 43.8215C53.0301 43.8885 53.0242 43.8747 53.1408 43.5656C53.2612 43.2466 53.282 43.2385 54.0185 43.2228C54.4334 43.214 54.628 43.1856 54.451 43.1597C54.2739 43.1337 54.0808 43.0749 54.0218 43.0288C53.9628 42.9827 53.7389 42.9134 53.5241 42.8747C53.2234 42.8207 53.1031 42.7304 53.0003 42.4825C52.8967 42.2325 52.8162 42.1728 52.6397 42.2159C52.5147 42.2463 52.4759 42.2425 52.5535 42.2074C52.6311 42.1722 52.7385 42.0278 52.7922 41.8865C52.9619 41.4404 53.8794 41.6177 55.6312 42.4351C56.0845 42.6465 56.3173 42.6819 57.1333 42.6634C57.6644 42.6514 58.1504 42.6779 58.2133 42.7224C58.4232 42.8708 59.1214 42.598 59.2491 42.3178C59.3154 42.1724 59.4941 42.0265 59.6462 41.9935C59.7984 41.9605 59.9825 41.9151 60.0554 41.8928C60.1283 41.8704 60.2416 41.9524 60.3072 42.0752C60.4112 42.2693 60.4467 42.2782 60.581 42.1439C60.666 42.059 60.7492 41.7546 60.7658 41.4675C60.8026 40.8344 60.4582 40.0422 60.0217 39.7562C59.8603 39.6505 59.6018 39.4345 59.4471 39.2761C59.2923 39.1179 59.0826 38.9565 58.981 38.9175C58.8795 38.8785 58.7963 38.7698 58.7963 38.6759C58.7963 38.5822 58.748 38.5352 58.689 38.5717C58.5939 38.6305 58.5294 38.4048 58.5717 38.1614C58.5801 38.1127 58.5329 38.1063 58.4668 38.1472C58.3903 38.1945 58.3615 38.1485 58.3875 38.021C58.4119 37.9023 58.5031 37.8334 58.6115 37.8519C58.7654 37.8782 58.778 37.84 58.6907 37.6105C58.5995 37.3708 58.616 37.3358 58.8258 37.3208C58.9572 37.3114 59.1544 37.3118 59.2641 37.3216C59.3846 37.3324 59.4433 37.286 59.4124 37.2045C59.3781 37.1142 59.4842 37.063 59.7332 37.0496C59.9379 37.0387 60.2053 36.9421 60.3274 36.835C60.5336 36.6542 60.5445 36.6538 60.4809 36.8282C60.4343 36.9561 60.4659 37.0159 60.5801 37.0159C60.7184 37.0159 60.7354 36.9267 60.6777 36.5063C60.6191 36.08 60.6439 35.9579 60.8286 35.7597C61.1045 35.4637 61.1052 35.4065 60.8326 35.4065C60.7054 35.4065 60.5651 35.2957 60.4935 35.1383C60.3552 34.8348 60.2921 34.8135 60.0963 35.0042C59.9853 35.1123 59.9655 35.0967 59.9944 34.9237C60.0249 34.7405 59.9754 34.7118 59.6547 34.7278C59.4481 34.7381 59.1584 34.7652 59.0109 34.7881C58.712 34.8343 58.2637 34.6504 58.0512 34.3943C57.908 34.2219 57.392 34.1643 57.2512 34.3051C57.1188 34.4375 55.9955 34.6261 55.5594 34.5891C55.3116 34.568 55.1484 34.601 55.1484 34.6719C55.1484 34.7437 55.0307 34.7661 54.8468 34.7293C54.6809 34.6961 54.3561 34.7116 54.1252 34.7636C53.8891 34.817 53.6802 34.8177 53.6479 34.7655C53.6164 34.7143 53.4517 34.6377 53.282 34.5951L52.9735 34.5176L53.2295 34.3758L53.4853 34.2339L53.1635 34.2453C52.9864 34.2516 52.6585 34.2861 52.4348 34.322ZM45.9212 37.0159C45.9212 37.0749 45.9695 37.1232 46.0285 37.1232C46.0875 37.1232 46.1358 37.0749 46.1358 37.0159C46.1358 36.9569 46.0875 36.9086 46.0285 36.9086C45.9695 36.9086 45.9212 36.9569 45.9212 37.0159ZM58.0453 37.8743C57.9077 37.9631 57.9116 37.9785 58.0721 37.9799C58.1753 37.9808 58.2599 37.9333 58.2599 37.8743C58.2599 37.7434 58.2477 37.7434 58.0453 37.8743ZM71.5474 38.27C71.3027 38.5648 71.9578 38.8018 72.4938 38.6123C72.6616 38.5531 72.7445 38.5782 72.7924 38.703C72.8424 38.8332 72.8891 38.8454 72.9821 38.7523C73.142 38.5925 73.1318 38.5858 72.3421 38.3339C71.7724 38.1523 71.6531 38.1426 71.5474 38.27ZM73.1735 38.8399C73.1735 38.8989 73.2247 38.9472 73.2872 38.9472C73.3496 38.9472 73.3709 38.8989 73.3345 38.8399C73.298 38.7809 73.2469 38.7326 73.2208 38.7326C73.1948 38.7326 73.1735 38.7809 73.1735 38.8399ZM72.0195 42.5147C72.0882 42.724 72.7444 42.7545 72.7444 42.5482C72.7444 42.351 72.6943 42.3424 72.4154 42.4916C72.2724 42.5682 72.2079 42.5682 72.2079 42.4916C72.2079 42.4305 72.1556 42.3805 72.0917 42.3805C72.0277 42.3805 71.9952 42.441 72.0195 42.5147ZM59.4669 42.6709C59.3342 42.6964 59.2255 42.757 59.2255 42.8055C59.2255 42.8974 58.7037 43.0754 58.5437 43.0381C58.4931 43.0263 58.3922 43.0664 58.3192 43.1269C58.2462 43.1875 58.1546 43.2052 58.1157 43.1663C57.9999 43.0504 57.5056 43.3697 57.5352 43.5412C57.5501 43.6283 57.5021 43.7205 57.4282 43.7464C57.3482 43.7744 57.3174 43.7326 57.3517 43.6431C57.3966 43.5261 57.1841 43.4618 56.3958 43.3536C55.8383 43.2771 55.3267 43.2486 55.2589 43.2905C55.1912 43.3324 55.1495 43.4712 55.1662 43.599C55.1829 43.7266 55.1133 43.9501 55.0116 44.0954C54.9098 44.2407 54.8265 44.4039 54.8265 44.4579C54.8265 44.5121 54.7497 44.6126 54.6559 44.6811C54.5056 44.7911 54.5042 44.8217 54.6445 44.9381C54.7725 45.0443 54.8374 45.0366 54.9752 44.8988C55.0695 44.8045 55.1954 44.7574 55.2548 44.7941C55.3144 44.8309 55.363 44.8098 55.363 44.7473C55.363 44.6849 55.3088 44.6337 55.2426 44.6337C55.1556 44.6337 55.1569 44.5918 55.247 44.4832C55.3429 44.3676 55.3397 44.3183 55.2334 44.2706C55.1571 44.2365 55.3287 44.2338 55.6149 44.2646C55.9009 44.2955 56.1906 44.277 56.2586 44.2237C56.3266 44.1703 56.6902 44.096 57.0664 44.0585C57.4428 44.0211 57.9498 43.9317 58.193 43.86C58.7016 43.7102 59.2345 43.4551 59.0411 43.4541C58.9681 43.4538 58.9381 43.3812 58.9731 43.2897C59.0206 43.1663 59.0712 43.1554 59.1797 43.2454C59.3323 43.372 59.5474 43.2981 59.5474 43.1189C59.5474 43.0599 59.4991 43.0415 59.4401 43.0779C59.236 43.204 59.3336 43.0043 59.5742 42.8037C59.7069 42.6929 59.7915 42.6073 59.762 42.6133C59.7325 42.6194 59.5996 42.6452 59.4669 42.6709ZM52.3387 42.7757C52.4161 42.8067 52.5087 42.8029 52.5443 42.7672C52.5799 42.7316 52.5166 42.7063 52.4035 42.7109C52.2785 42.7161 52.2531 42.7415 52.3387 42.7757ZM71.7251 42.8097C71.7616 42.8687 71.8638 42.917 71.9523 42.917C72.0408 42.917 72.0834 42.8687 72.047 42.8097C72.0105 42.7507 71.9082 42.7024 71.8197 42.7024C71.7312 42.7024 71.6886 42.7507 71.7251 42.8097ZM58.3672 43.4598C58.3672 43.5222 58.4154 43.5436 58.4744 43.5071C58.5335 43.4706 58.5817 43.4196 58.5817 43.3935C58.5817 43.3674 58.5335 43.3462 58.4744 43.3462C58.4154 43.3462 58.3672 43.3974 58.3672 43.4598ZM54.0384 43.8022C54.0658 43.8465 54.1572 43.8826 54.2417 43.8826C54.3648 43.8826 54.3588 43.9251 54.2115 44.0972C54.1104 44.2152 53.8965 44.3118 53.7361 44.3118C53.5756 44.3118 53.4145 44.3601 53.3781 44.4191C53.3397 44.4811 53.4414 44.5264 53.6185 44.5264C53.7872 44.5264 53.9751 44.5763 54.0361 44.6372C54.1749 44.7761 54.5046 44.6586 54.5046 44.4702C54.5046 44.3929 54.5568 44.3124 54.6205 44.2911C54.8491 44.2148 54.5032 43.6909 54.235 43.707C54.0996 43.7151 54.0111 43.7579 54.0384 43.8022ZM56.114 44.9556C56.114 45.0146 56.1623 45.0629 56.2213 45.0629C56.2803 45.0629 56.3286 45.0146 56.3286 44.9556C56.3286 44.8966 56.2803 44.8483 56.2213 44.8483C56.1623 44.8483 56.114 44.8966 56.114 44.9556ZM56.4359 45.0595C56.4359 45.1166 56.5083 45.1356 56.5968 45.1017C56.6853 45.0677 56.7578 45.0209 56.7578 44.9977C56.7578 44.9746 56.6853 44.9556 56.5968 44.9556C56.5083 44.9556 56.4359 45.0023 56.4359 45.0595ZM71.9701 45.2933C71.9265 45.4242 71.7231 45.4338 70.7169 45.352C70.5021 45.3345 70.4563 45.384 70.4389 45.653C70.4275 45.83 70.4643 46.0667 70.5207 46.1789C70.5995 46.3352 70.5891 46.3697 70.4763 46.3264C70.3954 46.2953 70.2672 46.3363 70.1913 46.4174C70.0782 46.5386 70.0843 46.565 70.2251 46.565C70.3194 46.565 70.3654 46.6156 70.3271 46.6774C70.2889 46.7392 70.2953 46.872 70.3413 46.9725C70.3874 47.0729 70.4279 47.3237 70.4313 47.5299C70.4355 47.7851 70.4879 47.905 70.5953 47.9055C70.6821 47.9058 70.8028 48.0049 70.8635 48.1256C70.9243 48.2463 71.2316 48.5944 71.5464 48.899C71.8612 49.2036 72.0877 49.5032 72.0497 49.5646C72.0118 49.6261 72.056 49.6764 72.1479 49.6764C72.2399 49.6764 72.3212 49.7247 72.3286 49.7837C72.336 49.8427 72.352 49.9272 72.3642 49.9715C72.5151 50.5195 72.5671 50.6421 72.6486 50.6421C72.7013 50.6421 72.7444 50.7104 72.7444 50.7941C72.7444 50.8777 72.8048 50.9662 72.8785 50.9908C72.9624 51.0188 73.0087 51.2232 73.0023 51.5363C72.9966 51.8116 73.0329 52.0369 73.0828 52.0369C73.1326 52.0369 73.1735 52.1275 73.1735 52.2384C73.1735 52.3491 73.2454 52.4994 73.3333 52.5724C73.4212 52.6453 73.4723 52.7384 73.4471 52.7792C73.4219 52.8201 73.5673 52.9429 73.7702 53.0522C73.9732 53.1615 74.1392 53.2916 74.1392 53.3412C74.1392 53.391 74.1753 53.4241 74.2196 53.4146C74.3874 53.3791 74.6756 53.5682 74.6756 53.7136C74.6756 53.7971 74.7981 53.9213 74.948 53.9896C75.1114 54.0641 75.1975 54.1732 75.1633 54.2626C75.1206 54.3739 75.1667 54.3927 75.3468 54.3373C75.4792 54.2967 75.5981 54.2548 75.611 54.2444C75.6238 54.234 75.5807 54.051 75.5153 53.8378C75.437 53.5827 75.3464 53.4692 75.2506 53.506C75.1562 53.5422 75.1048 53.4822 75.1048 53.3359C75.1048 53.1792 75.1726 53.1098 75.3257 53.1098C75.4605 53.1098 75.5179 53.0632 75.4729 52.9905C75.4324 52.9249 75.4657 52.8291 75.5471 52.7776C75.6606 52.7056 75.645 52.6819 75.4803 52.6755C75.2886 52.668 75.2924 52.6563 75.517 52.5664C75.6553 52.5109 75.8088 52.4906 75.8583 52.5212C75.9078 52.5518 75.9786 52.5277 76.0157 52.4678C76.0537 52.4063 75.9779 52.3588 75.8419 52.3588H75.6008L75.8356 52.14C76.0984 51.8951 76.1498 51.6616 75.9216 51.7491C75.8139 51.7905 75.7886 51.7418 75.8299 51.5728C75.8612 51.4445 75.9341 51.2792 75.9918 51.2054C76.0629 51.1145 76.0557 51.0712 75.9696 51.0712C75.8996 51.0712 75.8509 50.9867 75.8614 50.8835C75.9196 50.3123 75.7219 50.0916 75.5972 50.5884C75.5601 50.736 75.4908 50.8567 75.4432 50.8567C75.2985 50.8567 75.4429 50.1999 75.601 50.1393C75.6821 50.1081 75.7485 50.0344 75.7485 49.9754C75.7485 49.9163 75.677 49.8955 75.5896 49.929C75.3684 50.014 75.4233 49.5786 75.6681 49.3075C75.886 49.0661 75.9165 48.6459 75.7217 48.5672C75.6391 48.534 75.6573 48.51 75.769 48.5047C75.8688 48.5001 75.9828 48.444 76.0221 48.3802C76.0677 48.3065 76.0014 48.2771 75.8407 48.2998C75.6292 48.3294 75.5876 48.2883 75.5876 48.0498C75.5876 47.8927 75.5548 47.7311 75.5145 47.6906C75.4743 47.65 75.4674 47.5492 75.4992 47.4664C75.531 47.3837 75.5035 47.316 75.4381 47.316C75.3728 47.316 75.3194 47.3643 75.3194 47.4233C75.3194 47.4823 75.2485 47.5306 75.1618 47.5306C75.0658 47.5306 75.0284 47.4677 75.066 47.3697C75.1 47.2811 75.0743 47.2087 75.009 47.2087C74.9436 47.2087 74.8902 47.0895 74.8902 46.9438C74.8902 46.7783 74.9405 46.6967 75.0243 46.7262C75.0981 46.7522 75.2439 46.7084 75.3486 46.6288C75.5018 46.5123 75.5179 46.4294 75.4317 46.2027C75.3728 46.0479 75.3597 45.9193 75.4025 45.917C75.5493 45.9091 74.7583 45.5993 74.5913 45.5993C74.4994 45.5993 74.3364 45.5198 74.229 45.4225C73.9693 45.1875 72.0421 45.0772 71.9701 45.2933ZM75.1584 46.4577C75.1949 46.5167 75.246 46.565 75.2721 46.565C75.2981 46.565 75.3194 46.5167 75.3194 46.4577C75.3194 46.3987 75.2682 46.3504 75.2058 46.3504C75.1433 46.3504 75.122 46.3987 75.1584 46.4577ZM64.8047 46.7795C64.8047 46.8386 64.853 46.8868 64.912 46.8868C64.971 46.8868 65.0193 46.8386 65.0193 46.7795C65.0193 46.7205 64.971 46.6722 64.912 46.6722C64.853 46.6722 64.8047 46.7205 64.8047 46.7795ZM69.7402 47.0512C69.7402 47.0826 69.8489 47.152 69.9816 47.2054C70.1364 47.2676 70.162 47.3048 70.0531 47.3092C69.9597 47.3129 69.8832 47.3884 69.8832 47.4769C69.8832 47.6773 69.9002 47.677 70.1035 47.4738C70.3072 47.2701 70.215 46.9941 69.9433 46.9941C69.8316 46.9941 69.7402 47.0199 69.7402 47.0512ZM75.1064 48.1344C75.1097 48.319 75.2919 48.5201 75.3584 48.4125C75.3947 48.354 75.3524 48.2463 75.2646 48.1734C75.1767 48.1004 75.1055 48.0829 75.1064 48.1344ZM58.6609 48.7841C58.5434 48.9919 58.4786 49.4619 58.5675 49.4619C58.621 49.4619 58.6886 49.305 58.7178 49.1132C58.772 48.7572 58.7497 48.6274 58.6609 48.7841ZM40.6052 50.0353C40.6252 50.5573 40.6835 51.0265 40.735 51.078C40.7864 51.1294 40.9418 51.142 41.0801 51.1057C41.3056 51.0468 41.3257 50.9945 41.273 50.6019C41.2406 50.361 41.1628 50.1467 41.1 50.1258C41.0372 50.1049 40.9858 50.0252 40.9858 49.9489C40.9858 49.8725 40.9162 49.7523 40.8313 49.6818C40.7463 49.6113 40.6525 49.4484 40.6229 49.3199C40.5932 49.1915 40.5852 49.5134 40.6052 50.0353ZM75.534 51.0776C75.534 51.14 75.5822 51.1614 75.6413 51.1249C75.7003 51.0884 75.7485 51.0373 75.7485 51.0113C75.7485 50.9852 75.7003 50.964 75.6413 50.964C75.5822 50.964 75.534 51.0151 75.534 51.0776ZM61.5536 52.5341C61.5121 52.5756 61.5538 52.6932 61.6463 52.7954C61.7634 52.9248 61.7782 53.0036 61.6951 53.0551C61.4839 53.1855 61.7885 53.4456 62.0123 53.3259C62.1163 53.2702 62.2319 53.2552 62.2693 53.2924C62.3065 53.3296 62.337 53.2796 62.337 53.1814C62.337 53.083 62.2679 53.0025 62.1836 53.0025C62.0991 53.0025 62.0146 52.8944 61.9958 52.7622C61.9618 52.5242 61.6991 52.3887 61.5536 52.5341ZM55.6021 52.8081C55.6255 52.8782 55.702 52.9545 55.7721 52.9779C55.8505 53.0041 55.8744 52.955 55.8344 52.8506C55.7595 52.6555 55.5377 52.615 55.6021 52.8081ZM56.1677 53.1098C56.1312 53.1688 56.2008 53.2171 56.3223 53.2171C56.4437 53.2171 56.5432 53.1688 56.5432 53.1098C56.5432 53.0508 56.4737 53.0025 56.3886 53.0025C56.3035 53.0025 56.2041 53.0508 56.1677 53.1098ZM48.7108 53.4917C48.7108 53.5836 48.7599 53.6286 48.8198 53.5915C48.8798 53.5544 48.9012 53.4792 48.8672 53.4243C48.7752 53.2755 48.7108 53.3031 48.7108 53.4917ZM44.0972 53.8076C43.8317 54.0061 43.5541 54.1717 43.4803 54.1756C43.3292 54.1836 43.2928 54.3973 43.4424 54.3973C43.6732 54.3973 44.8581 53.7293 44.8216 53.6198C44.7484 53.4002 44.586 53.4424 44.0972 53.8076ZM56.0067 53.539C56.0952 53.5962 56.2401 53.6404 56.3286 53.637C56.4347 53.6332 56.4165 53.5998 56.275 53.539C55.98 53.4123 55.8106 53.4123 56.0067 53.539ZM57.8799 53.7574C57.7054 53.8725 57.6084 53.9671 57.6644 53.9674C57.7204 53.9678 57.7084 54.0261 57.6376 54.0969C57.4879 54.2466 57.4658 54.5046 57.6027 54.5046C57.6543 54.5046 57.7255 54.3598 57.7609 54.1827C57.7973 54.0008 57.8937 53.8608 57.9826 53.8608C58.0691 53.8608 58.1718 53.8094 58.2106 53.7464C58.3382 53.5399 58.2031 53.5444 57.8799 53.7574ZM56.9982 53.8593C56.8403 54.1122 56.8264 54.29 56.9647 54.29C57.1177 54.29 57.4015 53.9714 57.4015 53.7996C57.4015 53.5755 57.1524 53.6125 56.9982 53.8593ZM57.938 54.2364C57.938 54.3249 57.957 54.3973 57.9802 54.3973C58.0033 54.3973 58.0501 54.3249 58.0841 54.2364C58.118 54.1479 58.099 54.0754 58.042 54.0754C57.9848 54.0754 57.938 54.1479 57.938 54.2364ZM54.5736 54.5583C54.4851 54.6468 54.3558 54.7192 54.2862 54.7192C54.2135 54.7192 54.1882 54.7934 54.2267 54.8938C54.3242 55.1475 54.089 55.4004 53.9008 55.2443C53.7904 55.1527 53.6925 55.1637 53.5002 55.2897C53.2043 55.4835 53.0252 55.9549 53.2853 55.855C53.3901 55.8149 53.3596 55.9082 53.197 56.1258C53.0606 56.3085 52.9034 56.5214 52.8478 56.5988C52.7809 56.6923 52.7989 56.8026 52.9015 56.9262C52.9865 57.0287 53.0397 57.2099 53.0196 57.3288C52.9892 57.5076 53.0425 57.4853 53.3289 57.1989C53.5191 57.0087 53.7348 56.8761 53.8082 56.9042C53.8815 56.9323 53.9385 56.8988 53.9349 56.8297C53.9171 56.4891 54.1128 55.7862 54.1905 55.912C54.2511 56.01 54.3129 55.9666 54.4072 55.7597C54.4797 55.6005 54.5893 55.4702 54.6506 55.4702C54.7182 55.4702 54.7114 55.4195 54.6334 55.3415C54.4569 55.165 54.47 54.986 54.6486 55.1343C54.7278 55.2 54.8263 55.2201 54.8675 55.1789C54.9086 55.1377 54.969 55.2062 55.0016 55.3309C55.0807 55.6333 55.5825 55.7804 55.8837 55.5895C56.001 55.5152 56.0036 55.4486 55.8974 55.2425C55.5222 54.5146 54.9256 54.2062 54.5736 54.5583ZM58.3041 54.4778C58.3481 54.5556 58.3204 54.6119 58.2384 54.6119C58.1069 54.6119 57.7737 55.0243 57.8501 55.0927C57.8689 55.1095 58.0408 55.1568 58.232 55.1978C58.578 55.2719 58.5794 55.2705 58.5129 54.9152C58.4762 54.7189 58.3971 54.51 58.3372 54.451C58.2642 54.379 58.2533 54.3878 58.3041 54.4778ZM59.8693 54.6119C59.8693 54.6709 59.9204 54.7192 59.9829 54.7192C60.0453 54.7192 60.0667 54.6709 60.0302 54.6119C59.9937 54.5529 59.9426 54.5046 59.9166 54.5046C59.8905 54.5046 59.8693 54.5529 59.8693 54.6119ZM60.7276 54.6119C60.7276 54.6709 60.6552 54.7192 60.5667 54.7192C60.4781 54.7192 60.4057 54.7643 60.4057 54.8193C60.4057 54.9954 60.7966 55.0506 61.1158 54.9196C61.3558 54.8211 61.383 54.7827 61.2372 54.7481C61.134 54.7236 61.0495 54.6587 61.0495 54.6041C61.0495 54.5493 60.977 54.5046 60.8885 54.5046C60.8 54.5046 60.7276 54.5529 60.7276 54.6119ZM75.4267 54.8328C75.4267 54.8953 75.475 54.9166 75.534 54.8801C75.593 54.8436 75.6413 54.7926 75.6413 54.7665C75.6413 54.7404 75.593 54.7192 75.534 54.7192C75.475 54.7192 75.4267 54.7704 75.4267 54.8328ZM57.5088 55.2557C57.5088 55.3147 57.5841 55.3629 57.6761 55.3629C57.768 55.3629 57.8135 55.3147 57.777 55.2557C57.7406 55.1966 57.6654 55.1484 57.6098 55.1484C57.5542 55.1484 57.5088 55.1966 57.5088 55.2557ZM57.3479 55.5775C57.581 55.8351 57.5768 55.8345 57.6571 55.6256C57.6937 55.5301 57.6757 55.4871 57.6149 55.5246C57.5566 55.5607 57.5088 55.539 57.5088 55.4766C57.5088 55.4141 57.4289 55.3629 57.3312 55.3629C57.1716 55.3629 57.1732 55.3845 57.3479 55.5775ZM76.236 55.7847C76.202 55.8396 76.2233 55.9149 76.2833 55.952C76.3433 55.989 76.3923 55.944 76.3923 55.8521C76.3923 55.6636 76.3279 55.6359 76.236 55.7847ZM75.7754 56.0599C75.7017 56.1437 75.6413 56.2626 75.6413 56.3241C75.6413 56.3856 75.5987 56.4359 75.5466 56.4359C75.3503 56.4359 74.8024 57.4308 74.851 57.699C74.8865 57.8942 74.8595 57.9491 74.7491 57.9067C74.6665 57.8751 74.4623 57.9388 74.2953 58.0484C74.1283 58.158 73.9472 58.2201 73.8929 58.1867C73.8368 58.152 73.8255 58.224 73.8666 58.3537C73.9275 58.5453 73.8994 58.5774 73.6904 58.5549C73.5105 58.5355 73.4458 58.58 73.4567 58.7158C73.466 58.834 73.3961 58.9036 73.2679 58.9036C73.0912 58.9036 73.0821 58.9319 73.1984 59.1182C73.2721 59.2362 73.3923 59.3328 73.4656 59.3328C73.5576 59.3328 73.588 59.4897 73.5641 59.8424C73.5451 60.1227 73.5636 60.4003 73.6053 60.4593C73.6469 60.5184 73.7086 60.8493 73.7425 61.1948C73.7764 61.5404 73.8346 61.8535 73.8717 61.8906C73.9691 61.988 74.3342 61.476 74.4108 61.1347C74.4467 60.9752 74.5606 60.8177 74.6639 60.7849C75.025 60.6704 75.6019 59.2217 75.6835 58.225C75.6972 58.0582 75.7743 57.8811 75.855 57.8312C76.0037 57.7394 76.0606 57.5646 76.0997 57.0796C76.1116 56.9321 76.1462 56.7873 76.1764 56.7577C76.2066 56.7282 76.2843 56.6086 76.3488 56.4919C76.4454 56.3175 76.4233 56.2457 76.2246 56.0895C75.9391 55.865 75.9466 55.8654 75.7754 56.0599ZM57.777 56.4359C57.7406 56.4949 57.7619 56.5432 57.8244 56.5432C57.8868 56.5432 57.938 56.4949 57.938 56.4359C57.938 56.3769 57.9167 56.3286 57.8907 56.3286C57.8646 56.3286 57.8135 56.3769 57.777 56.4359ZM64.3527 56.4167C64.1331 56.5038 64.2192 56.6516 64.6052 56.8502C64.8105 56.9559 64.9437 56.9653 65.0881 56.8845C65.2702 56.7825 65.2604 56.7626 64.974 56.6537C64.8015 56.588 64.5895 56.5616 64.5028 56.5949C64.3729 56.6448 64.369 56.6266 64.4808 56.492C64.6291 56.3132 64.6226 56.3095 64.3527 56.4167ZM59.924 57.5767C59.7817 57.719 59.6988 57.729 59.4821 57.6304C59.1019 57.4571 58.6317 57.4802 58.4658 57.6803C58.3674 57.7987 58.2168 57.8343 57.9781 57.7956C57.5604 57.7278 57.4675 57.8896 57.6362 58.391C57.8012 58.8814 57.9241 59.0109 58.2245 59.0109C58.3692 59.0109 58.6036 59.1392 58.7527 59.3C59.0064 59.5737 59.0445 59.5825 59.4717 59.4651C59.8782 59.3533 59.9375 59.3618 60.0701 59.5514C60.1777 59.7053 60.3419 59.7619 60.6803 59.7619H61.1432L61.0858 60.1156C60.9956 60.6722 61.1452 60.7234 63.0256 60.7792C64.9331 60.8358 65.1266 60.7844 65.1266 60.221C65.1266 59.9283 65.1733 59.8634 65.4216 59.8111C65.584 59.7769 65.8615 59.686 66.0386 59.609C66.2156 59.5321 66.5124 59.4916 66.6981 59.5188C66.981 59.5604 67.0763 59.5138 67.2853 59.2311C67.5531 58.8687 67.571 58.7477 67.4489 58.1257C67.341 57.5755 66.985 57.5726 66.5471 58.1185L66.2301 58.5136L66.0285 58.199C65.7172 57.7131 65.5473 57.6232 64.9328 57.6195C64.4271 57.6165 64.3267 57.6551 64.0354 57.9648C63.8551 58.1566 63.687 58.26 63.6622 58.1946C63.5377 57.8684 63.2998 57.6937 62.8671 57.6101C62.1573 57.4731 61.6195 57.4906 61.4542 57.6559C61.3295 57.7806 61.2691 57.7724 61.059 57.6022C60.7534 57.3548 60.1593 57.3414 59.924 57.5767ZM68.4667 58.1892C68.401 58.2684 68.3757 58.3618 68.4106 58.3965C68.4454 58.4314 68.3767 58.4344 68.2578 58.4034C68.0066 58.3377 67.544 58.9047 67.7835 58.9845C67.8707 59.0136 67.8825 59.088 67.8187 59.2073C67.7422 59.3503 67.7749 59.3895 67.9812 59.402C68.3336 59.4231 68.6506 58.9597 68.636 58.445C68.6231 57.9903 68.627 57.9961 68.4667 58.1892ZM73.1257 58.4033C73.0177 58.4823 72.9481 58.5955 72.971 58.655C72.9939 58.7145 73.1229 58.65 73.2577 58.5116C73.5237 58.2386 73.4422 58.1718 73.1257 58.4033ZM48.1207 61.4786C48.4137 61.6046 48.4962 61.6046 48.4962 61.4786C48.4962 61.4196 48.3634 61.3748 48.2012 61.3788C47.9397 61.3856 47.9306 61.3969 48.1207 61.4786ZM61.2641 61.4786C61.2641 61.5376 61.3123 61.5859 61.3713 61.5859C61.4304 61.5859 61.4786 61.5376 61.4786 61.4786C61.4786 61.4196 61.4304 61.3713 61.3713 61.3713C61.3123 61.3713 61.2641 61.4196 61.2641 61.4786ZM49.2737 61.9346C49.2977 62.2423 49.2694 62.2833 49.0327 62.2833C48.8658 62.2833 48.7645 62.2225 48.7645 62.1224C48.7645 61.9294 48.4186 61.7017 48.1207 61.6987C47.9599 61.6971 47.9426 61.7196 48.0517 61.7887C48.1458 61.8484 48.1718 61.9712 48.1252 62.1358C48.0735 62.3182 48.0827 62.3475 48.1576 62.2391C48.2476 62.1086 48.2834 62.1089 48.4147 62.2401C48.4985 62.3239 48.5453 62.458 48.5186 62.5381C48.492 62.6182 48.5364 62.7256 48.6173 62.7769C48.8394 62.9176 48.9246 62.8931 48.9339 62.6857C48.9389 62.5735 48.9641 62.5519 48.9964 62.632C49.0668 62.8064 49.2473 62.8056 49.2473 62.6311C49.2473 62.5567 49.3439 62.4356 49.4619 62.3619C49.7023 62.2118 49.7424 61.9094 49.5477 61.7147C49.332 61.499 49.2451 61.5687 49.2737 61.9346ZM53.4317 62.337C53.4317 62.396 53.48 62.4443 53.539 62.4443C53.598 62.4443 53.6463 62.396 53.6463 62.337C53.6463 62.278 53.598 62.2297 53.539 62.2297C53.48 62.2297 53.4317 62.278 53.4317 62.337ZM51.8223 62.7725C51.8223 62.8349 51.8706 62.8563 51.9296 62.8198C51.9886 62.7833 52.0369 62.7322 52.0369 62.7062C52.0369 62.6801 51.9886 62.6588 51.9296 62.6588C51.8706 62.6588 51.8223 62.71 51.8223 62.7725ZM48.5499 62.9807C48.5864 63.0397 48.6374 63.088 48.6635 63.088C48.6896 63.088 48.7108 63.0397 48.7108 62.9807C48.7108 62.9217 48.6596 62.8734 48.5972 62.8734C48.5348 62.8734 48.5134 62.9217 48.5499 62.9807ZM52.0369 62.9681C52.0369 63.0271 52.0852 63.1052 52.1442 63.1417C52.2032 63.1781 52.2515 63.1597 52.2515 63.1007C52.2515 63.0417 52.2032 62.9635 52.1442 62.9271C52.0852 62.8906 52.0369 62.909 52.0369 62.9681ZM63.5856 63.2489C63.5481 63.347 63.5855 63.4099 63.6815 63.4099C63.7682 63.4099 63.8391 63.3375 63.8391 63.2489C63.8391 63.1604 63.7959 63.088 63.7433 63.088C63.6906 63.088 63.6197 63.1604 63.5856 63.2489ZM48.3889 63.3089C48.3889 63.3714 48.4372 63.3927 48.4962 63.3562C48.5553 63.3198 48.6035 63.2687 48.6035 63.2426C48.6035 63.2165 48.5553 63.1953 48.4962 63.1953C48.4372 63.1953 48.3889 63.2465 48.3889 63.3089ZM50.7584 63.4909C50.6804 63.5744 50.6594 63.7681 50.7029 64.0005C50.7535 64.2701 50.7347 64.3755 50.6362 64.3755C50.5608 64.3755 50.5265 64.403 50.5601 64.4366C50.5937 64.4701 50.7154 64.4388 50.8305 64.3669C50.9856 64.2702 51.1248 64.2659 51.3682 64.3507C51.5489 64.4137 51.725 64.437 51.7595 64.4026C51.8688 64.2933 51.8275 63.8871 51.6936 63.7532C51.6227 63.6824 51.602 63.6245 51.6475 63.6245C51.6931 63.6245 51.6626 63.5567 51.5796 63.4737C51.3991 63.2933 50.934 63.303 50.7584 63.4909ZM60.7276 63.4572C60.7276 63.5423 60.7759 63.6416 60.8349 63.6781C60.8939 63.7146 60.9422 63.645 60.9422 63.5235C60.9422 63.4021 60.8939 63.3026 60.8349 63.3026C60.7759 63.3026 60.7276 63.3721 60.7276 63.4572ZM48.3889 63.6245C48.3889 63.6835 48.4372 63.7318 48.4962 63.7318C48.5553 63.7318 48.6035 63.6835 48.6035 63.6245C48.6035 63.5655 48.5553 63.5172 48.4962 63.5172C48.4372 63.5172 48.3889 63.5655 48.3889 63.6245ZM53.1688 63.6103C53.2248 63.6615 53.4397 63.733 53.6463 63.7693C53.9949 63.8306 54.0069 63.8239 53.8136 63.6762C53.594 63.5086 52.9899 63.4468 53.1688 63.6103ZM55.2288 64.2349C55.0235 64.2886 54.9656 64.6974 55.1634 64.6974C55.2882 64.6974 55.568 64.3868 55.5741 64.2414C55.5778 64.1565 55.5321 64.1557 55.2288 64.2349ZM55.8221 64.4456C55.7193 64.4872 55.7192 64.5286 55.8215 64.6382C55.977 64.8047 56.2213 64.7355 56.2213 64.525C56.2213 64.3756 56.0693 64.3454 55.8221 64.4456ZM54.7192 64.8047C54.6225 64.8671 54.6092 64.9093 54.6861 64.9104C54.7563 64.9112 54.8437 64.8637 54.8801 64.8047C54.9624 64.6714 54.9253 64.6714 54.7192 64.8047ZM62.25 65.0235C62.0044 65.2522 61.9431 65.4484 62.117 65.4484C62.1731 65.4484 62.2576 65.3851 62.3048 65.3079C62.352 65.2305 62.51 65.0857 62.656 64.986C62.9001 64.8191 62.9038 64.8047 62.703 64.8047C62.5829 64.8047 62.379 64.9032 62.25 65.0235ZM64.5901 65.8839C64.5901 65.9464 64.6384 65.9677 64.6974 65.9313C64.7564 65.8948 64.8047 65.8437 64.8047 65.8176C64.8047 65.7916 64.7564 65.7703 64.6974 65.7703C64.6384 65.7703 64.5901 65.8215 64.5901 65.8839ZM56.114 66.2058C56.114 66.2683 56.1623 66.2896 56.2213 66.2531C56.2803 66.2167 56.3286 66.1656 56.3286 66.1395C56.3286 66.1134 56.2803 66.0922 56.2213 66.0922C56.1623 66.0922 56.114 66.1434 56.114 66.2058ZM54.0184 66.4249C53.979 66.5488 53.9992 66.7026 54.063 66.7664C54.2047 66.9082 54.24 66.8723 54.3306 66.4945C54.4172 66.1336 54.1311 66.0698 54.0184 66.4249ZM61.8005 66.2406C61.8005 66.2632 61.8971 66.307 62.0151 66.3379C62.1331 66.3687 62.2297 66.3502 62.2297 66.2967C62.2297 66.2433 62.1331 66.1995 62.0151 66.1995C61.8971 66.1995 61.8005 66.2181 61.8005 66.2406ZM57.9003 66.7365C57.8649 66.9137 57.8428 67.0707 57.8514 67.0852C57.86 67.0997 57.8088 67.2202 57.7378 67.3529C57.6397 67.536 57.639 67.5943 57.7347 67.5943C57.804 67.5943 57.9248 67.6788 58.0032 67.7821C58.138 67.9596 58.1459 67.959 58.1491 67.7706C58.1514 67.6412 58.2072 67.5923 58.3083 67.6311C58.3939 67.6639 58.575 67.5965 58.7106 67.4814C58.9302 67.2949 58.9338 67.2796 58.7427 67.3416C58.5704 67.3975 58.5535 67.3838 58.6572 67.2718C58.7536 67.1676 58.7561 67.0759 58.667 66.9094C58.3592 66.3342 57.9971 66.2525 57.9003 66.7365ZM60.7812 66.8432C60.7448 66.9023 60.8172 66.9505 60.9422 66.9505C61.0672 66.9505 61.1396 66.9023 61.1031 66.8432C61.0666 66.7842 60.9942 66.736 60.9422 66.736C60.8901 66.736 60.8177 66.7842 60.7812 66.8432ZM56.6043 74.0197C56.572 74.072 56.6174 74.1744 56.7053 74.2474C56.8382 74.3578 56.8651 74.3418 56.8651 74.1522C56.8651 73.9221 56.7126 73.8445 56.6043 74.0197ZM58.5817 75.1126C58.5817 75.2631 58.64 75.3239 58.7619 75.3004C58.8609 75.2813 58.9293 75.2228 58.9136 75.1704C58.898 75.118 58.9498 75.0343 59.0286 74.9843C59.127 74.9219 59.0795 74.893 58.8768 74.8918C58.6492 74.8906 58.5817 74.941 58.5817 75.1126ZM60.8349 75.3257C60.8349 75.3881 60.8832 75.4095 60.9422 75.373C61.0012 75.3365 61.0495 75.2854 61.0495 75.2594C61.0495 75.2333 61.0012 75.2121 60.9422 75.2121C60.8832 75.2121 60.8349 75.2632 60.8349 75.3257ZM61.1568 75.8622C61.1568 75.9246 61.205 75.9459 61.2641 75.9095C61.3231 75.873 61.3713 75.8219 61.3713 75.7958C61.3713 75.7698 61.3231 75.7485 61.2641 75.7485C61.205 75.7485 61.1568 75.7997 61.1568 75.8622ZM62.4443 76.1777C62.4443 76.2367 62.4926 76.285 62.5516 76.285C62.6106 76.285 62.6589 76.2367 62.6589 76.1777C62.6589 76.1187 62.6106 76.0704 62.5516 76.0704C62.4926 76.0704 62.4443 76.1187 62.4443 76.1777ZM62.9271 76.7142C62.9636 76.7732 63.0146 76.8215 63.0407 76.8215C63.0668 76.8215 63.088 76.7732 63.088 76.7142C63.088 76.6551 63.0368 76.6069 62.9744 76.6069C62.912 76.6069 62.8906 76.6551 62.9271 76.7142ZM61.881 81.5061C61.9548 81.5359 62.0755 81.5359 62.1492 81.5061C62.223 81.4763 62.1626 81.452 62.0151 81.452C61.8676 81.452 61.8073 81.4763 61.881 81.5061ZM68.9891 82.6216C68.9891 82.684 69.0374 82.7054 69.0964 82.6689C69.1554 82.6324 69.2037 82.5813 69.2037 82.5553C69.2037 82.5292 69.1554 82.508 69.0964 82.508C69.0374 82.508 68.9891 82.5591 68.9891 82.6216ZM64.2682 83.0508C64.2682 83.1132 64.3165 83.1345 64.3755 83.0981C64.4345 83.0616 64.4828 83.0105 64.4828 82.9844C64.4828 82.9584 64.4345 82.9371 64.3755 82.9371C64.3165 82.9371 64.2682 82.9883 64.2682 83.0508ZM67.1451 83.225C67.2224 83.256 67.315 83.2521 67.3507 83.2165C67.3863 83.1809 67.323 83.1556 67.2099 83.1602C67.0849 83.1653 67.0595 83.1908 67.1451 83.225ZM63.9195 83.6519C63.9934 83.6817 64.1141 83.6817 64.1878 83.6519C64.2616 83.6222 64.2012 83.5978 64.0537 83.5978C63.9061 83.5978 63.8458 83.6222 63.9195 83.6519Z" fill="#142342"/>
</g>
<defs>
<clipPath id="clip0_54_126">
<rect width="128" height="128" fill="white"/>
</clipPath>
</defs>
</svg>
