<?xml version="1.0" encoding="UTF-8" standalone="no"?>
<svg
   width="64"
   height="64"
   viewBox="0 0 64 64"
   fill="none"
   version="1.1"
   id="svg304"
   sodipodi:docname="icon v2.svg"
   inkscape:version="1.2.1 (9c6d41e4, 2022-07-14)"
   xmlns:inkscape="http://www.inkscape.org/namespaces/inkscape"
   xmlns:sodipodi="http://sodipodi.sourceforge.net/DTD/sodipodi-0.dtd"
   xmlns="http://www.w3.org/2000/svg"
   xmlns:svg="http://www.w3.org/2000/svg">
  <defs
     id="defs308" />
  <sodipodi:namedview
     id="namedview306"
     pagecolor="#ffffff"
     bordercolor="#000000"
     borderopacity="0.25"
     inkscape:showpageshadow="2"
     inkscape:pageopacity="0.0"
     inkscape:pagecheckerboard="0"
     inkscape:deskcolor="#d1d1d1"
     showgrid="false"
     inkscape:zoom="4.5641788"
     inkscape:cx="30.564096"
     inkscape:cy="31.002291"
     inkscape:window-width="2048"
     inkscape:window-height="1099"
     inkscape:window-x="0"
     inkscape:window-y="25"
     inkscape:window-maximized="0"
     inkscape:current-layer="svg304" />
  <rect
     style="fill:#cdd3e0;fill-opacity:1;stroke:#ffffff;stroke-width:0;stroke-linecap:square;stroke-linejoin:bevel;stroke-miterlimit:12;stroke-dasharray:none;paint-order:stroke fill markers"
     id="rect479"
     width="64"
     height="64"
     x="5.0080621e-07"
     y="5.005233e-07" />
  <rect
     style="fill:#e1af8a;fill-opacity:1;stroke:#e1af8a;stroke-width:0;stroke-linecap:square;stroke-linejoin:bevel;stroke-miterlimit:12;stroke-dasharray:none;stroke-opacity:1;paint-order:stroke fill markers"
     id="rect479-5"
     width="4.999999"
     height="64"
     x="-4.9999986"
     y="5.0052398e-07"
     transform="scale(-1,1)" />
  <path
     fill-rule="evenodd"
     clip-rule="evenodd"
     d="m 48.114709,46.856 c 6.144,0 9.216,-2.864 9.216,-8.592 0,-3.712 -1.264,-6.064 -3.792,-7.056 V 30.92 c 2.208,-1.408 3.312,-3.456 3.312,-6.144 0,-2.688 -0.736,-4.64 -2.208,-5.856 -1.472,-1.248 -3.728,-1.872 -6.768,-1.872 h -9.52 v 0.096 h -6.184 l -2.208,13.488 h -0.432 l -2.256,-13.488 h -12.768 l -1.152,29.808 h 8.976 V 32.744 h 0.24 l 2.784,14.208 h 8.4 l 2.832,-14.208 h 0.24 v 14.208 h 9.072 l -0.0036,-0.096 z m -2.4169,-5.328 h 0.4969 c 0.96,0 1.6,-0.208 1.92,-0.624 0.352,-0.448 0.528,-1.344 0.528,-2.688 0,-1.376 -0.176,-2.336 -0.528,-2.88 -0.352,-0.576 -0.992,-0.864 -1.92,-0.864 h -0.7582 z m -0.4338,-11.712 h 0.9787 c 0.736,0 1.248,-0.224 1.536,-0.672 0.288,-0.448 0.432,-1.232 0.432,-2.352 0,-1.152 -0.16,-1.952 -0.48,-2.4 -0.288,-0.48 -0.8,-0.72 -1.536,-0.72 h -1.1582 z"
     fill="#3d1a00"
     id="path302" />
</svg>
