<svg width="410" height="40" viewBox="0 0 410 40" fill="none" xmlns="http://www.w3.org/2000/svg">
<path d="M20.64 29H15.616V18.632H15.328L13.44 29H8.288L6.496 18.632H6.176V29H1.216L1.888 9.128H9.088L10.88 19.88H11.136L12.864 9.128H19.968L20.64 29ZM34.6758 17.672L34.5157 24.296C34.5157 24.7013 34.6117 24.9787 34.8038 25.128C35.0171 25.256 35.3691 25.32 35.8598 25.32L35.3798 29.192C34.1424 29.2773 33.4598 29.32 33.3317 29.32C31.7531 29.32 30.7504 28.776 30.3238 27.688H30.1637C29.3744 28.776 28.1584 29.32 26.5157 29.32C25.2571 29.32 24.2864 28.9147 23.6037 28.104C22.9424 27.2933 22.6117 26.184 22.6117 24.776C22.6117 23.0053 23.1557 21.7787 24.2437 21.096C25.3531 20.4133 27.0917 19.9653 29.4598 19.752V18.984C29.4598 18.3867 29.1611 18.088 28.5637 18.088C27.5397 18.088 25.9397 18.3973 23.7637 19.016L22.9637 14.344C25.6944 13.64 27.9664 13.288 29.7797 13.288C31.5931 13.288 32.8624 13.64 33.5878 14.344C34.3131 15.048 34.6758 16.1573 34.6758 17.672ZM28.4998 25.576C29.2891 25.576 29.6838 25.16 29.6838 24.328V22.76C28.8944 22.8667 28.3291 23.0373 27.9878 23.272C27.6678 23.4853 27.5078 23.8587 27.5078 24.392C27.5078 25.1813 27.8384 25.576 28.4998 25.576ZM42.6932 20.392V29H37.3812V13.672H42.0532L42.3732 14.6H42.5012C42.9919 14.0453 43.4826 13.6933 43.9732 13.544C44.4852 13.3733 45.3066 13.288 46.4373 13.288L46.2133 18.408H44.7413C43.9092 18.408 43.3546 18.536 43.0772 18.792C42.8212 19.048 42.6932 19.5813 42.6932 20.392ZM56.3725 29.032C54.7938 29.224 53.4178 29.32 52.2445 29.32C51.0925 29.32 50.1858 29.0213 49.5245 28.424C48.8845 27.8053 48.5645 26.7493 48.5645 25.256V17.832H47.0285V13.864H48.8205L49.1085 10.92H53.9405V13.864H56.7885L56.5645 17.832H53.9085V24.2C53.9085 24.648 54.1218 24.872 54.5485 24.872C54.5912 24.872 55.2525 24.84 56.5325 24.776L56.3725 29.032ZM63.6167 29H58.3367V13.832H63.6167V29ZM58.7527 12.616C58.3047 12.232 58.0807 11.6133 58.0807 10.76C58.0807 9.90667 58.3047 9.27733 58.7527 8.872C59.2007 8.46667 59.9367 8.264 60.9607 8.264C61.9847 8.264 62.7207 8.46667 63.1687 8.872C63.6167 9.27733 63.8407 9.90667 63.8407 10.76C63.8407 11.592 63.6167 12.2107 63.1687 12.616C62.7207 13 61.9847 13.192 60.9607 13.192C59.9367 13.192 59.2007 13 58.7527 12.616ZM71.3102 14.792C72.4836 13.7893 73.7742 13.288 75.1822 13.288C76.5902 13.288 77.5716 13.6187 78.1262 14.28C78.7022 14.92 78.9902 15.8907 78.9902 17.192V29H73.5502V19.016C73.5502 18.4827 73.3156 18.216 72.8462 18.216C72.2489 18.216 71.7476 18.3653 71.3422 18.664V29H65.9662V13.672H70.8622L71.1822 14.792H71.3102ZM102.694 23.272C102.694 27.0907 100.646 29 96.5505 29H88.7105V9.128H96.3905C98.4172 9.128 99.9212 9.544 100.902 10.376C101.884 11.1867 102.374 12.488 102.374 14.28C102.374 16.072 101.638 17.4373 100.166 18.376V18.568C101.852 19.2293 102.694 20.7973 102.694 23.272ZM95.2705 25.448C95.9105 25.448 96.3372 25.3093 96.5505 25.032C96.7852 24.7333 96.9025 24.136 96.9025 23.24C96.9025 22.3227 96.7852 21.6827 96.5505 21.32C96.3158 20.936 95.8892 20.744 95.2705 20.744H94.2465V25.448H95.2705ZM95.3025 17.64C95.7932 17.64 96.1345 17.4907 96.3265 17.192C96.5185 16.8933 96.6145 16.3707 96.6145 15.624C96.6145 14.856 96.5078 14.3227 96.2945 14.024C96.1025 13.704 95.7612 13.544 95.2705 13.544H94.2465V17.64H95.3025ZM109.738 20.392V29H104.426V13.672H109.098L109.418 14.6H109.546C110.037 14.0453 110.528 13.6933 111.018 13.544C111.53 13.3733 112.352 13.288 113.482 13.288L113.258 18.408H111.786C110.954 18.408 110.4 18.536 110.122 18.792C109.866 19.048 109.738 19.5813 109.738 20.392ZM118.585 29.32C116.047 29.32 114.777 27.912 114.777 25.096V13.672H120.217V23.784C120.217 24.3173 120.452 24.584 120.921 24.584C121.519 24.584 122.02 24.4347 122.425 24.136V13.672H127.801V28.936H122.713V27.816H122.585C121.412 28.8187 120.079 29.32 118.585 29.32ZM138.675 29.032C137.096 29.224 135.72 29.32 134.547 29.32C133.395 29.32 132.488 29.0213 131.827 28.424C131.187 27.8053 130.867 26.7493 130.867 25.256V17.832H129.331V13.864H131.123L131.411 10.92H136.243V13.864H139.091L138.867 17.832H136.211V24.2C136.211 24.648 136.424 24.872 136.851 24.872C136.894 24.872 137.555 24.84 138.835 24.776L138.675 29.032ZM153.663 13.672L150.399 29H142.847L139.551 13.672H145.183L146.559 23.496H146.975L148.447 13.672H153.663ZM166.508 17.672L166.348 24.296C166.348 24.7013 166.444 24.9787 166.636 25.128C166.85 25.256 167.202 25.32 167.692 25.32L167.212 29.192C165.975 29.2773 165.292 29.32 165.164 29.32C163.586 29.32 162.583 28.776 162.156 27.688H161.996C161.207 28.776 159.991 29.32 158.348 29.32C157.09 29.32 156.119 28.9147 155.436 28.104C154.775 27.2933 154.444 26.184 154.444 24.776C154.444 23.0053 154.988 21.7787 156.076 21.096C157.186 20.4133 158.924 19.9653 161.292 19.752V18.984C161.292 18.3867 160.994 18.088 160.396 18.088C159.372 18.088 157.772 18.3973 155.596 19.016L154.796 14.344C157.527 13.64 159.799 13.288 161.612 13.288C163.426 13.288 164.695 13.64 165.42 14.344C166.146 15.048 166.508 16.1573 166.508 17.672ZM160.332 25.576C161.122 25.576 161.516 25.16 161.516 24.328V22.76C160.727 22.8667 160.162 23.0373 159.82 23.272C159.5 23.4853 159.34 23.8587 159.34 24.392C159.34 25.1813 159.671 25.576 160.332 25.576ZM174.558 14.792C175.731 13.7893 177.022 13.288 178.43 13.288C179.838 13.288 180.819 13.6187 181.374 14.28C181.95 14.92 182.238 15.8907 182.238 17.192V29H176.798V19.016C176.798 18.4827 176.563 18.216 176.094 18.216C175.496 18.216 174.995 18.3653 174.59 18.664V29H169.214V13.672H174.11L174.43 14.792H174.558Z" fill="#3D1A00"/>
<path d="M197.88 28.716C197 28.716 196.2 28.476 195.48 27.996C194.76 27.5 194.192 26.78 193.776 25.836C193.36 24.876 193.152 23.716 193.152 22.356C193.152 20.132 193.72 18.452 194.856 17.316C195.992 16.18 197.552 15.612 199.536 15.612C199.952 15.612 200.384 15.644 200.832 15.708C201.296 15.772 201.768 15.868 202.248 15.996L201.864 16.212V11.388L202.08 11.652L199.872 11.172V10.14L203.784 9.972V27.324L203.496 26.988L205.656 27.42V28.476L202.296 28.62L202.008 26.556L202.248 26.652C201.528 27.34 200.8 27.86 200.064 28.212C199.344 28.548 198.616 28.716 197.88 28.716ZM198.552 27.252C199.112 27.252 199.688 27.108 200.28 26.82C200.888 26.516 201.496 26.068 202.104 25.476L201.864 26.124V17.028L202.128 17.508C201.152 17.188 200.264 17.028 199.464 17.028C198.056 17.028 196.984 17.484 196.248 18.396C195.512 19.308 195.144 20.572 195.144 22.188C195.144 23.244 195.288 24.156 195.576 24.924C195.88 25.676 196.288 26.252 196.8 26.652C197.328 27.052 197.912 27.252 198.552 27.252ZM212.851 28.716C211.779 28.716 210.827 28.476 209.995 27.996C209.179 27.5 208.539 26.78 208.075 25.836C207.611 24.892 207.379 23.74 207.379 22.38C207.379 20.988 207.619 19.788 208.099 18.78C208.579 17.772 209.259 16.996 210.139 16.452C211.019 15.892 212.051 15.612 213.235 15.612C214.355 15.612 215.275 15.852 215.995 16.332C216.731 16.796 217.275 17.444 217.627 18.276C217.995 19.108 218.179 20.06 218.179 21.132C218.179 21.308 218.171 21.484 218.155 21.66C218.139 21.836 218.115 22.052 218.083 22.308H208.843V20.94H216.403L216.187 21.084C216.203 20.364 216.115 19.7 215.923 19.092C215.731 18.484 215.403 17.996 214.939 17.628C214.475 17.26 213.859 17.076 213.091 17.076C212.275 17.076 211.587 17.292 211.027 17.724C210.467 18.156 210.051 18.748 209.779 19.5C209.507 20.252 209.371 21.124 209.371 22.116C209.371 23.172 209.523 24.084 209.827 24.852C210.131 25.604 210.571 26.188 211.147 26.604C211.739 27.02 212.459 27.228 213.307 27.228C213.899 27.228 214.547 27.116 215.251 26.892C215.955 26.652 216.683 26.292 217.435 25.812L218.131 26.892C217.235 27.5 216.339 27.956 215.443 28.26C214.547 28.564 213.683 28.716 212.851 28.716ZM222.688 18.9C222.688 19.412 222.856 19.812 223.192 20.1C223.528 20.388 223.96 20.628 224.488 20.82C225.016 20.996 225.576 21.172 226.168 21.348C226.76 21.524 227.32 21.74 227.848 21.996C228.376 22.252 228.808 22.604 229.144 23.052C229.48 23.5 229.648 24.092 229.648 24.828C229.648 25.676 229.416 26.388 228.952 26.964C228.488 27.54 227.856 27.98 227.056 28.284C226.272 28.572 225.392 28.716 224.416 28.716C223.824 28.716 223.216 28.668 222.592 28.572C221.968 28.476 221.328 28.34 220.672 28.164L220.84 24.948H222.064L222.304 27.3L222.088 27.036C222.456 27.132 222.856 27.212 223.288 27.276C223.72 27.34 224.12 27.372 224.488 27.372C225.064 27.372 225.592 27.292 226.072 27.132C226.568 26.956 226.968 26.708 227.272 26.388C227.576 26.052 227.728 25.636 227.728 25.14C227.728 24.612 227.56 24.196 227.224 23.892C226.904 23.588 226.48 23.34 225.952 23.148C225.424 22.956 224.864 22.78 224.272 22.62C223.696 22.444 223.144 22.228 222.616 21.972C222.088 21.7 221.656 21.348 221.32 20.916C220.984 20.484 220.816 19.892 220.816 19.14C220.816 18.324 221.024 17.66 221.44 17.148C221.872 16.62 222.432 16.236 223.12 15.996C223.824 15.74 224.576 15.612 225.376 15.612C225.92 15.612 226.52 15.668 227.176 15.78C227.832 15.892 228.504 16.06 229.192 16.284L229.072 18.996H227.848L227.488 17.004L227.776 17.34C226.944 17.1 226.16 16.98 225.424 16.98C224.64 16.98 223.984 17.148 223.456 17.484C222.944 17.804 222.688 18.276 222.688 18.9ZM235.517 27.276L235.301 27.012L237.389 27.468V28.5H231.725V27.468L233.812 27.012L233.597 27.276V17.148L233.789 17.364L231.725 16.932V15.9L235.517 15.756V27.276ZM234.413 13.164C234.045 13.164 233.741 13.044 233.501 12.804C233.261 12.564 233.141 12.236 233.141 11.82C233.141 11.388 233.261 11.06 233.501 10.836C233.757 10.596 234.069 10.476 234.437 10.476C234.821 10.476 235.133 10.588 235.373 10.812C235.613 11.036 235.733 11.372 235.733 11.82C235.733 12.252 235.605 12.588 235.349 12.828C235.093 13.052 234.781 13.164 234.413 13.164ZM244.297 34.236C242.425 34.236 241.025 33.964 240.097 33.42C239.169 32.876 238.705 32.092 238.705 31.068C238.705 30.348 238.945 29.708 239.425 29.148C239.905 28.588 240.609 28.1 241.537 27.684L241.561 28.068C241.049 28.036 240.657 27.932 240.385 27.756C240.113 27.564 239.977 27.3 239.977 26.964C239.977 26.836 239.993 26.708 240.025 26.58C240.057 26.452 240.113 26.276 240.193 26.052C240.289 25.812 240.425 25.5 240.601 25.116C240.793 24.716 241.033 24.196 241.321 23.556L241.369 23.892C240.681 23.524 240.153 23.028 239.785 22.404C239.417 21.764 239.233 21.012 239.233 20.148C239.233 18.756 239.689 17.652 240.601 16.836C241.529 16.02 242.801 15.612 244.417 15.612C245.505 15.612 246.441 15.804 247.225 16.188L246.697 16.068L250.465 15.9L250.489 17.052L248.257 17.484L248.425 17.196C248.761 17.516 249.017 17.908 249.193 18.372C249.369 18.836 249.457 19.364 249.457 19.956C249.457 21.364 248.985 22.476 248.041 23.292C247.097 24.108 245.841 24.516 244.273 24.516C243.377 24.516 242.553 24.364 241.801 24.06L242.233 23.844L241.609 26.988L241.201 26.748H245.905C247.441 26.748 248.609 27.052 249.409 27.66C250.209 28.252 250.609 29.108 250.609 30.228C250.609 31.524 250.073 32.516 249.001 33.204C247.945 33.892 246.377 34.236 244.297 34.236ZM244.465 32.772C245.921 32.772 247.001 32.572 247.705 32.172C248.409 31.772 248.761 31.172 248.761 30.372C248.761 29.668 248.497 29.132 247.969 28.764C247.441 28.412 246.649 28.236 245.593 28.236H241.777L242.329 28.116C241.049 28.916 240.409 29.78 240.409 30.708C240.409 31.396 240.737 31.908 241.393 32.244C242.065 32.596 243.089 32.772 244.465 32.772ZM244.273 23.172C245.297 23.172 246.097 22.9 246.673 22.356C247.249 21.796 247.537 21.012 247.537 20.004C247.537 18.996 247.265 18.236 246.721 17.724C246.177 17.212 245.401 16.956 244.393 16.956C243.369 16.956 242.577 17.228 242.017 17.772C241.457 18.3 241.177 19.076 241.177 20.1C241.177 21.092 241.441 21.852 241.969 22.38C242.513 22.908 243.281 23.172 244.273 23.172ZM251.975 28.5V27.468L254.135 26.988L253.847 27.348V17.028L254.135 17.388L251.975 16.932V15.9L255.335 15.732L255.599 18.084L255.335 17.988C256.135 17.172 256.967 16.572 257.831 16.188C258.711 15.804 259.543 15.612 260.327 15.612C261.383 15.612 262.255 15.94 262.943 16.596C263.647 17.236 263.991 18.236 263.975 19.596V27.348L263.734 27.012L265.847 27.468V28.5H260.255V27.468L262.343 27.012L262.055 27.372V20.004C262.055 19.012 261.831 18.284 261.383 17.82C260.935 17.356 260.335 17.124 259.583 17.124C258.991 17.124 258.343 17.284 257.639 17.604C256.951 17.924 256.271 18.42 255.599 19.092L255.767 18.708V27.372L255.527 27.036L257.567 27.468V28.5H251.975ZM276.215 28.716C275.383 28.716 274.727 28.46 274.247 27.948C273.767 27.42 273.527 26.628 273.527 25.572V16.86L273.839 17.172H271.367V16.116L273.863 15.756L273.527 16.14V12.972L275.447 12.66V16.14L275.183 15.828H278.951L278.879 17.172H275.183L275.447 16.86V25.308C275.447 25.98 275.575 26.468 275.831 26.772C276.103 27.076 276.479 27.228 276.959 27.228C277.247 27.228 277.559 27.18 277.895 27.084C278.231 26.988 278.591 26.852 278.975 26.676L279.383 27.78C278.247 28.404 277.191 28.716 276.215 28.716ZM286.069 28.716C284.997 28.716 284.045 28.476 283.213 27.996C282.397 27.5 281.757 26.78 281.293 25.836C280.829 24.892 280.597 23.74 280.597 22.38C280.597 20.988 280.837 19.788 281.317 18.78C281.797 17.772 282.477 16.996 283.357 16.452C284.237 15.892 285.269 15.612 286.453 15.612C287.573 15.612 288.493 15.852 289.213 16.332C289.949 16.796 290.493 17.444 290.845 18.276C291.213 19.108 291.397 20.06 291.397 21.132C291.397 21.308 291.389 21.484 291.373 21.66C291.357 21.836 291.333 22.052 291.301 22.308H282.061V20.94H289.621L289.405 21.084C289.421 20.364 289.333 19.7 289.141 19.092C288.949 18.484 288.621 17.996 288.157 17.628C287.693 17.26 287.077 17.076 286.309 17.076C285.493 17.076 284.805 17.292 284.245 17.724C283.685 18.156 283.269 18.748 282.997 19.5C282.725 20.252 282.589 21.124 282.589 22.116C282.589 23.172 282.741 24.084 283.045 24.852C283.349 25.604 283.789 26.188 284.365 26.604C284.957 27.02 285.677 27.228 286.525 27.228C287.117 27.228 287.765 27.116 288.469 26.892C289.173 26.652 289.901 26.292 290.653 25.812L291.349 26.892C290.453 27.5 289.557 27.956 288.661 28.26C287.765 28.564 286.901 28.716 286.069 28.716ZM299.098 28.716C298.074 28.716 297.146 28.468 296.314 27.972C295.498 27.46 294.85 26.724 294.37 25.764C293.906 24.804 293.674 23.652 293.674 22.308C293.674 21.14 293.834 20.14 294.154 19.308C294.49 18.46 294.938 17.764 295.498 17.22C296.058 16.676 296.698 16.276 297.418 16.02C298.154 15.748 298.914 15.612 299.698 15.612C300.338 15.612 301.018 15.7 301.738 15.876C302.474 16.052 303.114 16.292 303.658 16.596L303.562 19.596H302.266L301.954 17.34L302.146 17.556C301.746 17.364 301.322 17.228 300.874 17.148C300.426 17.068 300.026 17.028 299.674 17.028C298.842 17.028 298.122 17.244 297.514 17.676C296.922 18.092 296.466 18.684 296.146 19.452C295.826 20.22 295.666 21.132 295.666 22.188C295.666 23.276 295.834 24.196 296.17 24.948C296.506 25.7 296.962 26.268 297.538 26.652C298.13 27.036 298.794 27.228 299.53 27.228C300.106 27.228 300.714 27.108 301.354 26.868C301.994 26.628 302.658 26.268 303.346 25.788L304.018 26.844C303.186 27.484 302.354 27.956 301.522 28.26C300.69 28.564 299.882 28.716 299.098 28.716ZM305.006 28.5V27.468L307.19 26.988L306.902 27.348V11.268L307.19 11.652L305.006 11.172V10.14L308.822 9.972V18.084L308.39 17.988C309.174 17.172 309.998 16.572 310.862 16.188C311.742 15.804 312.574 15.612 313.358 15.612C314.062 15.612 314.694 15.756 315.254 16.044C315.814 16.332 316.246 16.772 316.55 17.364C316.87 17.94 317.03 18.676 317.03 19.572V27.348L316.79 27.012L318.902 27.468V28.5H313.31V27.468L315.374 27.012L315.11 27.372V20.004C315.126 19.012 314.902 18.284 314.438 17.82C313.974 17.356 313.366 17.124 312.614 17.124C312.038 17.124 311.398 17.284 310.694 17.604C309.99 17.924 309.31 18.428 308.654 19.116L308.822 18.708V27.372L308.582 27.036L310.622 27.468V28.5H305.006ZM320.225 28.5V27.468L322.385 26.988L322.097 27.348V17.028L322.385 17.388L320.225 16.932V15.9L323.585 15.732L323.849 18.084L323.585 17.988C324.385 17.172 325.217 16.572 326.081 16.188C326.961 15.804 327.793 15.612 328.577 15.612C329.633 15.612 330.505 15.94 331.193 16.596C331.897 17.236 332.241 18.236 332.225 19.596V27.348L331.984 27.012L334.097 27.468V28.5H328.505V27.468L330.593 27.012L330.305 27.372V20.004C330.305 19.012 330.081 18.284 329.633 17.82C329.185 17.356 328.585 17.124 327.833 17.124C327.241 17.124 326.593 17.284 325.889 17.604C325.201 17.924 324.521 18.42 323.849 19.092L324.017 18.708V27.372L323.777 27.036L325.817 27.468V28.5H320.225ZM341.556 15.612C343.316 15.612 344.692 16.164 345.684 17.268C346.692 18.372 347.196 19.932 347.196 21.948C347.196 23.308 346.948 24.5 346.452 25.524C345.972 26.532 345.284 27.316 344.388 27.876C343.492 28.436 342.412 28.716 341.148 28.716C339.42 28.716 338.068 28.18 337.092 27.108C336.116 26.02 335.628 24.46 335.628 22.428C335.628 21.02 335.86 19.812 336.324 18.804C336.804 17.78 337.484 16.996 338.364 16.452C339.26 15.892 340.324 15.612 341.556 15.612ZM341.46 17.028C340.228 17.028 339.284 17.492 338.628 18.42C337.972 19.348 337.644 20.652 337.644 22.332C337.644 23.98 337.956 25.22 338.58 26.052C339.204 26.884 340.1 27.3 341.268 27.3C342.116 27.3 342.828 27.092 343.404 26.676C343.996 26.244 344.436 25.636 344.724 24.852C345.028 24.068 345.18 23.132 345.18 22.044C345.18 20.412 344.852 19.172 344.196 18.324C343.556 17.46 342.644 17.028 341.46 17.028ZM352.697 27.276L352.481 27.012L354.569 27.468V28.5H348.881V27.468L350.969 27.012L350.777 27.276V11.388L350.969 11.604L348.881 11.172V10.14L352.697 9.972V27.276ZM362.204 15.612C363.964 15.612 365.34 16.164 366.332 17.268C367.34 18.372 367.844 19.932 367.844 21.948C367.844 23.308 367.596 24.5 367.1 25.524C366.62 26.532 365.932 27.316 365.036 27.876C364.14 28.436 363.06 28.716 361.796 28.716C360.068 28.716 358.716 28.18 357.74 27.108C356.764 26.02 356.276 24.46 356.276 22.428C356.276 21.02 356.508 19.812 356.972 18.804C357.452 17.78 358.132 16.996 359.012 16.452C359.908 15.892 360.972 15.612 362.204 15.612ZM362.108 17.028C360.876 17.028 359.932 17.492 359.276 18.42C358.62 19.348 358.292 20.652 358.292 22.332C358.292 23.98 358.604 25.22 359.228 26.052C359.852 26.884 360.748 27.3 361.916 27.3C362.764 27.3 363.476 27.092 364.052 26.676C364.644 26.244 365.084 25.636 365.372 24.852C365.676 24.068 365.828 23.132 365.828 22.044C365.828 20.412 365.5 19.172 364.844 18.324C364.204 17.46 363.292 17.028 362.108 17.028ZM375.289 34.236C373.417 34.236 372.017 33.964 371.089 33.42C370.161 32.876 369.697 32.092 369.697 31.068C369.697 30.348 369.937 29.708 370.417 29.148C370.897 28.588 371.601 28.1 372.529 27.684L372.553 28.068C372.041 28.036 371.649 27.932 371.377 27.756C371.105 27.564 370.969 27.3 370.969 26.964C370.969 26.836 370.985 26.708 371.017 26.58C371.049 26.452 371.105 26.276 371.185 26.052C371.281 25.812 371.417 25.5 371.593 25.116C371.785 24.716 372.025 24.196 372.313 23.556L372.361 23.892C371.673 23.524 371.145 23.028 370.777 22.404C370.409 21.764 370.225 21.012 370.225 20.148C370.225 18.756 370.681 17.652 371.593 16.836C372.521 16.02 373.793 15.612 375.409 15.612C376.497 15.612 377.433 15.804 378.217 16.188L377.689 16.068L381.457 15.9L381.481 17.052L379.249 17.484L379.417 17.196C379.753 17.516 380.009 17.908 380.185 18.372C380.361 18.836 380.449 19.364 380.449 19.956C380.449 21.364 379.977 22.476 379.033 23.292C378.089 24.108 376.833 24.516 375.265 24.516C374.369 24.516 373.545 24.364 372.793 24.06L373.225 23.844L372.601 26.988L372.193 26.748H376.897C378.433 26.748 379.601 27.052 380.401 27.66C381.201 28.252 381.601 29.108 381.601 30.228C381.601 31.524 381.065 32.516 379.993 33.204C378.937 33.892 377.369 34.236 375.289 34.236ZM375.457 32.772C376.913 32.772 377.993 32.572 378.697 32.172C379.401 31.772 379.753 31.172 379.753 30.372C379.753 29.668 379.489 29.132 378.961 28.764C378.433 28.412 377.641 28.236 376.585 28.236H372.769L373.321 28.116C372.041 28.916 371.401 29.78 371.401 30.708C371.401 31.396 371.729 31.908 372.385 32.244C373.057 32.596 374.081 32.772 375.457 32.772ZM375.265 23.172C376.289 23.172 377.089 22.9 377.665 22.356C378.241 21.796 378.529 21.012 378.529 20.004C378.529 18.996 378.257 18.236 377.713 17.724C377.169 17.212 376.393 16.956 375.385 16.956C374.361 16.956 373.569 17.228 373.009 17.772C372.449 18.3 372.169 19.076 372.169 20.1C372.169 21.092 372.433 21.852 372.961 22.38C373.505 22.908 374.273 23.172 375.265 23.172ZM386.759 27.276L386.543 27.012L388.631 27.468V28.5H382.967V27.468L385.055 27.012L384.839 27.276V17.148L385.031 17.364L382.967 16.932V15.9L386.759 15.756V27.276ZM385.655 13.164C385.287 13.164 384.983 13.044 384.743 12.804C384.503 12.564 384.383 12.236 384.383 11.82C384.383 11.388 384.503 11.06 384.743 10.836C384.999 10.596 385.311 10.476 385.679 10.476C386.063 10.476 386.375 10.588 386.615 10.812C386.855 11.036 386.975 11.372 386.975 11.82C386.975 12.252 386.847 12.588 386.591 12.828C386.335 13.052 386.023 13.164 385.655 13.164ZM392.539 18.9C392.539 19.412 392.707 19.812 393.043 20.1C393.379 20.388 393.811 20.628 394.339 20.82C394.867 20.996 395.427 21.172 396.019 21.348C396.611 21.524 397.171 21.74 397.699 21.996C398.227 22.252 398.659 22.604 398.995 23.052C399.331 23.5 399.499 24.092 399.499 24.828C399.499 25.676 399.267 26.388 398.803 26.964C398.339 27.54 397.707 27.98 396.907 28.284C396.123 28.572 395.243 28.716 394.267 28.716C393.675 28.716 393.067 28.668 392.443 28.572C391.819 28.476 391.179 28.34 390.523 28.164L390.691 24.948H391.915L392.155 27.3L391.939 27.036C392.307 27.132 392.707 27.212 393.139 27.276C393.571 27.34 393.971 27.372 394.339 27.372C394.915 27.372 395.443 27.292 395.923 27.132C396.419 26.956 396.819 26.708 397.123 26.388C397.427 26.052 397.579 25.636 397.579 25.14C397.579 24.612 397.411 24.196 397.075 23.892C396.755 23.588 396.331 23.34 395.803 23.148C395.275 22.956 394.715 22.78 394.123 22.62C393.547 22.444 392.995 22.228 392.467 21.972C391.939 21.7 391.507 21.348 391.171 20.916C390.835 20.484 390.667 19.892 390.667 19.14C390.667 18.324 390.875 17.66 391.291 17.148C391.723 16.62 392.283 16.236 392.971 15.996C393.675 15.74 394.427 15.612 395.227 15.612C395.771 15.612 396.371 15.668 397.027 15.78C397.683 15.892 398.355 16.06 399.043 16.284L398.923 18.996H397.699L397.339 17.004L397.627 17.34C396.795 17.1 396.011 16.98 395.275 16.98C394.491 16.98 393.835 17.148 393.307 17.484C392.795 17.804 392.539 18.276 392.539 18.9ZM405.824 28.716C404.992 28.716 404.336 28.46 403.856 27.948C403.376 27.42 403.136 26.628 403.136 25.572V16.86L403.448 17.172H400.976V16.116L403.472 15.756L403.136 16.14V12.972L405.056 12.66V16.14L404.792 15.828H408.56L408.488 17.172H404.792L405.056 16.86V25.308C405.056 25.98 405.184 26.468 405.44 26.772C405.712 27.076 406.088 27.228 406.568 27.228C406.856 27.228 407.168 27.18 407.504 27.084C407.84 26.988 408.2 26.852 408.584 26.676L408.992 27.78C407.856 28.404 406.8 28.716 405.824 28.716Z" fill="#415889"/>
</svg>
