<svg width="602" height="482" viewBox="0 0 602 482" fill="none" xmlns="http://www.w3.org/2000/svg">
<path fill-rule="evenodd" clip-rule="evenodd" d="M299.532 470.359C299.532 464.019 304.336 459.697 310.505 459.697C315.053 459.697 317.697 462.17 319.146 464.729L315.366 466.606C314.513 464.928 312.637 463.592 310.505 463.592C306.781 463.592 304.052 466.464 304.052 470.359C304.052 474.283 306.781 477.155 310.505 477.155C312.637 477.155 314.513 475.847 315.366 474.141L319.146 475.961C317.668 478.548 315.053 481.05 310.505 481.05C304.336 481.05 299.532 476.728 299.532 470.359ZM322.33 470.359C322.33 464.161 326.878 459.697 333.104 459.697C339.357 459.697 343.906 464.161 343.906 470.359C343.906 476.586 339.357 481.05 333.104 481.05C326.878 481.05 322.33 476.586 322.33 470.359ZM339.386 470.359C339.386 466.492 336.913 463.592 333.104 463.592C329.295 463.592 326.85 466.492 326.85 470.359C326.85 474.198 329.295 477.155 333.104 477.155C336.913 477.155 339.386 474.198 339.386 470.359ZM366.504 480.681V466.208L360.705 480.681H358.772L352.945 466.208V480.681H348.567V460.038H354.708L359.739 472.52L364.742 460.038H370.939V480.681H366.504ZM394.504 480.681V466.208L388.705 480.681H386.772L380.973 466.208V480.681H376.567V460.038H382.736L387.739 472.52L392.742 460.038H398.939V480.681H394.504ZM404.567 472.435V460.038H409.03V472.293C409.03 475.164 410.707 477.155 413.891 477.155C417.075 477.155 418.723 475.164 418.723 472.293V460.038H423.215V472.406C423.215 477.553 420.173 481.05 413.891 481.05C407.609 481.05 404.567 477.524 404.567 472.435ZM443.056 480.681L433.192 467.203V480.681H428.815V460.038H433.334L442.886 473.004V460.038H447.292V480.681H443.056ZM452.92 480.681V460.038H457.326V480.681H452.92ZM467.702 480.681V463.905H461.675V460.038H478.134V463.905H472.136V480.681H467.702ZM488.254 480.681V472.236L480.295 460.038H485.326L490.443 468.34L495.531 460.038H500.534L492.66 472.236V480.681H488.254ZM513.468 480.681V460.038H528.079V463.905H517.874V468.255H527.88V472.122H517.874V480.681H513.468ZM532.684 472.435V460.038H537.147V472.293C537.147 475.164 538.824 477.155 542.008 477.155C545.192 477.155 546.84 475.164 546.84 472.293V460.038H551.332V472.406C551.332 477.553 548.29 481.05 542.008 481.05C535.726 481.05 532.684 477.524 532.684 472.435ZM571.173 480.681L561.309 467.203V480.681H556.932V460.038H561.451L571.003 473.004V460.038H575.409V480.681H571.173ZM581.037 480.681V460.038H589.195C595.648 460.038 600.14 464.161 600.14 470.359C600.14 476.586 595.648 480.681 589.195 480.681H581.037ZM595.648 470.359C595.648 466.72 593.402 463.905 589.167 463.905H585.415V476.814H589.167C593.26 476.814 595.648 473.857 595.648 470.359Z" fill="black"/>
<path fill-rule="evenodd" clip-rule="evenodd" d="M285.973 449.688L283.13 441.442H260.503L257.688 449.688H240.917L262.492 392.309H281.055L302.744 449.688H285.973ZM271.759 406.952L264.454 428.534H279.093L271.759 406.952ZM308.543 438.514V419.691H301.664V408.147H308.543V396.802H321.704V408.147H330.119V419.691H321.704V434.817C321.704 437.234 323.069 439.025 325.4 439.025C326.849 439.025 328.328 438.514 328.754 438.002L331.341 447.982C329.692 449.517 326.423 450.74 321.534 450.74C313.12 450.74 308.543 446.504 308.543 438.514ZM366.675 449.688V425.52C366.675 420.458 364.003 418.809 359.795 418.809C355.93 418.809 353.343 420.97 351.808 422.847V449.688H338.561V392.338H351.808V413.236C354.281 410.308 359.198 407.123 366.163 407.123C375.629 407.123 379.921 412.44 379.921 420.117V449.688H366.675ZM391.263 449.688V392.338H404.51V449.688H391.263ZM413.095 428.875C413.095 416.847 422.219 407.123 435.182 407.123C447.49 407.123 456.445 416.165 456.445 430.268V433.083H426.853C427.62 436.978 431.231 440.504 437.257 440.504C440.185 440.504 445.245 439.196 447.576 436.978L453.176 445.224C449.025 448.92 442.146 450.74 435.807 450.74C422.987 450.74 413.095 442.381 413.095 428.875ZM435.182 417.359C429.44 417.359 427.194 421.482 426.682 424.496H443.795C443.454 421.567 441.293 417.359 435.182 417.359ZM467.446 438.514V419.691H460.566V408.147H467.446V396.802H480.607V408.147H489.021V419.691H480.607V434.817C480.607 437.234 481.971 439.025 484.302 439.025C485.752 439.025 487.202 438.514 487.657 438.002L490.215 447.982C488.595 449.517 485.326 450.74 480.408 450.74C471.994 450.74 467.446 446.504 467.446 438.514ZM496.412 396.802C496.412 392.594 499.766 389.238 503.973 389.238C508.18 389.238 511.535 392.594 511.535 396.802C511.535 401.01 508.18 404.45 503.973 404.45C499.766 404.45 496.412 401.01 496.412 396.802ZM497.35 449.688V408.147H510.597V449.688H497.35ZM519.181 428.875C519.181 415.881 528.903 407.123 541.894 407.123C550.848 407.123 556.42 411.075 558.921 414.772L550.308 422.762C548.688 420.373 546.016 418.809 542.491 418.809C537.005 418.809 532.769 422.591 532.769 428.875C532.769 435.159 537.005 439.025 542.491 439.025C546.016 439.025 548.688 437.319 550.308 434.988L558.921 443.063C556.42 446.674 550.848 450.74 541.894 450.74C528.903 450.74 519.181 441.954 519.181 428.875ZM563.128 444.371L568.643 435.244C571.741 438.002 578.365 440.76 583.254 440.76C587.205 440.76 588.854 439.452 588.854 437.575C588.854 432.145 564.692 437.49 564.692 420.8C564.692 413.492 570.945 407.123 582.487 407.123C589.451 407.123 595.364 409.369 599.855 412.639L594.767 421.397C592.294 418.98 587.546 416.847 582.572 416.847C579.473 416.847 577.313 418.127 577.313 419.861C577.313 424.667 601.475 419.947 601.475 436.978C601.475 444.883 594.511 450.74 582.572 450.74C575.181 450.74 567.506 448.238 563.128 444.371Z" fill="black"/>
<path d="M206.152 450.712C200.239 450.712 195.681 449.366 192.479 446.674C189.314 443.963 187.731 440.381 187.731 435.926C187.731 433.822 188.186 431.784 189.096 429.813C190.006 427.842 191.313 426.069 193.019 424.496C194.705 422.904 196.695 421.672 198.988 420.8C198.041 419.188 197.567 417.463 197.567 415.625C197.567 413.388 198.164 411.322 199.358 409.426C200.59 407.512 202.305 405.957 204.503 404.763C206.701 403.569 209.269 402.972 212.206 402.972C215.409 402.972 217.958 403.54 219.853 404.678C221.767 405.834 222.753 407.417 222.809 409.426C222.847 410.355 222.573 411.18 221.985 411.9C221.379 412.601 220.46 412.952 219.228 412.952C217.2 412.952 215.712 411.549 214.765 408.744L214.395 407.777C214.092 406.867 213.618 406.156 212.974 405.645C212.33 405.095 211.458 404.934 210.359 405.161C208.615 405.389 207.004 406.308 205.526 407.919C204.067 409.474 203.337 411.796 203.337 414.885C203.337 416.535 203.66 418.117 204.304 419.634C204.891 419.577 205.488 419.549 206.095 419.549C208.331 419.549 210.046 419.871 211.24 420.515C212.434 421.103 213.031 422.022 213.031 423.273C213.031 424.183 212.69 424.941 212.007 425.548C211.363 426.136 210.378 426.429 209.051 426.429C207.346 426.429 205.763 426.107 204.304 425.463C202.883 424.818 201.641 423.975 200.58 422.932C199.026 424.069 197.813 425.539 196.942 427.339C196.07 429.121 195.634 431.064 195.634 433.168C195.634 435.595 196.184 437.642 197.283 439.31C198.42 440.959 199.955 442.191 201.888 443.006C203.821 443.84 205.981 444.257 208.369 444.257C212.443 444.257 215.513 443.546 217.579 442.125C219.683 440.703 220.734 438.931 220.734 436.808C220.734 435.083 220.185 433.708 219.086 432.685C218.024 431.68 216.101 431.064 213.315 430.837L213.798 428.221C218.005 427.804 221.35 426.477 223.833 424.24C226.315 421.984 228.267 418.771 229.689 414.601L235.942 417.416C234.237 420.999 232.152 423.795 229.689 425.804C227.206 427.832 223.852 429.169 219.626 429.813C221.142 430.495 222.269 431.5 223.008 432.827C223.748 434.154 224.117 435.576 224.117 437.092C224.117 439.67 223.359 441.992 221.843 444.058C220.327 446.105 218.214 447.726 215.504 448.92C212.851 450.115 209.733 450.712 206.152 450.712Z" fill="black"/>
<path fill-rule="evenodd" clip-rule="evenodd" d="M46.0556 449.688L43.2414 441.442H20.6141L17.7715 449.688H1L22.6039 392.309H41.1663L62.8271 449.688H46.0556ZM31.8709 406.952L24.5653 428.534H39.1764L31.8709 406.952ZM68.427 449.688V408.147H81.6736V413.236C84.4025 409.881 89.6614 407.038 94.636 407.038V419.776C93.8685 419.605 92.7598 419.406 91.367 419.406C87.9274 419.406 83.3792 420.885 81.6736 423.216V449.688H68.427ZM105.125 438.514V419.691H98.2461V408.147H105.125V396.802H118.287V408.147H126.729V419.691H118.287V434.817C118.287 437.234 119.651 439.025 121.982 439.025C123.46 439.025 124.91 438.514 125.336 438.002L127.923 447.982C126.274 449.517 123.005 450.74 118.116 450.74C109.702 450.74 105.125 446.503 105.125 438.514ZM131.533 444.371L137.019 435.244C140.118 438.002 146.741 440.76 151.659 440.76C155.61 440.76 157.231 439.452 157.231 437.575C157.231 432.145 133.068 437.49 133.068 420.8C133.068 413.492 139.35 407.123 150.863 407.123C157.827 407.123 163.769 409.369 168.26 412.639L163.172 421.397C160.67 418.98 155.951 416.847 150.977 416.847C147.878 416.847 145.718 418.127 145.718 419.861C145.718 424.667 169.88 419.947 169.88 436.978C169.88 444.883 162.916 450.74 150.977 450.74C143.558 450.74 135.911 448.238 131.533 444.371Z" fill="black"/>
<path fill-rule="evenodd" clip-rule="evenodd" d="M21.6094 382.585V332.115H44.0945C52.8782 332.115 58.2508 337.404 58.2508 344.967C58.2508 351.337 54.0153 355.573 49.3818 356.54C54.7544 357.393 59.2173 362.909 59.2173 368.965C59.2173 377.069 53.8447 382.585 44.6346 382.585H21.6094ZM51.7127 345.877C51.7127 341.328 48.6711 337.717 43.0143 337.717H27.8632V353.981H43.0143C48.6711 353.981 51.7127 350.484 51.7127 345.877ZM52.7077 368.283C52.7077 363.677 49.5239 359.582 43.2986 359.582H27.8632V376.984H43.2986C49.2112 376.984 52.7077 373.657 52.7077 368.283ZM69.4791 337.034C69.4791 334.902 71.2416 333.168 73.2883 333.168C75.3918 333.168 77.1258 334.902 77.1258 337.034C77.1258 339.139 75.3918 340.816 73.2883 340.816C71.2416 340.816 69.4791 339.139 69.4791 337.034ZM70.474 382.585V346.019H76.1593V382.585H70.474ZM113.682 382.585V358.672C113.682 352.246 110.413 350.199 105.495 350.199C101.032 350.199 96.7968 352.929 94.6648 355.857V382.585H89.008V346.019H94.6648V351.337C97.2516 348.294 102.255 345.11 107.684 345.11C115.331 345.11 119.339 348.977 119.339 356.938V382.585H113.682ZM130.652 391.968L133.523 387.731C136.537 391.371 140.175 392.736 145.406 392.736C151.46 392.736 157.117 389.779 157.117 381.76V376.529C154.474 380.225 150.011 383.04 144.866 383.04C135.343 383.04 128.606 375.932 128.606 364.132C128.606 352.389 135.257 345.11 144.866 345.11C149.783 345.11 154.161 347.555 157.117 351.564V346.019H162.802V381.533C162.802 393.646 154.331 397.427 145.406 397.427C139.18 397.427 134.945 396.205 130.652 391.968ZM157.117 372.065V356.085C155.156 352.929 150.778 350.199 146.23 350.199C138.896 350.199 134.49 356.028 134.49 364.132C134.49 372.15 138.896 378.036 146.23 378.036C150.778 378.036 155.156 375.249 157.117 372.065ZM199.643 382.585V358.53C199.643 352.076 196.317 350.199 191.399 350.199C187.022 350.199 182.786 352.929 180.569 355.857V382.585H174.912V332.115H180.569V351.337C183.156 348.294 188.159 345.11 193.673 345.11C201.32 345.11 205.328 348.834 205.328 356.767V382.585H199.643ZM239.525 382.585V378.434C236.483 381.76 232.333 383.495 227.415 383.495C221.19 383.495 214.623 379.344 214.623 371.382C214.623 363.222 221.19 359.355 227.415 359.355C232.39 359.355 236.569 360.947 239.525 364.331V357.763C239.525 352.844 235.574 350.029 230.286 350.029C225.88 350.029 222.327 351.621 219.086 355.118L216.443 351.166C220.366 347.1 225.056 345.11 231.025 345.11C238.757 345.11 245.182 348.607 245.182 357.45V382.585H239.525ZM239.525 374.851V367.97C237.336 364.956 233.47 363.449 229.462 363.449C224.175 363.449 220.451 366.776 220.451 371.467C220.451 376.074 224.175 379.4 229.462 379.4C233.47 379.4 237.336 377.893 239.525 374.851ZM302.176 382.585V357.763C302.176 353.156 300.13 350.199 295.439 350.199C291.659 350.199 287.65 352.929 285.774 355.801V382.585H280.089V357.763C280.089 353.156 278.128 350.199 273.352 350.199C269.657 350.199 265.705 352.929 263.744 355.857V382.585H258.059V346.019H263.744V351.337C265.251 348.977 270.168 345.11 275.541 345.11C281.141 345.11 284.325 348.152 285.376 351.934C287.423 348.607 292.341 345.11 297.628 345.11C304.308 345.11 307.861 348.834 307.861 356.17V382.585H302.176ZM321.847 374.936V351.024H315.792V346.019H321.847V336.039H327.532V346.019H334.923V351.024H327.532V373.742C327.532 376.443 328.726 378.434 331.228 378.434C332.82 378.434 334.326 377.751 335.094 376.898L336.742 381.135C335.321 382.5 333.275 383.495 329.949 383.495C324.576 383.495 321.847 380.396 321.847 374.936ZM342.343 364.274C342.343 353.668 349.307 345.11 360.422 345.11C371.565 345.11 378.529 353.668 378.529 364.274C378.529 374.851 371.565 383.495 360.422 383.495C349.307 383.495 342.343 374.851 342.343 364.274ZM372.531 364.274C372.531 356.853 368.239 350.199 360.422 350.199C352.633 350.199 348.255 356.853 348.255 364.274C348.255 371.752 352.633 378.434 360.422 378.434C368.239 378.434 372.531 371.752 372.531 364.274ZM412.413 382.585V358.672C412.413 352.246 409.173 350.199 404.255 350.199C399.792 350.199 395.556 352.929 393.424 355.857V382.585H387.739V346.019H393.424V351.337C396.011 348.294 400.986 345.11 406.444 345.11C414.09 345.11 418.098 348.977 418.098 356.938V382.585H412.413Z" fill="black"/>
<path fill-rule="evenodd" clip-rule="evenodd" d="M163.63 281.534V281.542H289.348C331.595 281.542 352.579 254.418 352.579 223.099C352.579 195.974 334.527 173.976 311.635 170.434C331.921 165.914 348.392 147.831 348.392 121.032C348.392 93.9078 328.059 66.1307 285.486 66.1307L280.394 66.1307C294.14 87.8367 302.097 113.601 302.097 141.259C302.097 162.386 297.449 182.413 289.12 200.372C293.712 203.928 296.188 209.318 296.188 215.316C296.188 226.967 288.138 234.704 274.878 234.704H266.558C241.249 263.092 204.564 281.081 163.63 281.534Z" fill="black"/>
<mask id="mask0_319_1149" style="mask-type:luminance" maskUnits="userSpaceOnUse" x="22" y="0" width="281" height="282">
<path d="M162.044 281.533C84.5986 281.533 22 218.83 22 141.254C22 63.6793 84.5986 0.975952 162.044 0.975952C239.49 0.975952 302.088 63.6793 302.088 141.254C302.088 218.83 239.49 281.533 162.044 281.533Z" fill="white"/>
</mask>
<g mask="url(#mask0_319_1149)">
<path fill-rule="evenodd" clip-rule="evenodd" d="M140.878 279.956C73.4907 269.757 22 211.605 22 141.259C22 63.6606 84.58 0.975952 162.049 0.975952C201.452 0.975952 237.022 17.2121 262.455 43.3872H140.878V279.956ZM151.812 281.175C155.192 281.418 158.606 281.542 162.049 281.542C162.577 281.542 163.104 281.539 163.631 281.534V66.1307H280.395C277.812 62.0523 275.024 58.1171 272.047 54.3395H151.812V281.175ZM274.879 195.974C280.776 195.974 285.578 197.627 289.121 200.372C283.293 212.939 275.662 224.494 266.559 234.704H219.092V195.974H274.879ZM292.001 130.726C292.001 120.38 284.231 112.923 272.971 112.923H219.092V148.809H272.971C284.231 148.809 292.001 141.352 292.001 130.726Z" fill="black"/>
</g>
</svg>
