<?xml version="1.0" encoding="UTF-8" standalone="no"?>
<svg
   width="1662.6986"
   height="650.52179"
   viewBox="0 0 1662.6986 650.52179"
   fill="none"
   version="1.1"
   id="svg419"
   sodipodi:docname="baacf-logo-specs.svg"
   inkscape:version="1.2.1 (9c6d41e4, 2022-07-14)"
   xmlns:inkscape="http://www.inkscape.org/namespaces/inkscape"
   xmlns:sodipodi="http://sodipodi.sourceforge.net/DTD/sodipodi-0.dtd"
   xmlns="http://www.w3.org/2000/svg"
   xmlns:svg="http://www.w3.org/2000/svg">
  <sodipodi:namedview
     id="namedview421"
     pagecolor="#ffffff"
     bordercolor="#000000"
     borderopacity="0.25"
     inkscape:showpageshadow="2"
     inkscape:pageopacity="0.0"
     inkscape:pagecheckerboard="0"
     inkscape:deskcolor="#d1d1d1"
     showgrid="false"
     inkscape:zoom="0.7043456"
     inkscape:cx="834.10758"
     inkscape:cy="399.66176"
     inkscape:window-width="2048"
     inkscape:window-height="1099"
     inkscape:window-x="0"
     inkscape:window-y="25"
     inkscape:window-maximized="0"
     inkscape:current-layer="svg419" />
  <defs
     id="defs417">
    <clipPath
       id="clip0_93_1428">
      <rect
         width="867"
         height="184"
         fill="#ffffff"
         id="rect411"
         x="0"
         y="0" />
    </clipPath>
    <clipPath
       id="clip1_93_1428">
      <rect
         width="867"
         height="184.24899"
         fill="#ffffff"
         id="rect414"
         x="0"
         y="0" />
    </clipPath>
    <clipPath
       id="clip0_319_1193">
      <rect
         width="867"
         height="184"
         fill="#ffffff"
         id="rect563"
         x="0"
         y="0" />
    </clipPath>
    <clipPath
       id="clip1_319_1193">
      <rect
         width="867"
         height="184.24899"
         fill="#ffffff"
         id="rect566"
         x="0"
         y="0" />
    </clipPath>
    <mask
       id="mask0_319_1193"
       maskUnits="userSpaceOnUse"
       x="1"
       y="3"
       width="172"
       height="172">
      <path
         d="M 86.98,174.537 C 39.6646,174.537 1.41992,136.228 1.41992,88.8333 1.41992,41.4387 39.6646,3.13 86.98,3.13 c 47.315,0 85.56,38.3087 85.56,85.7033 0,47.3947 -38.245,85.7037 -85.56,85.7037 z"
         fill="#ffffff"
         id="path552" />
    </mask>
    <clipPath
       id="clip0_207_2712">
      <rect
         width="867"
         height="184"
         fill="#ffffff"
         id="rect155"
         x="0"
         y="0" />
    </clipPath>
    <clipPath
       id="clip1_207_2712">
      <rect
         width="867"
         height="184.24899"
         fill="#ffffff"
         id="rect158"
         x="0"
         y="0" />
    </clipPath>
    <mask
       id="mask0_207_2712"
       maskUnits="userSpaceOnUse"
       x="1"
       y="3"
       width="172"
       height="172">
      <path
         d="M 86.98,174.537 C 39.6646,174.537 1.41992,136.228 1.41992,88.8333 1.41992,41.4387 39.6646,3.13 86.98,3.13 c 47.315,0 85.56,38.3087 85.56,85.7033 0,47.3947 -38.245,85.7037 -85.56,85.7037 z"
         fill="#ffffff"
         id="path144" />
    </mask>
  </defs>
  <g
     aria-label="Proxima Nova Normal"
     id="text2233"
     style="font-size:70px;font-family:'Proxima Nova';-inkscape-font-specification:'Proxima Nova';fill:#444854;stroke:#e1af8a;stroke-width:0;stroke-linecap:square;stroke-miterlimit:12;paint-order:stroke fill markers">
    <path
       d="m 874.47874,125.58303 h -5.81 V 78.893031 h 18.76 q 6.79,0 10.71,4.06 3.92,4.06 3.92,10.01 0,5.95 -3.99,10.009999 -3.92,4.06 -10.64,4.06 h -12.95 z m 12.25,-23.73 q 4.13,0 6.72,-2.449999 2.59,-2.52 2.59,-6.44 0,-3.92 -2.59,-6.37 -2.59,-2.52 -6.72,-2.52 h -12.25 v 17.779999 z"
       id="path2224" />
    <path
       d="m 914.79873,125.58303 h -5.25 V 91.773031 h 5.25 v 5.46 q 4.69,-6.16 11.27,-6.16 v 5.39 q -0.98,-0.21 -2.1,-0.21 -2.38,0 -5.18,1.68 -2.8,1.68 -3.99,3.709999 z"
       id="path2226" />
    <path
       d="m 959.52873,121.31303 q -4.55,5.11 -12.11,5.11 -7.56,0 -12.18,-5.11 -4.55,-5.11 -4.55,-12.67 0,-7.56 4.55,-12.599999 4.62,-5.11 12.18,-5.11 7.56,0 12.11,5.11 4.62,5.039999 4.62,12.599999 0,7.56 -4.62,12.67 z m -20.37,-3.36 q 3.08,3.78 8.26,3.78 5.18,0 8.19,-3.78 3.01,-3.85 3.01,-9.31 0,-5.46 -3.01,-9.239999 -3.01,-3.78 -8.19,-3.78 -5.18,0 -8.26,3.85 -3.01,3.779999 -3.01,9.169999 0,5.46 3.01,9.31 z"
       id="path2228" />
    <path
       d="m 998.09859,125.58303 h -6.09 l -10.15,-13.86 -10.15,13.86 h -6.02 l 12.95,-17.36 -12.25,-16.449999 h 6.09 l 9.38,12.879999 9.38,-12.879999 h 6.09 l -12.25,16.449999 z"
       id="path2230" />
    <path
       d="m 1006.7085,86.943031 q -1.4,0 -2.45,-0.98 -1.05,-1.05 -1.05,-2.52 0,-1.47 1.05,-2.52 1.05,-1.05 2.45,-1.05 1.47,0 2.52,1.05 1.05,1.05 1.05,2.52 0,1.47 -1.05,2.52 -1.05,0.98 -2.52,0.98 z m 2.66,38.639999 h -5.25 V 91.773031 h 5.25 z"
       id="path2232" />
    <path
       d="m 1065.9283,125.58303 h -5.25 v -22.96 q 0,-6.999999 -6.23,-6.999999 -2.52,0 -5.04,1.54 -2.52,1.54 -3.92,3.639999 v 24.78 h -5.25 v -22.96 q 0,-6.999999 -6.23,-6.999999 -2.45,0 -4.97,1.54 -2.45,1.54 -3.92,3.709999 v 24.71 h -5.25 V 91.773031 h 5.25 v 4.9 q 1.26,-1.96 4.41,-3.85 3.15,-1.89 6.51,-1.89 3.71,0 6.02,1.75 2.31,1.75 3.08,4.55 1.54,-2.52 4.69,-4.41 3.15,-1.89 6.65,-1.89 9.45,0 9.45,10.219999 z"
       id="path2234" />
    <path
       d="m 1102.8183,125.58303 h -5.25 v -3.85 q -4.27,4.69 -11.2,4.69 -4.69,0 -8.26,-3.01 -3.57,-3.01 -3.57,-8.19 0,-5.32 3.5,-8.19 3.57,-2.94 8.33,-2.94 7.21,0 11.2,4.62 v -6.09 q 0,-3.359999 -2.38,-5.249999 -2.38,-1.89 -6.16,-1.89 -5.95,0 -10.36,4.689999 l -2.45,-3.639999 q 5.39,-5.6 13.51,-5.6 5.81,0 9.45,2.8 3.64,2.8 3.64,8.609999 z m -14.56,-2.94 q 6.3,0 9.31,-4.2 v -6.37 q -3.01,-4.2 -9.31,-4.2 -3.64,0 -6.02,2.1 -2.31,2.03 -2.31,5.32 0,3.22 2.31,5.32 2.38,2.03 6.02,2.03 z"
       id="path2236" />
    <path
       d="m 1170.2281,125.58303 h -5.6 l -27.23,-37.239999 v 37.239999 h -5.81 V 78.893031 h 5.95 l 26.88,36.469999 V 78.893031 h 5.81 z"
       id="path2238" />
    <path
       d="m 1207.818,121.31303 q -4.55,5.11 -12.11,5.11 -7.56,0 -12.18,-5.11 -4.55,-5.11 -4.55,-12.67 0,-7.56 4.55,-12.599999 4.62,-5.11 12.18,-5.11 7.56,0 12.11,5.11 4.62,5.039999 4.62,12.599999 0,7.56 -4.62,12.67 z m -20.37,-3.36 q 3.08,3.78 8.26,3.78 5.18,0 8.19,-3.78 3.01,-3.85 3.01,-9.31 0,-5.46 -3.01,-9.239999 -3.01,-3.78 -8.19,-3.78 -5.18,0 -8.26,3.85 -3.01,3.779999 -3.01,9.169999 0,5.46 3.01,9.31 z"
       id="path2240" />
    <path
       d="m 1235.7479,125.58303 h -5.74 l -14.07,-33.809999 h 5.67 l 11.27,27.719999 11.2,-27.719999 h 5.74 z"
       id="path2242" />
    <path
       d="m 1281.6679,125.58303 h -5.25 v -3.85 q -4.27,4.69 -11.2,4.69 -4.69,0 -8.26,-3.01 -3.57,-3.01 -3.57,-8.19 0,-5.32 3.5,-8.19 3.57,-2.94 8.33,-2.94 7.21,0 11.2,4.62 v -6.09 q 0,-3.359999 -2.38,-5.249999 -2.38,-1.89 -6.16,-1.89 -5.95,0 -10.36,4.689999 l -2.45,-3.639999 q 5.39,-5.6 13.51,-5.6 5.81,0 9.45,2.8 3.64,2.8 3.64,8.609999 z m -14.56,-2.94 q 6.3,0 9.31,-4.2 v -6.37 q -3.01,-4.2 -9.31,-4.2 -3.64,0 -6.02,2.1 -2.31,2.03 -2.31,5.32 0,3.22 2.31,5.32 2.38,2.03 6.02,2.03 z"
       id="path2244" />
    <path
       d="m 1349.0777,125.58303 h -5.6 l -27.23,-37.239999 v 37.239999 h -5.81 V 78.893031 h 5.95 l 26.88,36.469999 V 78.893031 h 5.81 z"
       id="path2246" />
    <path
       d="m 1386.6676,121.31303 q -4.55,5.11 -12.11,5.11 -7.56,0 -12.18,-5.11 -4.55,-5.11 -4.55,-12.67 0,-7.56 4.55,-12.599999 4.62,-5.11 12.18,-5.11 7.56,0 12.11,5.11 4.62,5.039999 4.62,12.599999 0,7.56 -4.62,12.67 z m -20.37,-3.36 q 3.08,3.78 8.26,3.78 5.18,0 8.19,-3.78 3.01,-3.85 3.01,-9.31 0,-5.46 -3.01,-9.239999 -3.01,-3.78 -8.19,-3.78 -5.18,0 -8.26,3.85 -3.01,3.779999 -3.01,9.169999 0,5.46 3.01,9.31 z"
       id="path2248" />
    <path
       d="m 1405.0775,125.58303 h -5.25 V 91.773031 h 5.25 v 5.46 q 4.69,-6.16 11.27,-6.16 v 5.39 q -0.98,-0.21 -2.1,-0.21 -2.38,0 -5.18,1.68 -2.8,1.68 -3.99,3.709999 z"
       id="path2250" />
    <path
       d="m 1468.9875,125.58303 h -5.25 v -22.96 q 0,-6.999999 -6.23,-6.999999 -2.52,0 -5.04,1.54 -2.52,1.54 -3.92,3.639999 v 24.78 h -5.25 v -22.96 q 0,-6.999999 -6.23,-6.999999 -2.45,0 -4.97,1.54 -2.45,1.54 -3.92,3.709999 v 24.71 h -5.25 V 91.773031 h 5.25 v 4.9 q 1.26,-1.96 4.41,-3.85 3.15,-1.89 6.51,-1.89 3.71,0 6.02,1.75 2.31,1.75 3.08,4.55 1.54,-2.52 4.69,-4.41 3.15,-1.89 6.65,-1.89 9.45,0 9.45,10.219999 z"
       id="path2252" />
    <path
       d="m 1505.8774,125.58303 h -5.25 v -3.85 q -4.27,4.69 -11.2,4.69 -4.69,0 -8.26,-3.01 -3.57,-3.01 -3.57,-8.19 0,-5.32 3.5,-8.19 3.57,-2.94 8.33,-2.94 7.21,0 11.2,4.62 v -6.09 q 0,-3.359999 -2.38,-5.249999 -2.38,-1.89 -6.16,-1.89 -5.95,0 -10.36,4.689999 l -2.45,-3.639999 q 5.39,-5.6 13.51,-5.6 5.81,0 9.45,2.8 3.64,2.8 3.64,8.609999 z m -14.56,-2.94 q 6.3,0 9.31,-4.2 v -6.37 q -3.01,-4.2 -9.31,-4.2 -3.64,0 -6.02,2.1 -2.31,2.03 -2.31,5.32 0,3.22 2.31,5.32 2.38,2.03 6.02,2.03 z"
       id="path2254" />
    <path
       d="m 1521.6273,125.58303 h -5.25 V 78.893031 h 5.25 z"
       id="path2256" />
  </g>
  <g
     aria-label="Proxima Nova Semi-Bold"
     id="text483"
     style="font-size:70px;font-family:'Proxima Nova';-inkscape-font-specification:'Proxima Nova';fill:#444854;stroke:#e1af8a;stroke-width:0;stroke-linecap:square;stroke-miterlimit:12;paint-order:stroke fill markers">
    <path
       d="m 876.85873,245.58301 h -8.19 v -46.69 h 20.51 q 7.07,0 11.13,4.2 4.13,4.2 4.13,10.43 0,6.16 -4.13,10.43 -4.06,4.2 -11.13,4.2 h -12.32 z m 11.2,-24.64 q 3.5,0 5.74,-2.03 2.24,-2.03 2.24,-5.39 0,-3.36 -2.24,-5.39 -2.24,-2.03 -5.74,-2.03 h -11.2 v 14.84 z"
       style="font-weight:600;-inkscape-font-specification:'Proxima Nova Semi-Bold'"
       id="path2183" />
    <path
       d="m 918.36872,245.58301 h -7.35 v -33.81 h 7.35 v 4.97 q 1.96,-2.52 4.9,-4.13 2.94,-1.61 6.09,-1.61 v 7.28 q -0.98,-0.21 -2.31,-0.21 -2.31,0 -4.97,1.4 -2.59,1.33 -3.71,3.08 z"
       style="font-weight:600;-inkscape-font-specification:'Proxima Nova Semi-Bold'"
       id="path2185" />
    <path
       d="m 950.56859,246.42301 q -7.84,0 -12.6,-5.11 -4.76,-5.18 -4.76,-12.67 0,-7.49 4.76,-12.6 4.76,-5.11 12.6,-5.11 7.91,0 12.67,5.11 4.76,5.11 4.76,12.6 0,7.56 -4.76,12.67 -4.76,5.11 -12.67,5.11 z m 0,-6.51 q 4.55,0 7.14,-3.22 2.66,-3.29 2.66,-8.05 0,-4.69 -2.66,-7.91 -2.59,-3.29 -7.14,-3.29 -4.48,0 -7.14,3.29 -2.59,3.22 -2.59,7.91 0,4.76 2.59,8.05 2.66,3.22 7.14,3.22 z"
       style="font-weight:600;-inkscape-font-specification:'Proxima Nova Semi-Bold'"
       id="path2187" />
    <path
       d="m 1002.5785,245.58301 h -8.26003 l -8.75,-12.46 -8.82,12.46 h -8.19 l 12.39,-17.36 -11.69,-16.45 h 8.26 l 8.05,11.48 7.98,-11.48 h 8.26003 l -11.69003,16.45 z"
       style="font-weight:600;-inkscape-font-specification:'Proxima Nova Semi-Bold'"
       id="path2189" />
    <path
       d="m 1011.3283,207.64301 q -1.82,0 -3.22,-1.33 -1.33,-1.33 -1.33,-3.22 0,-1.89 1.33,-3.22 1.4,-1.33 3.22,-1.33 1.89,0 3.22,1.33 1.33,1.33 1.33,3.22 0,1.89 -1.33,3.22 -1.33,1.33 -3.22,1.33 z m 3.71,37.94 h -7.35 v -33.81 h 7.35 z"
       style="font-weight:600;-inkscape-font-specification:'Proxima Nova Semi-Bold'"
       id="path2191" />
    <path
       d="m 1073.3483,245.58301 h -7.35 v -22.05 q 0,-6.09 -5.53,-6.09 -2.31,0 -4.48,1.33 -2.17,1.33 -3.36,3.15 v 23.66 h -7.35 v -22.05 q 0,-6.09 -5.6,-6.09 -2.24,0 -4.41,1.33 -2.1,1.33 -3.36,3.22 v 23.59 h -7.35 v -33.81 h 7.35 v 4.62 q 1.26,-1.89 4.34,-3.64 3.15,-1.82 6.65,-1.82 7.35,0 9.24,6.23 1.61,-2.52 4.76,-4.34 3.15,-1.89 6.72,-1.89 9.73,0 9.73,10.22 z"
       style="font-weight:600;-inkscape-font-specification:'Proxima Nova Semi-Bold'"
       id="path2193" />
    <path
       d="m 1110.8682,245.58301 h -7.35 v -3.64 q -3.92,4.48 -10.92,4.48 -4.62,0 -8.19,-2.94 -3.57,-3.01 -3.57,-8.26 0,-5.39 3.5,-8.19 3.57,-2.8 8.26,-2.8 7.21,0 10.92,4.34 v -5.04 q 0,-2.94 -2.17,-4.62 -2.17,-1.68 -5.74,-1.68 -5.67,0 -10.01,4.27 l -3.01,-5.11 q 5.74,-5.46 14.21,-5.46 6.23,0 10.15,2.94 3.92,2.94 3.92,9.31 z m -15.4,-4.2 q 5.53,0 8.05,-3.5 v -5.11 q -2.52,-3.5 -8.05,-3.5 -3.15,0 -5.18,1.68 -2.03,1.68 -2.03,4.41 0,2.73 2.03,4.41 2.03,1.61 5.18,1.61 z"
       style="font-weight:600;-inkscape-font-specification:'Proxima Nova Semi-Bold'"
       id="path2195" />
    <path
       d="m 1179.0481,245.58301 h -7.91 l -24.36,-33.32 v 33.32 h -8.19 v -46.69 h 8.4 l 23.87,32.41 v -32.41 h 8.19 z"
       style="font-weight:600;-inkscape-font-specification:'Proxima Nova Semi-Bold'"
       id="path2197" />
    <path
       d="m 1204.0381,246.42301 q -7.84,0 -12.6,-5.11 -4.76,-5.18 -4.76,-12.67 0,-7.49 4.76,-12.6 4.76,-5.11 12.6,-5.11 7.91,0 12.67,5.11 4.76,5.11 4.76,12.6 0,7.56 -4.76,12.67 -4.76,5.11 -12.67,5.11 z m 0,-6.51 q 4.55,0 7.14,-3.22 2.66,-3.29 2.66,-8.05 0,-4.69 -2.66,-7.91 -2.59,-3.29 -7.14,-3.29 -4.48,0 -7.14,3.29 -2.59,3.22 -2.59,7.91 0,4.76 2.59,8.05 2.66,3.22 7.14,3.22 z"
       style="font-weight:600;-inkscape-font-specification:'Proxima Nova Semi-Bold'"
       id="path2199" />
    <path
       d="m 1245.6881,245.58301 h -7.91 l -13.79,-33.81 h 7.84 l 9.87,25.34 9.87,-25.34 h 7.91 z"
       style="font-weight:600;-inkscape-font-specification:'Proxima Nova Semi-Bold'"
       id="path2201" />
    <path
       d="m 1292.098,245.58301 h -7.35 v -3.64 q -3.92,4.48 -10.92,4.48 -4.62,0 -8.19,-2.94 -3.57,-3.01 -3.57,-8.26 0,-5.39 3.5,-8.19 3.57,-2.8 8.26,-2.8 7.21,0 10.92,4.34 v -5.04 q 0,-2.94 -2.17,-4.62 -2.17,-1.68 -5.74,-1.68 -5.67,0 -10.01,4.27 l -3.01,-5.11 q 5.74,-5.46 14.21,-5.46 6.23,0 10.15,2.94 3.92,2.94 3.92,9.31 z m -15.4,-4.2 q 5.53,0 8.05,-3.5 v -5.11 q -2.52,-3.5 -8.05,-3.5 -3.15,0 -5.18,1.68 -2.03,1.68 -2.03,4.41 0,2.73 2.03,4.41 2.03,1.61 5.18,1.61 z"
       style="font-weight:600;-inkscape-font-specification:'Proxima Nova Semi-Bold'"
       id="path2203" />
    <path
       d="m 1335.7779,246.42301 q -12.04,0 -18.97,-7.42 l 4.55,-6.3 q 6.02,6.44 14.77,6.44 4.69,0 7,-1.89 2.38,-1.89 2.38,-4.48 0,-2.66 -2.8,-4.2 -2.8,-1.61 -6.79,-2.52 -3.99,-0.91 -8.05,-2.17 -3.99,-1.26 -6.79,-4.27 -2.8,-3.01 -2.8,-7.77 0,-5.88 4.69,-9.73 4.76,-3.92 12.32,-3.92 10.78,0 17.5,6.51 l -4.69,6.09 q -5.32,-5.32 -13.51,-5.32 -3.64,0 -5.81,1.61 -2.1,1.54 -2.1,4.2 0,1.75 1.47,2.94 1.54,1.19 3.92,1.96 2.38,0.7 5.25,1.4 2.94,0.7 5.81,1.75 2.94,0.98 5.32,2.45 2.38,1.47 3.85,4.06 1.54,2.59 1.54,6.16 0,6.3 -4.55,10.36 -4.55,4.06 -13.51,4.06 z"
       style="font-weight:600;-inkscape-font-specification:'Proxima Nova Semi-Bold'"
       id="path2205" />
    <path
       d="m 1376.7979,246.42301 q -7.7,0 -12.74,-4.9 -4.97,-4.97 -4.97,-12.88 0,-7.42 4.83,-12.53 4.9,-5.18 12.32,-5.18 7.49,0 12.04,5.18 4.62,5.18 4.62,13.23 v 1.75 h -26.11 q 0.42,3.99 3.29,6.65 2.87,2.66 7.49,2.66 2.59,0 5.18,-0.98 2.66,-0.98 4.41,-2.73 l 3.36,4.83 q -5.11,4.9 -13.72,4.9 z m 8.96,-20.51 q -0.14,-3.5 -2.59,-6.23 -2.38,-2.73 -6.93,-2.73 -4.34,0 -6.79,2.73 -2.45,2.66 -2.73,6.23 z"
       style="font-weight:600;-inkscape-font-specification:'Proxima Nova Semi-Bold'"
       id="path2207" />
    <path
       d="m 1448.9678,245.58301 h -7.35 v -22.05 q 0,-6.09 -5.53,-6.09 -2.31,0 -4.48,1.33 -2.17,1.33 -3.36,3.15 v 23.66 h -7.35 v -22.05 q 0,-6.09 -5.6,-6.09 -2.24,0 -4.41,1.33 -2.1,1.33 -3.36,3.22 v 23.59 h -7.35 v -33.81 h 7.35 v 4.62 q 1.26,-1.89 4.34,-3.64 3.15,-1.82 6.65,-1.82 7.35,0 9.24,6.23 1.61,-2.52 4.76,-4.34 3.15,-1.89 6.72,-1.89 9.73,0 9.73,10.22 z"
       style="font-weight:600;-inkscape-font-specification:'Proxima Nova Semi-Bold'"
       id="path2209" />
    <path
       d="m 1462.1277,207.64301 q -1.82,0 -3.22,-1.33 -1.33,-1.33 -1.33,-3.22 0,-1.89 1.33,-3.22 1.4,-1.33 3.22,-1.33 1.89,0 3.22,1.33 1.33,1.33 1.33,3.22 0,1.89 -1.33,3.22 -1.33,1.33 -3.22,1.33 z m 3.71,37.94 h -7.35 v -33.81 h 7.35 z"
       style="font-weight:600;-inkscape-font-specification:'Proxima Nova Semi-Bold'"
       id="path2211" />
    <path
       d="m 1489.4977,231.79301 h -16.8 v -6.3 h 16.8 z"
       style="font-weight:600;-inkscape-font-specification:'Proxima Nova Semi-Bold'"
       id="path2213" />
    <path
       d="m 1520.1576,245.58301 h -23.59 v -46.69 h 22.96 q 6.23,0 9.73,3.43 3.57,3.36 3.57,8.47 0,4.2 -2.38,7.14 -2.31,2.87 -5.74,3.57 3.78,0.56 6.37,3.92 2.66,3.29 2.66,7.56 0,5.6 -3.64,9.1 -3.57,3.5 -9.94,3.5 z m -2.31,-27.37 q 3.08,0 4.83,-1.68 1.75,-1.68 1.75,-4.34 0,-2.73 -1.75,-4.41 -1.75,-1.68 -4.83,-1.68 h -13.09 v 12.11 z m 0.35,20.16 q 3.36,0 5.25,-1.68 1.89,-1.75 1.89,-4.83 0,-2.73 -1.89,-4.55 -1.89,-1.89 -5.25,-1.89 h -13.44 v 12.95 z"
       style="font-weight:600;-inkscape-font-specification:'Proxima Nova Semi-Bold'"
       id="path2215" />
    <path
       d="m 1556.9775,246.42301 q -7.84,0 -12.6,-5.11 -4.76,-5.18 -4.76,-12.67 0,-7.49 4.76,-12.6 4.76,-5.11 12.6,-5.11 7.91,0 12.67,5.11 4.76,5.11 4.76,12.6 0,7.56 -4.76,12.67 -4.76,5.11 -12.67,5.11 z m 0,-6.51 q 4.55,0 7.14,-3.22 2.66,-3.29 2.66,-8.05 0,-4.69 -2.66,-7.91 -2.59,-3.29 -7.14,-3.29 -4.48,0 -7.14,3.29 -2.59,3.22 -2.59,7.91 0,4.76 2.59,8.05 2.66,3.22 7.14,3.22 z"
       style="font-weight:600;-inkscape-font-specification:'Proxima Nova Semi-Bold'"
       id="path2217" />
    <path
       d="m 1589.1775,245.58301 h -7.35 v -46.69 h 7.35 z"
       style="font-weight:600;-inkscape-font-specification:'Proxima Nova Semi-Bold'"
       id="path2219" />
    <path
       d="m 1629.8475,245.58301 h -7.35 v -4.62 q -4.2,5.46 -10.85,5.46 -6.65,0 -10.85,-4.76 -4.2,-4.76 -4.2,-12.95 0,-8.12 4.2,-12.95 4.2,-4.83 10.85,-4.83 6.65,0 10.85,5.53 v -17.57 h 7.35 z m -16.1,-5.67 q 2.59,0 5.04,-1.26 2.45,-1.26 3.71,-3.22 v -13.44 q -1.26,-1.96 -3.71,-3.22 -2.45,-1.33 -5.04,-1.33 -4.34,0 -6.93,3.15 -2.59,3.15 -2.59,8.12 0,4.97 2.59,8.12 2.59,3.08 6.93,3.08 z"
       style="font-weight:600;-inkscape-font-specification:'Proxima Nova Semi-Bold'"
       id="path2221" />
  </g>
  <g
     aria-label="Proxima Nova Ultra-Bold"
     id="text487"
     style="font-size:70px;font-family:'Proxima Nova';-inkscape-font-specification:'Proxima Nova';fill:#444854;stroke:#e1af8a;stroke-width:0;stroke-linecap:square;stroke-miterlimit:12;paint-order:stroke fill markers">
    <path
       d="m 880.70875,365.58301 h -12.04 v -46.69 h 23.38 q 7.56,0 11.9,4.48 4.34,4.41 4.34,11.06 0,6.58 -4.34,11.06 -4.34,4.41 -11.9,4.41 h -11.34 z m 9.73,-26.18 q 2.45,0 3.99,-1.33 1.61,-1.33 1.61,-3.64 0,-2.38 -1.61,-3.71 -1.54,-1.33 -3.99,-1.33 h -9.73 v 10.01 z"
       style="font-weight:800;-inkscape-font-specification:'Proxima Nova Ultra-Bold'"
       id="path2140" />
    <path
       d="m 924.17873,365.58301 h -10.78 v -33.81 h 10.78 v 4.13 q 1.75,-2.1 4.69,-3.57 2.94,-1.47 5.88,-1.47 v 10.36 q -1.26,-0.28 -2.66,-0.28 -2.24,0 -4.62,0.91 -2.31,0.84 -3.29,2.17 z"
       style="font-weight:800;-inkscape-font-specification:'Proxima Nova Ultra-Bold'"
       id="path2142" />
    <path
       d="m 955.81859,366.42301 q -8.33,0 -13.37,-5.18 -5.04,-5.18 -5.04,-12.6 0,-7.42 5.04,-12.53 5.04,-5.18 13.37,-5.18 8.4,0 13.44,5.18 5.04,5.11 5.04,12.53 0,7.42 -5.04,12.6 -5.04,5.18 -13.44,5.18 z m -5.39,-11.83 q 1.96,2.31 5.39,2.31 3.43,0 5.39,-2.31 2.03,-2.38 2.03,-5.95 0,-3.5 -2.03,-5.81 -1.96,-2.38 -5.39,-2.38 -3.43,0 -5.39,2.38 -1.89,2.31 -1.89,5.81 0,3.57 1.89,5.95 z"
       style="font-weight:800;-inkscape-font-specification:'Proxima Nova Ultra-Bold'"
       id="path2144" />
    <path
       d="m 1010.0684,365.58301 h -11.83004 l -6.51,-10.22 -6.58,10.22 h -11.76 l 11.55,-17.36 -10.85,-16.45 h 11.83 l 5.81,9.17 5.74,-9.17 h 11.83004 l -10.78004,16.45 z"
       style="font-weight:800;-inkscape-font-specification:'Proxima Nova Ultra-Bold'"
       id="path2146" />
    <path
       d="m 1023.2983,326.94301 q -1.75,1.82 -4.34,1.82 -2.59,0 -4.41,-1.82 -1.75,-1.82 -1.75,-4.41 0,-2.59 1.75,-4.34 1.82,-1.82 4.41,-1.82 2.59,0 4.34,1.82 1.82,1.75 1.82,4.34 0,2.59 -1.82,4.41 z m 1.05,38.64 h -10.78 v -33.81 h 10.78 z"
       style="font-weight:800;-inkscape-font-specification:'Proxima Nova Ultra-Bold'"
       id="path2148" />
    <path
       d="m 1085.5282,365.58301 h -10.71 v -20.58 q 0,-4.55 -4.48,-4.55 -3.64,0 -6.09,3.29 v 21.84 h -10.78 v -20.58 q 0,-4.55 -4.48,-4.55 -3.36,0 -6.02,3.29 v 21.84 h -10.78 v -33.81 h 10.78 v 4.13 q 1.33,-1.75 4.41,-3.36 3.08,-1.61 6.72,-1.61 7.49,0 9.59,6.02 1.61,-2.45 4.76,-4.2 3.22,-1.82 6.93,-1.82 4.83,0 7.49,2.59 2.66,2.52 2.66,7.56 z"
       style="font-weight:800;-inkscape-font-specification:'Proxima Nova Ultra-Bold'"
       id="path2150" />
    <path
       d="m 1124.1681,365.58301 h -10.78 v -3.36 q -1.61,1.89 -4.48,3.08 -2.8,1.12 -6.02,1.12 -4.41,0 -8.05,-2.87 -3.57,-2.94 -3.57,-8.26 0,-5.6 3.5,-8.19 3.5,-2.66 8.12,-2.66 7.35,0 10.5,3.92 v -4.06 q 0,-2.24 -1.82,-3.57 -1.82,-1.33 -5.04,-1.33 -5.39,0 -9.59,3.57 l -3.85,-6.79 q 6.16,-5.25 15.33,-5.25 3.22,0 5.88,0.7 2.73,0.63 4.97,2.1 2.31,1.47 3.57,4.2 1.33,2.73 1.33,6.51 z m -16.8,-6.23 q 4.34,0 6.02,-2.45 v -3.01 q -1.75,-2.38 -6.02,-2.38 -2.31,0 -3.85,1.05 -1.54,0.98 -1.54,2.87 0,1.89 1.54,2.94 1.54,0.98 3.85,0.98 z"
       style="font-weight:800;-inkscape-font-specification:'Proxima Nova Ultra-Bold'"
       id="path2152" />
    <path
       d="m 1193.6079,365.58301 h -11.62 l -19.74,-27.02 v 27.02 h -12.04 v -46.69 h 12.39 l 18.9,25.69 v -25.69 h 12.11 z"
       style="font-weight:800;-inkscape-font-specification:'Proxima Nova Ultra-Bold'"
       id="path2154" />
    <path
       d="m 1217.8979,366.42301 q -8.33,0 -13.37,-5.18 -5.04,-5.18 -5.04,-12.6 0,-7.42 5.04,-12.53 5.04,-5.18 13.37,-5.18 8.4,0 13.44,5.18 5.04,5.11 5.04,12.53 0,7.42 -5.04,12.6 -5.04,5.18 -13.44,5.18 z m -5.39,-11.83 q 1.96,2.31 5.39,2.31 3.43,0 5.39,-2.31 2.03,-2.38 2.03,-5.95 0,-3.5 -2.03,-5.81 -1.96,-2.38 -5.39,-2.38 -3.43,0 -5.39,2.38 -1.89,2.31 -1.89,5.81 0,3.57 1.89,5.95 z"
       style="font-weight:800;-inkscape-font-specification:'Proxima Nova Ultra-Bold'"
       id="path2156" />
    <path
       d="m 1262.2078,365.58301 h -11.48 l -13.3,-33.81 h 11.34 l 7.63,21.42 7.7,-21.42 h 11.41 z"
       style="font-weight:800;-inkscape-font-specification:'Proxima Nova Ultra-Bold'"
       id="path2158" />
    <path
       d="m 1309.4576,365.58301 h -10.78 v -3.36 q -1.61,1.89 -4.48,3.08 -2.8,1.12 -6.02,1.12 -4.41,0 -8.05,-2.87 -3.57,-2.94 -3.57,-8.26 0,-5.6 3.5,-8.19 3.5,-2.66 8.12,-2.66 7.35,0 10.5,3.92 v -4.06 q 0,-2.24 -1.82,-3.57 -1.82,-1.33 -5.04,-1.33 -5.39,0 -9.59,3.57 l -3.85,-6.79 q 6.16,-5.25 15.33,-5.25 3.22,0 5.88,0.7 2.73,0.63 4.97,2.1 2.31,1.47 3.57,4.2 1.33,2.73 1.33,6.51 z m -16.8,-6.23 q 4.34,0 6.02,-2.45 v -3.01 q -1.75,-2.38 -6.02,-2.38 -2.31,0 -3.85,1.05 -1.54,0.98 -1.54,2.87 0,1.89 1.54,2.94 1.54,0.98 3.85,0.98 z"
       style="font-weight:800;-inkscape-font-specification:'Proxima Nova Ultra-Bold'"
       id="path2160" />
    <path
       d="m 1357.6175,366.42301 q -10.92,0 -16.52,-5.39 -5.6,-5.39 -5.6,-14.35 v -27.79 h 12.25 v 27.37 q 0,4.27 2.52,6.93 2.59,2.59 7.35,2.59 4.69,0 7.21,-2.59 2.59,-2.66 2.59,-6.93 v -27.37 h 12.18 v 27.72 q 0,9.03 -5.6,14.42 -5.53,5.39 -16.38,5.39 z"
       style="font-weight:800;-inkscape-font-specification:'Proxima Nova Ultra-Bold'"
       id="path2162" />
    <path
       d="m 1398.4973,365.58301 h -10.78 v -46.69 h 10.78 z"
       style="font-weight:800;-inkscape-font-specification:'Proxima Nova Ultra-Bold'"
       id="path2164" />
    <path
       d="m 1419.1472,366.42301 q -5.18,0 -7.91,-2.52 -2.66,-2.52 -2.66,-7.42 v -15.33 h -5.6 v -9.38 h 5.6 v -9.24 h 10.71 v 9.24 h 6.86 v 9.38 h -6.86 v 12.32 q 0,1.54 0.77,2.52 0.84,0.91 2.24,0.91 2.03,0 2.73,-0.84 l 2.1,8.12 q -2.38,2.24 -7.98,2.24 z"
       style="font-weight:800;-inkscape-font-specification:'Proxima Nova Ultra-Bold'"
       id="path2166" />
    <path
       d="m 1442.3171,365.58301 h -10.78 v -33.81 h 10.78 v 4.13 q 1.75,-2.1 4.69,-3.57 2.94,-1.47 5.88,-1.47 v 10.36 q -1.26,-0.28 -2.66,-0.28 -2.24,0 -4.62,0.91 -2.31,0.84 -3.29,2.17 z"
       style="font-weight:800;-inkscape-font-specification:'Proxima Nova Ultra-Bold'"
       id="path2168" />
    <path
       d="m 1488.517,365.58301 h -10.78 v -3.36 q -1.61,1.89 -4.48,3.08 -2.8,1.12 -6.02,1.12 -4.41,0 -8.05,-2.87 -3.57,-2.94 -3.57,-8.26 0,-5.6 3.5,-8.19 3.5,-2.66 8.12,-2.66 7.35,0 10.5,3.92 v -4.06 q 0,-2.24 -1.82,-3.57 -1.82,-1.33 -5.04,-1.33 -5.39,0 -9.59,3.57 l -3.85,-6.79 q 6.16,-5.25 15.33,-5.25 3.22,0 5.88,0.7 2.73,0.63 4.97,2.1 2.31,1.47 3.57,4.2 1.33,2.73 1.33,6.51 z m -16.8,-6.23 q 4.34,0 6.02,-2.45 v -3.01 q -1.75,-2.38 -6.02,-2.38 -2.31,0 -3.85,1.05 -1.54,0.98 -1.54,2.87 0,1.89 1.54,2.94 1.54,0.98 3.85,0.98 z"
       style="font-weight:800;-inkscape-font-specification:'Proxima Nova Ultra-Bold'"
       id="path2170" />
    <path
       d="m 1511.337,353.12301 h -16.8 v -9.03 h 16.8 z"
       style="font-weight:800;-inkscape-font-specification:'Proxima Nova Ultra-Bold'"
       id="path2172" />
    <path
       d="m 1544.9369,365.58301 h -27.3 v -46.69 h 26.46 q 6.51,0 10.08,3.57 3.57,3.5 3.57,8.33 0,4.2 -2.31,7.07 -2.24,2.87 -5.67,3.64 3.78,0.56 6.3,3.85 2.59,3.22 2.59,7.56 0,5.39 -3.57,9.03 -3.57,3.64 -10.15,3.64 z m -3.57,-28.77 q 1.82,0 2.94,-1.05 1.19,-1.12 1.19,-2.87 0,-1.68 -1.19,-2.73 -1.12,-1.12 -2.94,-1.12 h -11.69 v 7.77 z m 0.42,18.62 q 2.17,0 3.36,-1.12 1.26,-1.19 1.26,-3.08 0,-1.82 -1.26,-3.01 -1.19,-1.19 -3.36,-1.19 h -12.11 v 8.4 z"
       style="font-weight:800;-inkscape-font-specification:'Proxima Nova Ultra-Bold'"
       id="path2174" />
    <path
       d="m 1581.1267,366.42301 q -8.33,0 -13.37,-5.18 -5.04,-5.18 -5.04,-12.6 0,-7.42 5.04,-12.53 5.04,-5.18 13.37,-5.18 8.4,0 13.44,5.18 5.04,5.11 5.04,12.53 0,7.42 -5.04,12.6 -5.04,5.18 -13.44,5.18 z m -5.39,-11.83 q 1.96,2.31 5.39,2.31 3.43,0 5.39,-2.31 2.03,-2.38 2.03,-5.95 0,-3.5 -2.03,-5.81 -1.96,-2.38 -5.39,-2.38 -3.43,0 -5.39,2.38 -1.89,2.31 -1.89,5.81 0,3.57 1.89,5.95 z"
       style="font-weight:800;-inkscape-font-specification:'Proxima Nova Ultra-Bold'"
       id="path2176" />
    <path
       d="m 1616.0566,365.58301 h -10.78 v -46.69 h 10.78 z"
       style="font-weight:800;-inkscape-font-specification:'Proxima Nova Ultra-Bold'"
       id="path2178" />
    <path
       d="m 1657.3566,365.58301 h -10.71 v -3.92 q -4.13,4.76 -10.01,4.76 -6.51,0 -10.78,-4.69 -4.2,-4.76 -4.2,-13.09 0,-8.12 4.2,-12.88 4.27,-4.83 10.78,-4.83 6.09,0 10.01,4.83 v -16.87 h 10.71 z m -17.22,-8.68 q 1.75,0 3.57,-0.84 1.89,-0.91 2.94,-2.24 v -10.36 q -1.05,-1.33 -2.94,-2.17 -1.82,-0.84 -3.57,-0.84 -3.29,0 -5.39,2.24 -2.03,2.24 -2.03,5.95 0,3.71 2.1,6.02 2.1,2.24 5.32,2.24 z"
       style="font-weight:800;-inkscape-font-specification:'Proxima Nova Ultra-Bold'"
       id="path2180" />
  </g>
  <g
     aria-label="COLORS"
     id="text507"
     style="font-weight:800;font-size:32px;font-family:'Proxima Nova';-inkscape-font-specification:'Proxima Nova Ultra-Bold';fill:#444854;stroke:#e1af8a;stroke-width:0;stroke-linecap:square;stroke-miterlimit:12;paint-order:stroke fill markers">
    <path
       d="m 11.552,22.079999 q -4.96,0 -8.256,-3.072 Q -1.7166138e-8,15.903999 -1.7166138e-8,11.039999 -1.7166138e-8,6.1439991 3.264,3.0719991 6.56,-8.5449219e-7 11.552,-8.5449219e-7 q 6.432,0 9.312,5.72799995449219 l -4.736,2.24 q -0.544,-1.312 -1.824,-2.208 -1.248,-0.896 -2.752,-0.896 -2.592,0 -4.288,1.792 -1.664,1.76 -1.664,4.3839999 0,2.624 1.664,4.416 1.696,1.76 4.288,1.76 1.504,0 2.752,-0.896 1.28,-0.896 1.824,-2.208 l 4.736,2.24 q -1.216,2.432 -3.52,4.096 -2.272,1.632 -5.792,1.632 z"
       id="path2127" />
    <path
       d="m 41.727982,18.975999 q -3.232,3.104 -8.16,3.104 -4.928,0 -8.192,-3.104 -3.232,-3.104 -3.232,-7.936 0,-4.8319999 3.232,-7.9359999 3.264,-3.10399995449219 8.192,-3.10399995449219 4.928,0 8.16,3.10399995449219 3.232,3.104 3.232,7.9359999 0,4.832 -3.232,7.936 z m -8.16,-1.76 q 2.592,0 4.192,-1.76 1.6,-1.76 1.6,-4.416 0,-2.6559999 -1.6,-4.4159999 -1.6,-1.76 -4.192,-1.76 -2.624,0 -4.224,1.76 -1.6,1.76 -1.6,4.4159999 0,2.656 1.6,4.416 1.6,1.76 4.224,1.76 z"
       id="path2129" />
    <path
       d="m 61.823945,21.695999 h -14.08 V 0.35199915 h 5.504 V 16.895999 h 8.576 z"
       id="path2131" />
    <path
       d="m 82.399918,18.975999 q -3.232,3.104 -8.16,3.104 -4.928,0 -8.192,-3.104 -3.232,-3.104 -3.232,-7.936 0,-4.8319999 3.232,-7.9359999 3.264,-3.10399995449219 8.192,-3.10399995449219 4.928,0 8.16,3.10399995449219 3.232,3.104 3.232,7.9359999 0,4.832 -3.232,7.936 z m -8.16,-1.76 q 2.592,0 4.192,-1.76 1.6,-1.76 1.6,-4.416 0,-2.6559999 -1.6,-4.4159999 -1.6,-1.76 -4.192,-1.76 -2.624,0 -4.224,1.76 -1.6,1.76 -1.6,4.4159999 0,2.656 1.6,4.416 1.6,1.76 4.224,1.76 z"
       id="path2133" />
    <path
       d="m 106.62388,21.695999 h -6.304 l -3.583999,-7.168 h -2.816 v 7.168 h -5.504 V 0.35199915 h 10.688 q 3.455999,0 5.439999,2.01599995 1.984,2.016 1.984,5.088 0,2.5599999 -1.28,4.1919999 -1.248,1.6 -2.976,2.208 z M 98.271881,9.7279991 q 1.12,0 1.887999,-0.608 0.768,-0.608 0.768,-1.696 0,-1.056 -0.768,-1.664 -0.767999,-0.608 -1.887999,-0.608 h -4.352 v 4.576 z"
       id="path2135" />
    <path
       d="m 117.50386,22.079999 q -5.92,0 -9.472,-3.392 l 2.912,-4.128 q 2.816,2.816 6.816,2.816 1.408,0 2.208,-0.48 0.832,-0.512 0.832,-1.28 0,-0.672 -0.896,-1.088 -0.896,-0.448 -2.24,-0.64 -1.344,-0.224 -2.912,-0.672 -1.568,-0.48 -2.912,-1.088 -1.344,-0.64 -2.24,-2.016 -0.896,-1.3759999 -0.896,-3.2959999 0,-2.816 2.272,-4.8 2.304,-1.98399995 6.24,-1.98399995 5.216,0 8.672,2.97599995 l -3.008,3.936 q -2.688,-2.208 -6.24,-2.208 -2.304,0 -2.304,1.536 0,0.608 0.896,1.056 0.896,0.416 2.24,0.64 1.344,0.224 2.88,0.704 1.568,0.448 2.912,1.088 1.344,0.6399999 2.24,1.9839999 0.896,1.344 0.896,3.2 0,3.264 -2.336,5.216 -2.336,1.92 -6.56,1.92 z"
       id="path2137" />
  </g>
  <g
     aria-label="FONTS"
     id="text515"
     style="font-weight:800;font-size:32px;font-family:'Proxima Nova';-inkscape-font-specification:'Proxima Nova Ultra-Bold';fill:#444854;stroke:#e1af8a;stroke-width:0;stroke-linecap:square;stroke-miterlimit:12;paint-order:stroke fill markers">
    <path
       d="m 874.17272,21.695999 h -5.504 V 0.35199915 h 15.648 V 5.1519991 h -10.144 v 3.328 h 9.92 v 4.7999999 h -9.92 z"
       id="path2116" />
    <path
       d="m 905.78868,18.975999 q -3.232,3.104 -8.16,3.104 -4.928,0 -8.192,-3.104 -3.232,-3.104 -3.232,-7.936 0,-4.8319999 3.232,-7.9359999 3.264,-3.10399995449219 8.192,-3.10399995449219 4.928,0 8.16,3.10399995449219 3.232,3.104 3.232,7.9359999 0,4.832 -3.232,7.936 z m -8.16,-1.76 q 2.592,0 4.192,-1.76 1.6,-1.76 1.6,-4.416 0,-2.6559999 -1.6,-4.4159999 -1.6,-1.76 -4.192,-1.76 -2.624,0 -4.224,1.76 -1.6,1.76 -1.6,4.4159999 0,2.656 1.6,4.416 1.6,1.76 4.224,1.76 z"
       id="path2118" />
    <path
       d="m 931.64464,21.695999 h -5.312 l -9.024,-12.3519999 V 21.695999 h -5.504 V 0.35199915 h 5.664 l 8.64,11.74399985 V 0.35199915 h 5.536 z"
       id="path2120" />
    <path
       d="m 945.75664,21.695999 h -5.504 V 5.1519991 h -5.984 V 0.35199915 h 17.44 V 5.1519991 h -5.952 z"
       id="path2122" />
    <path
       d="m 962.01256,22.079999 q -5.92,0 -9.472,-3.392 l 2.912,-4.128 q 2.816,2.816 6.816,2.816 1.408,0 2.208,-0.48 0.832,-0.512 0.832,-1.28 0,-0.672 -0.896,-1.088 -0.896,-0.448 -2.24,-0.64 -1.344,-0.224 -2.912,-0.672 -1.568,-0.48 -2.912,-1.088 -1.344,-0.64 -2.24,-2.016 -0.896,-1.3759999 -0.896,-3.2959999 0,-2.816 2.272,-4.8 2.304,-1.98399995 6.24,-1.98399995 5.216,0 8.672,2.97599995 l -3.008,3.936 q -2.688,-2.208 -6.24,-2.208 -2.304,0 -2.304,1.536 0,0.608 0.896,1.056 0.896,0.416 2.24,0.64 1.344,0.224 2.88,0.704 1.568,0.448 2.912,1.088 1.344,0.6399999 2.24,1.9839999 0.896,1.344 0.896,3.2 0,3.264 -2.336,5.216 -2.336,1.92 -6.56,1.92 z"
       id="path2124" />
  </g>
  <g
     id="g683"
     transform="translate(-132.78557,-463.29338)">
    <path
       id="rect1501"
       style="fill:#991d00;stroke:#e1af8a;stroke-width:0;stroke-linecap:square;stroke-miterlimit:12;paint-order:stroke fill markers"
       d="m 132.78557,542.1864 h 636.0896 v 250.85593 h -636.0896 z" />
    <g
       aria-label="Hex: #991D00
RGB: R 153 / G 29 / B 0"
       id="text376"
       style="font-weight:600;font-size:40px;font-family:'Proxima Nova';-inkscape-font-specification:'Proxima Nova Semi-Bold';fill:#ffffff;stroke:#e1af8a;stroke-width:0;stroke-linecap:square;stroke-miterlimit:12;paint-order:stroke fill markers">
      <path
         d="m 196.66556,709.01202 h -4.68 v -11.64 h -13.88 v 11.64 h -4.68 v -26.68 h 4.68 v 10.92 h 13.88 v -10.92 h 4.68 z"
         id="path2056" />
      <path
         d="m 211.14554,709.49202 q -4.4,0 -7.28,-2.8 -2.84,-2.84 -2.84,-7.36 0,-4.24 2.76,-7.16 2.8,-2.96 7.04,-2.96 4.28,0 6.88,2.96 2.64,2.96 2.64,7.56 v 1 h -14.92 q 0.24,2.28 1.88,3.8 1.64,1.52 4.28,1.52 1.48,0 2.96,-0.56 1.52,-0.56 2.52,-1.56 l 1.92,2.76 q -2.92,2.8 -7.84,2.8 z m 5.12,-11.72 q -0.08,-2 -1.48,-3.56 -1.36,-1.56 -3.96,-1.56 -2.48,0 -3.88,1.56 -1.4,1.52 -1.56,3.56 z"
         id="path2058" />
      <path
         d="m 241.42551,709.01202 h -4.72 l -5,-7.12 -5.04,7.12 h -4.68 l 7.08,-9.92 -6.68,-9.4 h 4.72 l 4.6,6.56 4.56,-6.56 h 4.72 l -6.68,9.4 z"
         id="path2060" />
      <path
         d="m 248.46544,694.17202 q -0.84,0.84 -1.96,0.84 -1.12,0 -1.96,-0.84 -0.84,-0.84 -0.84,-1.96 0,-1.12 0.84,-1.96 0.84,-0.84 1.96,-0.84 1.12,0 1.96,0.84 0.84,0.84 0.84,1.96 0,1.12 -0.84,1.96 z m 0,14.48 q -0.84,0.8 -1.96,0.8 -1.12,0 -1.96,-0.8 -0.84,-0.84 -0.84,-2 0,-1.16 0.84,-1.96 0.84,-0.84 1.96,-0.84 1.12,0 1.96,0.84 0.84,0.8 0.84,1.96 0,1.16 -0.84,2 z"
         id="path2062" />
      <path
         d="m 274.5854,709.01202 h -3.2 l 2.36,-6.96 h -4.08 l -2.32,6.96 h -3.2 l 2.32,-6.96 h -4 l 0.88,-2.76 h 4.08 l 2.36,-7.2 h -4.08 l 0.84,-2.72 h 4.2 l 2.32,-7.04 h 3.2 l -2.32,7.04 h 4.04 l 2.32,-7.04 h 3.2 l -2.36,7.04 h 4.04 l -0.8,2.72 h -4.16 l -2.4,7.2 h 4.2 l -0.84,2.76 h -4.28 z m 0.04,-9.72 2.4,-7.2 h -4.04 l -2.36,7.2 z"
         id="path2064" />
      <path
         d="m 296.54536,709.45202 q -4.68,0 -7.64,-2.96 l 2.16,-3.52 q 2.24,2.32 5.48,2.32 3.4,0 5.2,-2.56 1.84,-2.6 1.84,-6.2 v -0.8 q -1.04,1.48 -3,2.64 -1.96,1.12 -4.16,1.12 -3.8,0 -6.4,-2.28 -2.56,-2.28 -2.56,-6.36 0,-3.8 2.72,-6.36 2.76,-2.6 7.12,-2.6 3.76,0 6.28,1.96 2.56,1.92 3.64,4.96 1.08,3 1.08,6.88 0,6 -3.08,9.88 -3.08,3.88 -8.68,3.88 z m 1.12,-14 q 1.72,0 3.28,-0.84 1.56,-0.84 2.56,-2.28 -0.2,-2.52 -1.68,-4.4 -1.44,-1.88 -4.28,-1.88 -2.44,0 -3.88,1.44 -1.44,1.44 -1.44,3.2 0,2.32 1.56,3.56 1.56,1.2 3.88,1.2 z"
         id="path2066" />
      <path
         d="m 320.58535,709.45202 q -4.68,0 -7.64,-2.96 l 2.16,-3.52 q 2.24,2.32 5.48,2.32 3.4,0 5.2,-2.56 1.84,-2.6 1.84,-6.2 v -0.8 q -1.04,1.48 -3,2.64 -1.96,1.12 -4.16,1.12 -3.8,0 -6.4,-2.28 -2.56,-2.28 -2.56,-6.36 0,-3.8 2.72,-6.36 2.76,-2.6 7.12,-2.6 3.76,0 6.28,1.96 2.56,1.92 3.64,4.96 1.08,3 1.08,6.88 0,6 -3.08,9.88 -3.08,3.88 -8.68,3.88 z m 1.12,-14 q 1.72,0 3.28,-0.84 1.56,-0.84 2.56,-2.28 -0.2,-2.52 -1.68,-4.4 -1.44,-1.88 -4.28,-1.88 -2.44,0 -3.88,1.44 -1.44,1.44 -1.44,3.2 0,2.32 1.56,3.56 1.56,1.2 3.88,1.2 z"
         id="path2068" />
      <path
         d="m 346.38534,709.01202 h -4.68 v -20.6 l -4.36,4.52 -2.72,-2.84 7.68,-7.76 h 4.08 z"
         id="path2070" />
      <path
         d="m 361.98531,709.01202 h -9.92 v -26.68 h 9.92 q 6.2,0 10.08,3.72 3.88,3.72 3.88,9.64 0,5.88 -3.88,9.6 -3.84,3.72 -10.08,3.72 z m 0,-4.12 q 4.2,0 6.68,-2.64 2.48,-2.64 2.48,-6.56 0,-4.04 -2.44,-6.64 -2.4,-2.6 -6.72,-2.6 h -5.24 v 18.44 z"
         id="path2072" />
      <path
         d="m 394.74527,708.29202 q -2.12,1.2 -4.8,1.2 -2.68,0 -4.8,-1.2 -2.12,-1.2 -3.36,-3.2 -1.24,-2 -1.88,-4.4 -0.64,-2.4 -0.64,-5 0,-2.6 0.64,-5 0.64,-2.4 1.88,-4.36 1.24,-2 3.36,-3.2 2.12,-1.2 4.8,-1.2 2.68,0 4.8,1.2 2.12,1.2 3.36,3.2 1.24,1.96 1.88,4.36 0.64,2.4 0.64,5 0,2.6 -0.64,5 -0.64,2.4 -1.88,4.4 -1.24,2 -3.36,3.2 z m -9.28,-5.68 q 1.44,2.72 4.48,2.72 3.04,0 4.48,-2.72 1.44,-2.72 1.44,-6.92 0,-2.68 -0.56,-4.76 -0.52,-2.08 -1.92,-3.44 -1.36,-1.4 -3.44,-1.4 -2.08,0 -3.48,1.4 -1.36,1.36 -1.92,3.44 -0.52,2.08 -0.52,4.76 0,4.2 1.44,6.92 z"
         id="path2074" />
      <path
         d="m 419.38524,708.29202 q -2.12,1.2 -4.8,1.2 -2.68,0 -4.8,-1.2 -2.12,-1.2 -3.36,-3.2 -1.24,-2 -1.88,-4.4 -0.64,-2.4 -0.64,-5 0,-2.6 0.64,-5 0.64,-2.4 1.88,-4.36 1.24,-2 3.36,-3.2 2.12,-1.2 4.8,-1.2 2.68,0 4.8,1.2 2.12,1.2 3.36,3.2 1.24,1.96 1.88,4.36 0.64,2.4 0.64,5 0,2.6 -0.64,5 -0.64,2.4 -1.88,4.4 -1.24,2 -3.36,3.2 z m -9.28,-5.68 q 1.44,2.72 4.48,2.72 3.04,0 4.48,-2.72 1.44,-2.72 1.44,-6.92 0,-2.68 -0.56,-4.76 -0.52,-2.08 -1.92,-3.44 -1.36,-1.4 -3.44,-1.4 -2.08,0 -3.48,1.4 -1.36,1.36 -1.92,3.44 -0.52,2.08 -0.52,4.76 0,4.2 1.44,6.92 z"
         id="path2076" />
      <path
         d="m 194.06556,759.01202 h -5.4 l -5.92,-9.96 h -4.64 v 9.96 h -4.68 v -26.68 h 11.72 q 3.92,0 6.32,2.32 2.4,2.32 2.4,6.04 0,3.36 -1.84,5.4 -1.84,2 -4.48,2.44 z m -9.56,-14.08 q 2,0 3.28,-1.16 1.28,-1.16 1.28,-3.08 0,-1.92 -1.28,-3.08 -1.28,-1.16 -3.28,-1.16 h -6.4 v 8.48 z"
         id="path2078" />
      <path
         d="m 211.34549,759.53202 q -5.92,0 -9.96,-3.84 -4.04,-3.84 -4.04,-10 0,-6.16 4.04,-9.96 4.04,-3.84 9.96,-3.84 6.88,0 10.76,5.56 l -3.84,2.16 q -1.12,-1.56 -2.96,-2.56 -1.8,-1 -3.96,-1 -3.96,0 -6.6,2.72 -2.6,2.72 -2.6,6.92 0,4.2 2.6,6.96 2.64,2.72 6.6,2.72 1.88,0 3.56,-0.72 1.72,-0.72 2.76,-1.68 v -4.16 h -7.96 v -4.12 h 12.64 v 10 q -4.36,4.84 -11,4.84 z"
         id="path2080" />
      <path
         d="m 240.70545,759.01202 h -13.48 v -26.68 h 13.12 q 3.56,0 5.56,1.96 2.04,1.92 2.04,4.84 0,2.4 -1.36,4.08 -1.32,1.64 -3.28,2.04 2.16,0.32 3.64,2.24 1.52,1.88 1.52,4.32 0,3.2 -2.08,5.2 -2.04,2 -5.68,2 z m -1.32,-15.64 q 1.76,0 2.76,-0.96 1,-0.96 1,-2.48 0,-1.56 -1,-2.52 -1,-0.96 -2.76,-0.96 h -7.48 v 6.92 z m 0.2,11.52 q 1.92,0 3,-0.96 1.08,-1 1.08,-2.76 0,-1.56 -1.08,-2.6 -1.08,-1.08 -3,-1.08 h -7.68 v 7.4 z"
         id="path2082" />
      <path
         d="m 257.1454,744.17202 q -0.84,0.84 -1.96,0.84 -1.12,0 -1.96,-0.84 -0.84,-0.84 -0.84,-1.96 0,-1.12 0.84,-1.96 0.84,-0.84 1.96,-0.84 1.12,0 1.96,0.84 0.84,0.84 0.84,1.96 0,1.12 -0.84,1.96 z m 0,14.48 q -0.84,0.8 -1.96,0.8 -1.12,0 -1.96,-0.8 -0.84,-0.84 -0.84,-2 0,-1.16 0.84,-1.96 0.84,-0.84 1.96,-0.84 1.12,0 1.96,0.84 0.84,0.8 0.84,1.96 0,1.16 -0.84,2 z"
         id="path2084" />
      <path
         d="m 293.86536,759.01202 h -5.4 l -5.92,-9.96 h -4.64 v 9.96 h -4.68 v -26.68 h 11.72 q 3.92,0 6.32,2.32 2.4,2.32 2.4,6.04 0,3.36 -1.84,5.4 -1.84,2 -4.48,2.44 z m -9.56,-14.08 q 2,0 3.28,-1.16 1.28,-1.16 1.28,-3.08 0,-1.92 -1.28,-3.08 -1.28,-1.16 -3.28,-1.16 h -6.4 v 8.48 z"
         id="path2086" />
      <path
         d="m 318.14529,759.01202 h -4.68 v -20.6 l -4.36,4.52 -2.72,-2.84 7.68,-7.76 h 4.08 z"
         id="path2088" />
      <path
         d="m 333.14526,759.49202 q -6.44,0 -9.92,-4.12 l 2.68,-3.2 q 2.8,3.16 7.2,3.16 2.48,0 3.96,-1.32 1.52,-1.36 1.52,-3.36 0,-2.16 -1.48,-3.44 -1.44,-1.32 -3.88,-1.32 -3.4,0 -5.84,2.32 l -3.32,-0.96 v -14.92 h 17.48 v 4.12 h -12.8 v 7.72 q 2.32,-2.32 6.04,-2.32 3.52,0 6,2.36 2.52,2.32 2.52,6.24 0,4.12 -2.84,6.6 -2.8,2.44 -7.32,2.44 z"
         id="path2090" />
      <path
         d="m 356.0252,759.49202 q -3.4,0 -6.04,-1.2 -2.6,-1.2 -4.04,-3.12 l 2.52,-3.08 q 1.28,1.48 3.28,2.36 2,0.88 4.12,0.88 2.6,0 4.08,-1.08 1.48,-1.12 1.48,-3 0,-3.76 -5.92,-3.76 -2.68,0 -3.08,0.04 v -4.2 q 0.48,0.04 3.08,0.04 2.48,0 3.96,-0.88 1.52,-0.88 1.52,-2.64 0,-1.8 -1.52,-2.76 -1.52,-1 -3.88,-1 -3.92,0 -6.88,2.96 l -2.4,-2.92 q 3.56,-4.2 9.72,-4.2 4.36,0 7,1.96 2.64,1.92 2.64,5.24 0,2.48 -1.76,4.12 -1.72,1.6 -4.04,2 2.28,0.2 4.24,1.92 1.96,1.72 1.96,4.56 0,3.44 -2.76,5.6 -2.72,2.16 -7.28,2.16 z"
         id="path2092" />
      <path
         d="m 381.34517,759.81202 h -3.12 l 9.48,-28.28 h 3.12 z"
         id="path2094" />
      <path
         d="m 416.74512,759.53202 q -5.92,0 -9.96,-3.84 -4.04,-3.84 -4.04,-10 0,-6.16 4.04,-9.96 4.04,-3.84 9.96,-3.84 6.88,0 10.76,5.56 l -3.84,2.16 q -1.12,-1.56 -2.96,-2.56 -1.8,-1 -3.96,-1 -3.96,0 -6.6,2.72 -2.6,2.72 -2.6,6.92 0,4.2 2.6,6.96 2.64,2.72 6.6,2.72 1.88,0 3.56,-0.72 1.72,-0.72 2.76,-1.68 v -4.16 h -7.96 v -4.12 h 12.64 v 10 q -4.36,4.84 -11,4.84 z"
         id="path2096" />
      <path
         d="m 461.38508,759.01202 h -19.32 v -3.68 q 8.36,-6.32 11.36,-9.36 3.04,-3.08 3.04,-5.8 0,-1.96 -1.44,-3 -1.4,-1.08 -3.4,-1.08 -4.4,0 -7.2,3.2 l -2.72,-3.08 q 1.72,-2.08 4.32,-3.16 2.64,-1.12 5.52,-1.12 4.08,0 6.88,2.2 2.8,2.2 2.8,6.04 0,3.44 -2.88,6.84 -2.88,3.4 -8.8,7.88 h 11.84 z"
         id="path2098" />
      <path
         d="m 474.46504,759.45202 q -4.68,0 -7.64,-2.96 l 2.16,-3.52 q 2.24,2.32 5.48,2.32 3.4,0 5.2,-2.56 1.84,-2.6 1.84,-6.2 v -0.8 q -1.04,1.48 -3,2.64 -1.96,1.12 -4.16,1.12 -3.8,0 -6.4,-2.28 -2.56,-2.28 -2.56,-6.36 0,-3.8 2.72,-6.36 2.76,-2.6 7.12,-2.6 3.76,0 6.28,1.96 2.56,1.92 3.64,4.96 1.08,3 1.08,6.88 0,6 -3.08,9.88 -3.08,3.88 -8.68,3.88 z m 1.12,-14 q 1.72,0 3.28,-0.84 1.56,-0.84 2.56,-2.28 -0.2,-2.52 -1.68,-4.4 -1.44,-1.88 -4.28,-1.88 -2.44,0 -3.88,1.44 -1.44,1.44 -1.44,3.2 0,2.32 1.56,3.56 1.56,1.2 3.88,1.2 z"
         id="path2100" />
      <path
         d="m 501.30504,759.81202 h -3.12 l 9.48,-28.28 h 3.12 z"
         id="path2102" />
      <path
         d="m 537.38499,759.01202 h -13.48 v -26.68 h 13.12 q 3.56,0 5.56,1.96 2.04,1.92 2.04,4.84 0,2.4 -1.36,4.08 -1.32,1.64 -3.28,2.04 2.16,0.32 3.64,2.24 1.52,1.88 1.52,4.32 0,3.2 -2.08,5.2 -2.04,2 -5.68,2 z m -1.32,-15.64 q 1.76,0 2.76,-0.96 1,-0.96 1,-2.48 0,-1.56 -1,-2.52 -1,-0.96 -2.76,-0.96 h -7.48 v 6.92 z m 0.2,11.52 q 1.92,0 3,-0.96 1.08,-1 1.08,-2.76 0,-1.56 -1.08,-2.6 -1.08,-1.08 -3,-1.08 h -7.68 v 7.4 z"
         id="path2104" />
      <path
         d="m 574.38494,758.29202 q -2.12,1.2 -4.8,1.2 -2.68,0 -4.8,-1.2 -2.12,-1.2 -3.36,-3.2 -1.24,-2 -1.88,-4.4 -0.64,-2.4 -0.64,-5 0,-2.6 0.64,-5 0.64,-2.4 1.88,-4.36 1.24,-2 3.36,-3.2 2.12,-1.2 4.8,-1.2 2.68,0 4.8,1.2 2.12,1.2 3.36,3.2 1.24,1.96 1.88,4.36 0.64,2.4 0.64,5 0,2.6 -0.64,5 -0.64,2.4 -1.88,4.4 -1.24,2 -3.36,3.2 z m -9.28,-5.68 q 1.44,2.72 4.48,2.72 3.04,0 4.48,-2.72 1.44,-2.72 1.44,-6.92 0,-2.68 -0.56,-4.76 -0.52,-2.08 -1.92,-3.44 -1.36,-1.4 -3.44,-1.4 -2.08,0 -3.48,1.4 -1.36,1.36 -1.92,3.44 -0.52,2.08 -0.52,4.76 0,4.2 1.44,6.92 z"
         id="path2106" />
    </g>
    <g
       aria-label="RED"
       id="text523"
       style="font-weight:800;font-size:60px;font-family:'Proxima Nova';-inkscape-font-specification:'Proxima Nova Ultra-Bold';fill:#ffffff;stroke:#e1af8a;stroke-width:0;stroke-linecap:square;stroke-miterlimit:12;paint-order:stroke fill markers">
      <path
         d="m 207.56556,621.01202 h -11.82 l -6.72,-13.44 h -5.28 v 13.44 h -10.32 v -40.02 h 20.04 q 6.48,0 10.2,3.78 3.72,3.78 3.72,9.54 0,4.8 -2.4,7.86 -2.34,3 -5.58,4.14 z m -15.66,-22.44 q 2.1,0 3.54,-1.14 1.44,-1.14 1.44,-3.18 0,-1.98 -1.44,-3.12 -1.44,-1.14 -3.54,-1.14 h -8.16 v 8.58 z"
         id="path2109" />
      <path
         d="m 242.42552,621.01202 h -29.34 v -40.02 h 29.34 v 9 h -19.02 v 6.24 h 18.6 v 9 h -18.6 v 6.78 h 19.02 z"
         id="path2111" />
      <path
         d="m 265.28545,621.01202 h -16.86 v -40.02 h 16.8 q 9.6,0 15.6,5.4 6.06,5.4 6.06,14.58 0,9.18 -6.06,14.64 -6,5.4 -15.54,5.4 z m -0.06,-9 q 5.1,0 8.1,-3.18 3,-3.24 3,-7.86 0,-4.86 -2.88,-7.92 -2.88,-3.06 -8.16,-3.06 h -6.54 v 22.02 z"
         id="path2113" />
    </g>
  </g>
  <g
     id="g697"
     transform="translate(-132.78557,-143.29338)">
    <path
       id="rect685"
       style="fill:#444854;stroke:#e1af8a;stroke-width:0;stroke-linecap:square;stroke-miterlimit:12;paint-order:stroke fill markers"
       d="m 132.78557,542.1864 h 636.0896 v 250.85593 h -636.0896 z" />
    <g
       aria-label="Hex: #444854
RGB: R 68 / G 72 / B 84"
       id="text691"
       style="font-weight:600;font-size:40px;font-family:'Proxima Nova';-inkscape-font-specification:'Proxima Nova Semi-Bold';fill:#ffffff;stroke:#e1af8a;stroke-width:0;stroke-linecap:square;stroke-miterlimit:12;paint-order:stroke fill markers">
      <path
         d="m 196.66556,709.01202 h -4.68 v -11.64 h -13.88 v 11.64 h -4.68 v -26.68 h 4.68 v 10.92 h 13.88 v -10.92 h 4.68 z"
         id="path1993" />
      <path
         d="m 211.14554,709.49202 q -4.4,0 -7.28,-2.8 -2.84,-2.84 -2.84,-7.36 0,-4.24 2.76,-7.16 2.8,-2.96 7.04,-2.96 4.28,0 6.88,2.96 2.64,2.96 2.64,7.56 v 1 h -14.92 q 0.24,2.28 1.88,3.8 1.64,1.52 4.28,1.52 1.48,0 2.96,-0.56 1.52,-0.56 2.52,-1.56 l 1.92,2.76 q -2.92,2.8 -7.84,2.8 z m 5.12,-11.72 q -0.08,-2 -1.48,-3.56 -1.36,-1.56 -3.96,-1.56 -2.48,0 -3.88,1.56 -1.4,1.52 -1.56,3.56 z"
         id="path1995" />
      <path
         d="m 241.42551,709.01202 h -4.72 l -5,-7.12 -5.04,7.12 h -4.68 l 7.08,-9.92 -6.68,-9.4 h 4.72 l 4.6,6.56 4.56,-6.56 h 4.72 l -6.68,9.4 z"
         id="path1997" />
      <path
         d="m 248.46544,694.17202 q -0.84,0.84 -1.96,0.84 -1.12,0 -1.96,-0.84 -0.84,-0.84 -0.84,-1.96 0,-1.12 0.84,-1.96 0.84,-0.84 1.96,-0.84 1.12,0 1.96,0.84 0.84,0.84 0.84,1.96 0,1.12 -0.84,1.96 z m 0,14.48 q -0.84,0.8 -1.96,0.8 -1.12,0 -1.96,-0.8 -0.84,-0.84 -0.84,-2 0,-1.16 0.84,-1.96 0.84,-0.84 1.96,-0.84 1.12,0 1.96,0.84 0.84,0.8 0.84,1.96 0,1.16 -0.84,2 z"
         id="path1999" />
      <path
         d="m 274.5854,709.01202 h -3.2 l 2.36,-6.96 h -4.08 l -2.32,6.96 h -3.2 l 2.32,-6.96 h -4 l 0.88,-2.76 h 4.08 l 2.36,-7.2 h -4.08 l 0.84,-2.72 h 4.2 l 2.32,-7.04 h 3.2 l -2.32,7.04 h 4.04 l 2.32,-7.04 h 3.2 l -2.36,7.04 h 4.04 l -0.8,2.72 h -4.16 l -2.4,7.2 h 4.2 l -0.84,2.76 h -4.28 z m 0.04,-9.72 2.4,-7.2 h -4.04 l -2.36,7.2 z"
         id="path2001" />
      <path
         d="m 304.46536,709.01202 h -4.68 v -6.04 h -12.72 v -3.76 l 10.96,-16.88 h 6.44 v 16.52 h 3.56 v 4.12 h -3.56 z m -4.68,-10.16 v -12.32 l -8.12,12.32 z"
         id="path2003" />
      <path
         d="m 327.66536,709.01202 h -4.68 v -6.04 h -12.72 v -3.76 l 10.96,-16.88 h 6.44 v 16.52 h 3.56 v 4.12 h -3.56 z m -4.68,-10.16 v -12.32 l -8.12,12.32 z"
         id="path2005" />
      <path
         d="m 350.86535,709.01202 h -4.68 v -6.04 h -12.72 v -3.76 l 10.96,-16.88 h 6.44 v 16.52 h 3.56 v 4.12 h -3.56 z m -4.68,-10.16 v -12.32 l -8.12,12.32 z"
         id="path2007" />
      <path
         d="m 374.70535,707.57202 q -2.92,1.92 -7.24,1.92 -4.32,0 -7.28,-1.92 -2.96,-1.96 -2.96,-5.4 0,-2.44 1.68,-4.24 1.72,-1.8 4.32,-2.68 -2.48,-0.8 -4.04,-2.36 -1.52,-1.56 -1.52,-3.96 0,-1.76 0.84,-3.16 0.88,-1.4 2.28,-2.2 1.44,-0.8 3.12,-1.2 1.72,-0.44 3.56,-0.44 1.84,0 3.52,0.44 1.68,0.4 3.12,1.2 1.44,0.8 2.28,2.2 0.88,1.4 0.88,3.16 0,4.52 -5.6,6.32 2.6,0.88 4.28,2.68 1.72,1.8 1.72,4.24 0,3.44 -2.96,5.4 z m -7.24,-14.16 q 1.08,-0.2 2.08,-0.52 1,-0.36 1.96,-1.2 1,-0.88 1,-2.04 0,-1.64 -1.44,-2.6 -1.4,-0.96 -3.6,-0.96 -2.24,0 -3.68,0.96 -1.4,0.96 -1.4,2.6 0,1.16 1,2.04 1,0.84 2,1.2 1,0.32 2.08,0.52 z m 0,11.92 q 2.28,0 3.88,-1.04 1.6,-1.04 1.6,-2.72 0,-1.8 -1.88,-2.88 -1.84,-1.12 -3.6,-1.32 -1.04,0.12 -2.2,0.56 -1.16,0.4 -2.24,1.4 -1.08,0.96 -1.08,2.24 0,1.68 1.56,2.72 1.6,1.04 3.96,1.04 z"
         id="path2009" />
      <path
         d="m 391.50532,709.49202 q -6.44,0 -9.92,-4.12 l 2.68,-3.2 q 2.8,3.16 7.2,3.16 2.48,0 3.96,-1.32 1.52,-1.36 1.52,-3.36 0,-2.16 -1.48,-3.44 -1.44,-1.32 -3.88,-1.32 -3.4,0 -5.84,2.32 l -3.32,-0.96 v -14.92 h 17.48 v 4.12 h -12.8 v 7.72 q 2.32,-2.32 6.04,-2.32 3.52,0 6,2.36 2.52,2.32 2.52,6.24 0,4.12 -2.84,6.6 -2.8,2.44 -7.32,2.44 z"
         id="path2011" />
      <path
         d="m 421.86526,709.01202 h -4.68 v -6.04 h -12.72 v -3.76 l 10.96,-16.88 h 6.44 v 16.52 h 3.56 v 4.12 h -3.56 z m -4.68,-10.16 v -12.32 l -8.12,12.32 z"
         id="path2013" />
      <path
         d="m 194.06556,759.01202 h -5.4 l -5.92,-9.96 h -4.64 v 9.96 h -4.68 v -26.68 h 11.72 q 3.92,0 6.32,2.32 2.4,2.32 2.4,6.04 0,3.36 -1.84,5.4 -1.84,2 -4.48,2.44 z m -9.56,-14.08 q 2,0 3.28,-1.16 1.28,-1.16 1.28,-3.08 0,-1.92 -1.28,-3.08 -1.28,-1.16 -3.28,-1.16 h -6.4 v 8.48 z"
         id="path2015" />
      <path
         d="m 211.34549,759.53202 q -5.92,0 -9.96,-3.84 -4.04,-3.84 -4.04,-10 0,-6.16 4.04,-9.96 4.04,-3.84 9.96,-3.84 6.88,0 10.76,5.56 l -3.84,2.16 q -1.12,-1.56 -2.96,-2.56 -1.8,-1 -3.96,-1 -3.96,0 -6.6,2.72 -2.6,2.72 -2.6,6.92 0,4.2 2.6,6.96 2.64,2.72 6.6,2.72 1.88,0 3.56,-0.72 1.72,-0.72 2.76,-1.68 v -4.16 h -7.96 v -4.12 h 12.64 v 10 q -4.36,4.84 -11,4.84 z"
         id="path2017" />
      <path
         d="m 240.70545,759.01202 h -13.48 v -26.68 h 13.12 q 3.56,0 5.56,1.96 2.04,1.92 2.04,4.84 0,2.4 -1.36,4.08 -1.32,1.64 -3.28,2.04 2.16,0.32 3.64,2.24 1.52,1.88 1.52,4.32 0,3.2 -2.08,5.2 -2.04,2 -5.68,2 z m -1.32,-15.64 q 1.76,0 2.76,-0.96 1,-0.96 1,-2.48 0,-1.56 -1,-2.52 -1,-0.96 -2.76,-0.96 h -7.48 v 6.92 z m 0.2,11.52 q 1.92,0 3,-0.96 1.08,-1 1.08,-2.76 0,-1.56 -1.08,-2.6 -1.08,-1.08 -3,-1.08 h -7.68 v 7.4 z"
         id="path2019" />
      <path
         d="m 257.1454,744.17202 q -0.84,0.84 -1.96,0.84 -1.12,0 -1.96,-0.84 -0.84,-0.84 -0.84,-1.96 0,-1.12 0.84,-1.96 0.84,-0.84 1.96,-0.84 1.12,0 1.96,0.84 0.84,0.84 0.84,1.96 0,1.12 -0.84,1.96 z m 0,14.48 q -0.84,0.8 -1.96,0.8 -1.12,0 -1.96,-0.8 -0.84,-0.84 -0.84,-2 0,-1.16 0.84,-1.96 0.84,-0.84 1.96,-0.84 1.12,0 1.96,0.84 0.84,0.8 0.84,1.96 0,1.16 -0.84,2 z"
         id="path2021" />
      <path
         d="m 293.86536,759.01202 h -5.4 l -5.92,-9.96 h -4.64 v 9.96 h -4.68 v -26.68 h 11.72 q 3.92,0 6.32,2.32 2.4,2.32 2.4,6.04 0,3.36 -1.84,5.4 -1.84,2 -4.48,2.44 z m -9.56,-14.08 q 2,0 3.28,-1.16 1.28,-1.16 1.28,-3.08 0,-1.92 -1.28,-3.08 -1.28,-1.16 -3.28,-1.16 h -6.4 v 8.48 z"
         id="path2023" />
      <path
         d="m 318.42529,759.49202 q -2.84,0 -5,-1.08 -2.16,-1.12 -3.44,-3.04 -1.28,-1.92 -1.92,-4.32 -0.64,-2.44 -0.64,-5.32 0,-6.04 3.08,-9.92 3.08,-3.88 8.68,-3.88 4.64,0 7.68,2.96 l -2.2,3.56 q -2.24,-2.36 -5.48,-2.36 -3.2,0 -5.12,2.56 -1.92,2.56 -1.92,6.24 0,0.52 0.04,0.76 1,-1.48 2.96,-2.6 1.96,-1.12 4.2,-1.12 3.8,0 6.36,2.28 2.56,2.24 2.56,6.32 0,3.8 -2.72,6.4 -2.72,2.56 -7.12,2.56 z m -0.24,-4.16 q 2.48,0 3.92,-1.4 1.44,-1.44 1.44,-3.24 0,-2.32 -1.56,-3.52 -1.56,-1.24 -3.92,-1.24 -1.68,0 -3.24,0.88 -1.56,0.84 -2.6,2.28 0.24,2.56 1.68,4.4 1.44,1.84 4.28,1.84 z"
         id="path2025" />
      <path
         d="m 348.98529,757.57202 q -2.92,1.92 -7.24,1.92 -4.32,0 -7.28,-1.92 -2.96,-1.96 -2.96,-5.4 0,-2.44 1.68,-4.24 1.72,-1.8 4.32,-2.68 -2.48,-0.8 -4.04,-2.36 -1.52,-1.56 -1.52,-3.96 0,-1.76 0.84,-3.16 0.88,-1.4 2.28,-2.2 1.44,-0.8 3.12,-1.2 1.72,-0.44 3.56,-0.44 1.84,0 3.52,0.44 1.68,0.4 3.12,1.2 1.44,0.8 2.28,2.2 0.88,1.4 0.88,3.16 0,4.52 -5.6,6.32 2.6,0.88 4.28,2.68 1.72,1.8 1.72,4.24 0,3.44 -2.96,5.4 z m -7.24,-14.16 q 1.08,-0.2 2.08,-0.52 1,-0.36 1.96,-1.2 1,-0.88 1,-2.04 0,-1.64 -1.44,-2.6 -1.4,-0.96 -3.6,-0.96 -2.24,0 -3.68,0.96 -1.4,0.96 -1.4,2.6 0,1.16 1,2.04 1,0.84 2,1.2 1,0.32 2.08,0.52 z m 0,11.92 q 2.28,0 3.88,-1.04 1.6,-1.04 1.6,-2.72 0,-1.8 -1.88,-2.88 -1.84,-1.12 -3.6,-1.32 -1.04,0.12 -2.2,0.56 -1.16,0.4 -2.24,1.4 -1.08,0.96 -1.08,2.24 0,1.68 1.56,2.72 1.6,1.04 3.96,1.04 z"
         id="path2027" />
      <path
         d="m 367.02526,759.81202 h -3.12 l 9.48,-28.28 h 3.12 z"
         id="path2029" />
      <path
         d="m 402.4252,759.53202 q -5.92,0 -9.96,-3.84 -4.04,-3.84 -4.04,-10 0,-6.16 4.04,-9.96 4.04,-3.84 9.96,-3.84 6.88,0 10.76,5.56 l -3.84,2.16 q -1.12,-1.56 -2.96,-2.56 -1.8,-1 -3.96,-1 -3.96,0 -6.6,2.72 -2.6,2.72 -2.6,6.92 0,4.2 2.6,6.96 2.64,2.72 6.6,2.72 1.88,0 3.56,-0.72 1.72,-0.72 2.76,-1.68 v -4.16 h -7.96 v -4.12 h 12.64 v 10 q -4.36,4.84 -11,4.84 z"
         id="path2031" />
      <path
         d="m 435.70516,759.01202 h -5.12 l 10.08,-22.56 h -13.84 v -4.12 h 19.24 v 3.24 z"
         id="path2033" />
      <path
         d="m 468.34513,759.01202 h -19.32 v -3.68 q 8.36,-6.32 11.36,-9.36 3.04,-3.08 3.04,-5.8 0,-1.96 -1.44,-3 -1.4,-1.08 -3.4,-1.08 -4.4,0 -7.2,3.2 l -2.72,-3.08 q 1.72,-2.08 4.32,-3.16 2.64,-1.12 5.52,-1.12 4.08,0 6.88,2.2 2.8,2.2 2.8,6.04 0,3.44 -2.88,6.84 -2.88,3.4 -8.8,7.88 h 11.84 z"
         id="path2035" />
      <path
         d="m 484.22512,759.81202 h -3.12 l 9.48,-28.28 h 3.12 z"
         id="path2037" />
      <path
         d="m 520.30506,759.01202 h -13.48 v -26.68 h 13.12 q 3.56,0 5.56,1.96 2.04,1.92 2.04,4.84 0,2.4 -1.36,4.08 -1.32,1.64 -3.28,2.04 2.16,0.32 3.64,2.24 1.52,1.88 1.52,4.32 0,3.2 -2.08,5.2 -2.04,2 -5.68,2 z m -1.32,-15.64 q 1.76,0 2.76,-0.96 1,-0.96 1,-2.48 0,-1.56 -1,-2.52 -1,-0.96 -2.76,-0.96 h -7.48 v 6.92 z m 0.2,11.52 q 1.92,0 3,-0.96 1.08,-1 1.08,-2.76 0,-1.56 -1.08,-2.6 -1.08,-1.08 -3,-1.08 h -7.68 v 7.4 z"
         id="path2039" />
      <path
         d="m 559.34501,757.57202 q -2.92,1.92 -7.24,1.92 -4.32,0 -7.28,-1.92 -2.96,-1.96 -2.96,-5.4 0,-2.44 1.68,-4.24 1.72,-1.8 4.32,-2.68 -2.48,-0.8 -4.04,-2.36 -1.52,-1.56 -1.52,-3.96 0,-1.76 0.84,-3.16 0.88,-1.4 2.28,-2.2 1.44,-0.8 3.12,-1.2 1.72,-0.44 3.56,-0.44 1.84,0 3.52,0.44 1.68,0.4 3.12,1.2 1.44,0.8 2.28,2.2 0.88,1.4 0.88,3.16 0,4.52 -5.6,6.32 2.6,0.88 4.28,2.68 1.72,1.8 1.72,4.24 0,3.44 -2.96,5.4 z m -7.24,-14.16 q 1.08,-0.2 2.08,-0.52 1,-0.36 1.96,-1.2 1,-0.88 1,-2.04 0,-1.64 -1.44,-2.6 -1.4,-0.96 -3.6,-0.96 -2.24,0 -3.68,0.96 -1.4,0.96 -1.4,2.6 0,1.16 1,2.04 1,0.84 2,1.2 1,0.32 2.08,0.52 z m 0,11.92 q 2.28,0 3.88,-1.04 1.6,-1.04 1.6,-2.72 0,-1.8 -1.88,-2.88 -1.84,-1.12 -3.6,-1.32 -1.04,0.12 -2.2,0.56 -1.16,0.4 -2.24,1.4 -1.08,0.96 -1.08,2.24 0,1.68 1.56,2.72 1.6,1.04 3.96,1.04 z"
         id="path2041" />
      <path
         d="m 582.50497,759.01202 h -4.68 v -6.04 h -12.72 v -3.76 l 10.96,-16.88 h 6.44 v 16.52 h 3.56 v 4.12 h -3.56 z m -4.68,-10.16 v -12.32 l -8.12,12.32 z"
         id="path2043" />
    </g>
    <g
       aria-label="GRAY"
       id="text695"
       style="font-weight:800;font-size:60px;font-family:'Proxima Nova';-inkscape-font-specification:'Proxima Nova Ultra-Bold';fill:#ffffff;stroke:#e1af8a;stroke-width:0;stroke-linecap:square;stroke-miterlimit:12;paint-order:stroke fill markers">
      <path
         d="m 193.04556,621.73202 q -9.18,0 -15.42,-5.7 -6.24,-5.7 -6.24,-15 0,-9.3 6.24,-15 6.24,-5.7 15.42,-5.7 6.24,0 10.5,2.76 4.26,2.76 6.6,6.96 l -8.64,4.5 q -1.2,-2.16 -3.48,-3.6 -2.22,-1.5 -4.98,-1.5 -4.86,0 -8.04,3.36 -3.12,3.3 -3.12,8.22 0,4.92 3.12,8.28 3.18,3.3 8.04,3.3 2.1,0 4.14,-0.72 2.1,-0.72 3.24,-1.68 v -3.12 h -9 v -9.06 h 19.32 v 15.9 q -7.08,7.8 -17.7,7.8 z"
         id="path2046" />
      <path
         d="m 250.94554,621.01202 h -11.82 l -6.72,-13.44 h -5.28 v 13.44 h -10.32 v -40.02 h 20.04 q 6.48,0 10.2,3.78 3.72,3.78 3.72,9.54 0,4.8 -2.4,7.86 -2.34,3 -5.58,4.14 z m -15.66,-22.44 q 2.1,0 3.54,-1.14 1.44,-1.14 1.44,-3.18 0,-1.98 -1.44,-3.12 -1.44,-1.14 -3.54,-1.14 h -8.16 v 8.58 z"
         id="path2048" />
      <path
         d="m 295.34549,621.01202 h -11.7 l -1.98,-5.76 h -15.78 l -1.98,5.76 h -11.7 l 15.06,-40.02 h 12.96 z m -16.5,-14.76 -5.1,-15.06 -5.1,15.06 z"
         id="path2050" />
      <path
         d="m 315.44536,621.01202 h -10.32 v -16.14 l -15.18,-23.88 h 11.64 l 8.7,14.76 8.58,-14.76 h 11.7 l -15.12,23.88 z"
         id="path2052" />
    </g>
  </g>
</svg>
