<svg width="867" height="184" viewBox="0 0 867 184" fill="none" xmlns="http://www.w3.org/2000/svg">
<g clip-path="url(#clip0_207_2712)">
<g clip-path="url(#clip1_207_2712)">
<path fill-rule="evenodd" clip-rule="evenodd" d="M544.687 173.359C544.687 167.018 549.491 162.697 555.659 162.697C560.207 162.697 562.851 165.17 564.301 167.729L560.52 169.606C559.667 167.928 557.791 166.592 555.659 166.592C551.935 166.592 549.206 169.464 549.206 173.359C549.206 177.283 551.935 180.155 555.659 180.155C557.791 180.155 559.667 178.847 560.52 177.141L564.301 178.961C562.822 181.548 560.207 184.05 555.659 184.05C549.491 184.05 544.687 179.728 544.687 173.359ZM567.484 173.359C567.484 167.161 572.033 162.697 578.258 162.697C584.512 162.697 589.06 167.161 589.06 173.359C589.06 179.586 584.512 184.05 578.258 184.05C572.033 184.05 567.484 179.586 567.484 173.359ZM584.54 173.359C584.54 169.492 582.067 166.592 578.258 166.592C574.449 166.592 572.004 169.492 572.004 173.359C572.004 177.198 574.449 180.155 578.258 180.155C582.067 180.155 584.54 177.198 584.54 173.359ZM611.659 183.681V169.208L605.86 183.681H603.927L598.099 169.208V183.681H593.722V163.038H599.862L604.893 175.52L609.896 163.038H616.093V183.681H611.659ZM639.659 183.681V169.208L633.86 183.681H631.927L626.128 169.208V183.681H621.722V163.038H627.89L632.893 175.52L637.896 163.038H644.093V183.681H639.659ZM649.721 175.435V163.038H654.184V175.293C654.184 178.164 655.861 180.155 659.045 180.155C662.229 180.155 663.878 178.164 663.878 175.293V163.038H668.369V175.406C668.369 180.553 665.327 184.05 659.045 184.05C652.763 184.05 649.721 180.524 649.721 175.435ZM688.21 183.681L678.347 170.203V183.681H673.969V163.038H678.489L688.04 176.003V163.038H692.446V183.681H688.21ZM698.074 183.681V163.038H702.48V183.681H698.074ZM712.856 183.681V166.905H706.83V163.038H723.288V166.905H717.291V183.681H712.856ZM733.408 183.681V175.236L725.449 163.038H730.48L735.597 171.34L740.685 163.038H745.688L737.814 175.236V183.681H733.408ZM758.622 183.681V163.038H773.233V166.905H763.028V171.255H773.034V175.122H763.028V183.681H758.622ZM777.838 175.435V163.038H782.301V175.293C782.301 178.164 783.978 180.155 787.162 180.155C790.346 180.155 791.995 178.164 791.995 175.293V163.038H796.486V175.406C796.486 180.553 793.444 184.05 787.162 184.05C780.88 184.05 777.838 180.524 777.838 175.435ZM816.328 183.681L806.464 170.203V183.681H802.086V163.038H806.606L816.157 176.003V163.038H820.563V183.681H816.328ZM826.191 183.681V163.038H834.35C840.802 163.038 845.294 167.161 845.294 173.359C845.294 179.586 840.802 183.681 834.35 183.681H826.191ZM840.802 173.359C840.802 169.72 838.557 166.905 834.321 166.905H830.569V179.814H834.321C838.415 179.814 840.802 176.856 840.802 173.359Z" fill="black"/>
<path fill-rule="evenodd" clip-rule="evenodd" d="M531.127 152.688L528.284 144.442H505.657L502.843 152.688H486.071L507.647 95.3092H526.209L547.898 152.688H531.127ZM516.914 109.952L509.608 131.533H524.248L516.914 109.952ZM553.697 141.514V122.691H546.818V111.147H553.697V99.8017H566.859V111.147H575.273V122.691H566.859V137.817C566.859 140.234 568.223 142.025 570.554 142.025C572.004 142.025 573.482 141.514 573.908 141.002L576.495 150.982C574.846 152.517 571.577 153.74 566.688 153.74C558.274 153.74 553.697 149.503 553.697 141.514ZM611.829 152.688V128.52C611.829 123.458 609.157 121.809 604.95 121.809C601.084 121.809 598.497 123.97 596.962 125.847V152.688H583.715V95.3376H596.962V116.236C599.435 113.308 604.353 110.123 611.317 110.123C620.783 110.123 625.076 115.44 625.076 123.117V152.688H611.829ZM636.418 152.688V95.3376H649.664V152.688H636.418ZM658.249 131.875C658.249 119.847 667.374 110.123 680.336 110.123C692.645 110.123 701.599 119.165 701.599 133.268V136.083H672.007C672.775 139.978 676.385 143.504 682.411 143.504C685.339 143.504 690.399 142.196 692.73 139.978L698.33 148.224C694.18 151.92 687.301 153.74 680.961 153.74C668.141 153.74 658.249 145.381 658.249 131.875ZM680.336 120.359C674.594 120.359 672.348 124.482 671.837 127.496H688.949C688.608 124.567 686.448 120.359 680.336 120.359ZM712.6 141.514V122.691H705.721V111.147H712.6V99.8017H725.761V111.147H734.175V122.691H725.761V137.817C725.761 140.234 727.126 142.025 729.457 142.025C730.906 142.025 732.356 141.514 732.811 141.002L735.369 150.982C733.749 152.517 730.48 153.74 725.562 153.74C717.148 153.74 712.6 149.503 712.6 141.514ZM741.566 99.8017C741.566 95.5935 744.921 92.2383 749.128 92.2383C753.335 92.2383 756.689 95.5935 756.689 99.8017C756.689 104.01 753.335 107.45 749.128 107.45C744.921 107.45 741.566 104.01 741.566 99.8017ZM742.504 152.688V111.147H755.751V152.688H742.504ZM764.336 131.875C764.336 118.881 774.057 110.123 787.048 110.123C796.003 110.123 801.574 114.075 804.076 117.772L795.462 125.761C793.842 123.373 791.17 121.809 787.645 121.809C782.159 121.809 777.923 125.591 777.923 131.875C777.923 138.158 782.159 142.025 787.645 142.025C791.17 142.025 793.842 140.319 795.462 137.988L804.076 146.063C801.574 149.674 796.003 153.74 787.048 153.74C774.057 153.74 764.336 144.954 764.336 131.875ZM808.283 147.371L813.797 138.244C816.896 141.002 823.519 143.76 828.408 143.76C832.36 143.76 834.008 142.452 834.008 140.575C834.008 135.145 809.846 140.49 809.846 123.8C809.846 116.492 816.1 110.123 827.641 110.123C834.605 110.123 840.518 112.369 845.009 115.639L839.921 124.397C837.448 121.98 832.701 119.847 827.726 119.847C824.628 119.847 822.467 121.127 822.467 122.861C822.467 127.667 846.63 122.947 846.63 139.978C846.63 147.883 839.665 153.74 827.726 153.74C820.335 153.74 812.66 151.238 808.283 147.371Z" fill="black"/>
<path d="M451.306 153.712C445.393 153.712 440.836 152.366 437.633 149.674C434.468 146.963 432.886 143.381 432.886 138.926C432.886 136.822 433.341 134.784 434.25 132.813C435.16 130.842 436.467 129.069 438.173 127.496C439.86 125.904 441.85 124.672 444.143 123.8C443.195 122.188 442.721 120.463 442.721 118.625C442.721 116.388 443.318 114.322 444.512 112.426C445.744 110.512 447.459 108.957 449.657 107.763C451.856 106.569 454.423 105.972 457.361 105.972C460.563 105.972 463.112 106.54 465.007 107.678C466.921 108.834 467.907 110.417 467.964 112.426C468.002 113.355 467.727 114.18 467.139 114.9C466.533 115.601 465.614 115.952 464.382 115.952C462.354 115.952 460.867 114.549 459.919 111.744L459.55 110.777C459.246 109.867 458.773 109.156 458.128 108.644C457.484 108.095 456.612 107.934 455.513 108.161C453.77 108.389 452.159 109.308 450.681 110.919C449.221 112.474 448.492 114.796 448.492 117.885C448.492 119.535 448.814 121.117 449.458 122.634C450.046 122.577 450.643 122.548 451.249 122.548C453.485 122.548 455.2 122.871 456.394 123.515C457.588 124.103 458.185 125.022 458.185 126.273C458.185 127.183 457.844 127.941 457.162 128.548C456.517 129.136 455.532 129.429 454.205 129.429C452.5 129.429 450.917 129.107 449.458 128.463C448.037 127.818 446.796 126.975 445.734 125.932C444.18 127.069 442.968 128.538 442.096 130.339C441.224 132.121 440.788 134.064 440.788 136.168C440.788 138.594 441.338 140.642 442.437 142.31C443.574 143.959 445.109 145.191 447.042 146.006C448.975 146.84 451.135 147.257 453.523 147.257C457.598 147.257 460.668 146.546 462.733 145.125C464.837 143.703 465.889 141.931 465.889 139.808C465.889 138.083 465.339 136.708 464.24 135.685C463.179 134.68 461.255 134.064 458.469 133.837L458.953 131.221C463.16 130.804 466.505 129.477 468.987 127.24C471.47 124.984 473.422 121.771 474.843 117.601L481.097 120.416C479.391 123.999 477.306 126.795 474.843 128.804C472.36 130.832 469.006 132.168 464.78 132.813C466.296 133.495 467.424 134.5 468.163 135.827C468.902 137.154 469.271 138.576 469.271 140.092C469.271 142.67 468.513 144.992 466.997 147.058C465.481 149.105 463.368 150.726 460.658 151.92C458.005 153.115 454.888 153.712 451.306 153.712Z" fill="black"/>
<path fill-rule="evenodd" clip-rule="evenodd" d="M291.21 152.688L288.396 144.442H265.768L262.926 152.688H246.154L267.758 95.3091H286.321L307.981 152.688H291.21ZM277.025 109.952L269.72 131.533H284.331L277.025 109.952ZM313.581 152.688V111.147H326.828V116.236C329.557 112.881 334.816 110.038 339.79 110.038V122.776C339.023 122.605 337.914 122.406 336.521 122.406C333.082 122.406 328.533 123.885 326.828 126.216V152.688H313.581ZM350.28 141.514V122.691H343.4V111.147H350.28V99.8016H363.441V111.147H371.883V122.691H363.441V137.817C363.441 140.234 364.805 142.025 367.136 142.025C368.614 142.025 370.064 141.514 370.491 141.002L373.077 150.982C371.429 152.517 368.16 153.74 363.27 153.74C354.856 153.74 350.28 149.503 350.28 141.514ZM376.688 147.371L382.174 138.244C385.272 141.002 391.896 143.76 396.813 143.76C400.765 143.76 402.385 142.452 402.385 140.575C402.385 135.144 378.223 140.49 378.223 123.8C378.223 116.492 384.505 110.123 396.017 110.123C402.982 110.123 408.923 112.369 413.414 115.639L408.326 124.397C405.824 121.98 401.106 119.847 396.131 119.847C393.033 119.847 390.872 121.127 390.872 122.861C390.872 127.666 415.035 122.947 415.035 139.978C415.035 147.883 408.07 153.74 396.131 153.74C388.712 153.74 381.065 151.238 376.688 147.371Z" fill="black"/>
<path fill-rule="evenodd" clip-rule="evenodd" d="M266.764 85.5849V35.1154H289.249C298.033 35.1154 303.405 40.404 303.405 47.9674C303.405 54.3365 299.17 58.5731 294.536 59.5398C299.909 60.3928 304.372 65.9089 304.372 71.9652C304.372 80.0688 298.999 85.5849 289.789 85.5849H266.764ZM296.867 48.8772C296.867 44.3279 293.825 40.7168 288.169 40.7168H273.017V56.9808H288.169C293.825 56.9808 296.867 53.4835 296.867 48.8772ZM297.862 71.2828C297.862 66.6766 294.678 62.5822 288.453 62.5822H273.017V79.9835H288.453C294.366 79.9835 297.862 76.6568 297.862 71.2828ZM314.633 40.0344C314.633 37.9019 316.396 36.1675 318.443 36.1675C320.546 36.1675 322.28 37.9019 322.28 40.0344C322.28 42.1385 320.546 43.8161 318.443 43.8161C316.396 43.8161 314.633 42.1385 314.633 40.0344ZM315.628 85.5849V49.0194H321.314V85.5849H315.628ZM358.836 85.5849V61.6723C358.836 55.2463 355.567 53.1991 350.649 53.1991C346.187 53.1991 341.951 55.9287 339.819 58.8574V85.5849H334.162V49.0194H339.819V54.3365C342.406 51.2941 347.409 48.1095 352.838 48.1095C360.485 48.1095 364.493 51.9765 364.493 59.9379V85.5849H358.836ZM375.807 94.968L378.678 90.7314C381.691 94.3709 385.329 95.7357 390.56 95.7357C396.615 95.7357 402.271 92.7786 402.271 84.7603V79.5286C399.628 83.2249 395.165 86.0398 390.02 86.0398C380.497 86.0398 373.76 78.9315 373.76 67.1316C373.76 55.3885 380.412 48.1095 390.02 48.1095C394.938 48.1095 399.315 50.5548 402.271 54.5639V49.0194H407.957V84.5329C407.957 96.6455 399.486 100.427 390.56 100.427C384.335 100.427 380.099 99.2046 375.807 94.968ZM402.271 75.0645V59.0849C400.31 55.9287 395.932 53.1991 391.384 53.1991C384.05 53.1991 379.644 59.028 379.644 67.1316C379.644 75.1498 384.05 81.0355 391.384 81.0355C395.932 81.0355 400.31 78.2491 402.271 75.0645ZM444.797 85.5849V61.5301C444.797 55.0757 441.471 53.1991 436.554 53.1991C432.176 53.1991 427.94 55.9287 425.723 58.8574V85.5849H420.066V35.1154H425.723V54.3365C428.31 51.2941 433.313 48.1095 438.828 48.1095C446.474 48.1095 450.482 51.8343 450.482 59.7673V85.5849H444.797ZM484.679 85.5849V81.4336C481.638 84.7603 477.487 86.4948 472.57 86.4948C466.344 86.4948 459.778 82.3435 459.778 74.3821C459.778 66.2217 466.344 62.3547 472.57 62.3547C477.544 62.3547 481.723 63.947 484.679 67.3306V60.7624C484.679 55.8434 480.728 53.0285 475.441 53.0285C471.035 53.0285 467.481 54.6208 464.241 58.1181L461.597 54.1659C465.52 50.0999 470.21 48.1095 476.18 48.1095C483.912 48.1095 490.336 51.6069 490.336 60.4497V85.5849H484.679ZM484.679 77.851V70.9701C482.49 67.9561 478.624 66.4491 474.616 66.4491C469.329 66.4491 465.605 69.7759 465.605 74.4674C465.605 79.0736 469.329 82.4003 474.616 82.4003C478.624 82.4003 482.49 80.8934 484.679 77.851ZM547.331 85.5849V60.7624C547.331 56.1562 545.284 53.1991 540.594 53.1991C536.813 53.1991 532.805 55.9287 530.929 58.8005V85.5849H525.243V60.7624C525.243 56.1562 523.282 53.1991 518.506 53.1991C514.811 53.1991 510.86 55.9287 508.898 58.8574V85.5849H503.213V49.0194H508.898V54.3365C510.405 51.9765 515.323 48.1095 520.695 48.1095C526.295 48.1095 529.479 51.1519 530.531 54.9336C532.577 51.6069 537.495 48.1095 542.782 48.1095C549.463 48.1095 553.016 51.8343 553.016 59.1702V85.5849H547.331ZM567.001 77.9363V54.0237H560.947V49.0194H567.001V39.0392H572.687V49.0194H580.078V54.0237H572.687V76.7421C572.687 79.4433 573.881 81.4336 576.382 81.4336C577.974 81.4336 579.481 80.7512 580.248 79.8982L581.897 84.1348C580.475 85.4996 578.429 86.4948 575.103 86.4948C569.73 86.4948 567.001 83.3955 567.001 77.9363ZM587.497 67.2737C587.497 56.668 594.461 48.1095 605.576 48.1095C616.719 48.1095 623.683 56.668 623.683 67.2737C623.683 77.851 616.719 86.4948 605.576 86.4948C594.461 86.4948 587.497 77.851 587.497 67.2737ZM617.685 67.2737C617.685 59.8526 613.393 53.1991 605.576 53.1991C597.787 53.1991 593.409 59.8526 593.409 67.2737C593.409 74.7517 597.787 81.4336 605.576 81.4336C613.393 81.4336 617.685 74.7517 617.685 67.2737ZM657.567 85.5849V61.6723C657.567 55.2463 654.327 53.1991 649.409 53.1991C644.946 53.1991 640.711 55.9287 638.579 58.8574V85.5849H632.893V49.0194H638.579V54.3365C641.165 51.2941 646.14 48.1095 651.598 48.1095C659.245 48.1095 663.253 51.9765 663.253 59.9379V85.5849H657.567Z" fill="black"/>
<path fill-rule="evenodd" clip-rule="evenodd" d="M87.9492 174.537V174.542H164.757C190.568 174.542 203.388 157.971 203.388 138.836C203.388 122.264 192.359 108.825 178.373 106.661C190.767 103.899 200.83 92.851 200.83 76.4786C200.83 59.9068 188.408 42.9364 162.398 42.9364L159.286 42.9364C167.685 56.1977 172.546 71.9382 172.546 88.8362C172.546 101.744 169.706 113.979 164.618 124.951C167.423 127.124 168.936 130.417 168.936 134.081C168.936 141.2 164.018 145.926 155.916 145.926H150.834C135.371 163.27 112.958 174.261 87.9492 174.537Z" fill="black"/>
<mask id="mask0_207_2712" style="mask-type:luminance" maskUnits="userSpaceOnUse" x="1" y="3" width="172" height="172">
<path d="M86.98 174.537C39.6646 174.537 1.41992 136.228 1.41992 88.8333C1.41992 41.4387 39.6646 3.13 86.98 3.13C134.295 3.13 172.54 41.4387 172.54 88.8333C172.54 136.228 134.295 174.537 86.98 174.537Z" fill="white"/>
</mask>
<g mask="url(#mask0_207_2712)">
<path fill-rule="evenodd" clip-rule="evenodd" d="M74.0488 173.573C32.8783 167.342 1.41992 131.814 1.41992 88.8362C1.41992 41.4273 39.6532 3.13 86.9829 3.13C111.056 3.13 132.788 13.0495 148.326 29.0412H74.0488V173.573ZM80.729 174.318C82.794 174.467 84.8794 174.542 86.9829 174.542C87.3054 174.542 87.6275 174.541 87.9492 174.537V42.9364H159.286C157.708 40.4446 156.005 38.0404 154.186 35.7325H80.729V174.318ZM155.916 122.264C159.519 122.264 162.453 123.274 164.618 124.951C161.057 132.629 156.395 139.689 150.834 145.926H121.833V122.264H155.916ZM166.377 82.4011C166.377 76.0799 161.63 71.5241 154.751 71.5241H121.833V93.4489H154.751C161.63 93.4489 166.377 88.8931 166.377 82.4011Z" fill="black"/>
</g>
</g>
</g>
<defs>
<clipPath id="clip0_207_2712">
<rect width="867" height="184" fill="white"/>
</clipPath>
<clipPath id="clip1_207_2712">
<rect width="867" height="184.249" fill="white"/>
</clipPath>
</defs>
</svg>
