<?xml version="1.0" encoding="UTF-8" standalone="no"?>
<!-- Created with Inkscape (http://www.inkscape.org/) -->

<svg
   version="1.1"
   id="svg2"
   width="722.34045"
   height="225.33334"
   viewBox="0 0 722.34042 225.33334"
   sodipodi:docname="the-count-horiz-white.ai"
   xmlns:inkscape="http://www.inkscape.org/namespaces/inkscape"
   xmlns:sodipodi="http://sodipodi.sourceforge.net/DTD/sodipodi-0.dtd"
   xmlns="http://www.w3.org/2000/svg"
   xmlns:svg="http://www.w3.org/2000/svg">
  <defs
     id="defs6">
    <clipPath
       clipPathUnits="userSpaceOnUse"
       id="clipPath18">
      <path
         d="M 0,274 H 792.308 V 0 H 0 Z"
         id="path16" />
    </clipPath>
  </defs>
  <sodipodi:namedview
     id="namedview4"
     pagecolor="#ffffff"
     bordercolor="#000000"
     borderopacity="0.25"
     inkscape:showpageshadow="2"
     inkscape:pageopacity="0.0"
     inkscape:pagecheckerboard="0"
     inkscape:deskcolor="#d1d1d1"
     showgrid="false" />
  <g
     id="g10"
     inkscape:groupmode="layer"
     inkscape:label="Page 1"
     transform="matrix(1.3333333,0,0,-1.3333333,-167.03507,295.33332)"
     inkscape:export-filename="g10.svg"
     inkscape:export-xdpi="159.48158"
     inkscape:export-ydpi="159.48158">
    <g
       id="g12">
      <g
         id="g14"
         clip-path="url(#clipPath18)">
        <g
           id="g20"
           transform="translate(139.3393,163.7949)"
           style="fill:#000000">
          <path
             d="M 0,0 V -1.554 H -8.964 V 0 h 2.868 v 24.104 c -3.585,0.12 -5.498,-0.558 -6.294,-4.183 h -1.673 l 1.314,6.852 h 1.594 l -0.159,-1.116 H 2.391 l -0.16,1.116 H 3.825 L 5.14,19.921 H 3.466 c -0.797,3.625 -2.709,4.303 -6.295,4.183 L -2.829,0 Z"
             style="fill:#000000;fill-opacity:1;fill-rule:nonzero;stroke:none"
             id="path22" />
        </g>
        <g
           id="g24"
           transform="translate(146.6708,162.2412)"
           style="fill:#000000">
          <path
             d="M 0,0 V 1.395 H 2.151 V 24.781 L -0.12,24.063 v 1.395 l 7.092,2.391 V 26.454 L 5.139,25.737 v -9.881 c 2.112,1.594 4.263,3.268 7.052,3.268 5.02,0 5.418,-3.507 5.418,-5.737 V 1.395 h 2.112 V 0 h -7.092 v 1.395 h 1.993 v 11.434 c 0,1.832 -0.16,4.064 -3.666,4.064 -2.311,0 -4.183,-1.395 -5.817,-2.869 V 1.395 H 7.171 V 0 Z"
             style="fill:#000000;fill-opacity:1;fill-rule:nonzero;stroke:none"
             id="path26" />
        </g>
        <g
           id="g28"
           transform="translate(183.165,174.9502)"
           style="fill:#000000">
          <path
             d="m 0,0 c -0.398,2.789 -2.589,5.021 -5.578,5.021 -4.223,0 -6.573,-4.224 -5.816,-8.088 z m -11.155,-4.422 c 0.637,-3.467 3.386,-6.216 7.012,-6.216 2.868,0 4.223,1.117 6.494,2.67 1.075,-1.275 1.195,-0.837 -0.08,-1.952 -2.669,-2.351 -4.661,-3.107 -7.45,-3.107 -5.618,0 -8.964,4.422 -8.964,9.76 0,5.418 3.864,9.682 9.203,9.682 4.223,0 7.49,-3.028 8.048,-7.172 z"
             style="fill:#000000;fill-opacity:1;fill-rule:nonzero;stroke:none"
             id="path30" />
        </g>
        <g
           id="g32"
           transform="translate(255.0307,195.4609)"
           style="fill:#000000">
          <path
             d="m 0,0 3.184,-3.077 -14.538,-13.476 -3.183,3.184 c 2.016,1.804 2.653,3.289 2.653,5.941 0,6.367 -6.685,8.701 -13.052,8.701 -17.826,0 -26.103,-15.597 -26.103,-32.256 0,-17.403 11.779,-32.577 28.544,-32.577 8.807,0 16.553,3.078 22.495,9.55 l 3.184,-3.501 c -7.004,-8.701 -16.448,-12.946 -27.589,-12.946 -22.071,0 -35.335,16.554 -35.335,38.412 0,19.63 15.492,37.457 35.229,37.457 8.594,0 14.961,-2.653 21.646,-8.064 z"
             style="fill:#000000;fill-opacity:1;fill-rule:nonzero;stroke:none"
             id="path34" />
        </g>
        <g
           id="g36"
           transform="translate(292.5917,129.5674)"
           style="fill:#000000">
          <path
             d="m 0,0 c 12.627,0 16.872,8.807 16.872,19.63 0,11.885 -6.579,24.724 -19.631,24.724 -11.141,0 -17.296,-9.125 -17.296,-19.418 C -20.055,13.157 -13.264,0 0,0 m 25.36,22.177 c 0,-14.962 -11.884,-25.891 -26.951,-25.891 -15.068,0 -26.952,10.929 -26.952,25.891 0,14.961 11.884,25.89 26.952,25.89 15.067,0 26.951,-10.929 26.951,-25.89"
             style="fill:#000000;fill-opacity:1;fill-rule:nonzero;stroke:none"
             id="path38" />
        </g>
        <g
           id="g40"
           transform="translate(364.5317,133.7051)"
           style="fill:#000000">
          <path
             d="m 0,0 c -5.199,-4.456 -10.929,-7.852 -18.357,-7.852 -11.99,0 -15.174,7.534 -15.174,15.598 v 29.711 l -5.836,-2.016 v 3.713 l 13.795,4.776 V 10.718 c 0,-10.718 3.926,-12.628 9.55,-12.628 5.411,0 11.035,2.228 16.022,7.428 v 31.939 l -5.518,-1.804 v 3.714 L 7.958,43.93 V -3.289 h 5.73 V -7.003 H 0 Z"
             style="fill:#000000;fill-opacity:1;fill-rule:nonzero;stroke:none"
             id="path42" />
        </g>
        <g
           id="g44"
           transform="translate(386.8124,126.7021)"
           style="fill:#000000">
          <path
             d="M 0,0 V 3.714 H 5.624 V 44.566 L 0,42.762 v 3.714 l 13.582,4.457 v -8.489 c 5.093,3.926 10.505,8.489 17.402,8.489 11.247,0 15.916,-6.473 15.916,-16.978 V 3.714 h 5.836 V 0 H 33.637 v 3.714 h 5.305 v 28.861 c 0,5.2 -0.424,12.415 -9.762,12.415 -6.897,0 -10.611,-3.289 -15.598,-7.427 V 3.714 H 19.1 V 0 Z"
             style="fill:#000000;fill-opacity:1;fill-rule:nonzero;stroke:none"
             id="path46" />
        </g>
        <g
           id="g48"
           transform="translate(445.913,175.0879)"
           style="fill:#000000">
          <path
             d="m 0,0 c 5.412,1.91 9.975,7.641 11.566,13.264 l 2.653,-0.743 V 1.698 H 25.148 L 24.512,-2.971 H 14.219 v -34.485 c 0,-5.094 1.273,-6.791 5.093,-6.791 2.016,0 4.138,0.637 6.155,2.122 l 2.015,-2.122 c -2.652,-3.184 -7.851,-4.987 -11.883,-4.987 -7.003,0 -9.338,1.91 -9.338,10.928 V -2.759 H 0 Z"
             style="fill:#000000;fill-opacity:1;fill-rule:nonzero;stroke:none"
             id="path50" />
        </g>
        <g
           id="g52"
           transform="translate(218.1684,108.7041)">
          <path
             d="M 0,0 -7.661,-17.094 H 7.613 Z m 17.094,-29.352 h -4.07 l -3.927,8.859 H -9.146 l -3.974,-8.859 h -3.879 L -1.724,4.405 h 3.543 z"
             style="fill:#841702;fill-opacity:1;fill-rule:nonzero;stroke:none"
             id="path54" />
        </g>
        <g
           id="g56"
           transform="translate(272.3154,88.5459)">
          <path
             d="m 0,0 h -0.191 l -12.21,17.908 V -9.193 h -3.687 v 33.517 h 3.83 l 12.21,-18.291 12.21,18.291 h 3.831 V -9.193 H 12.21 v 27.149 z"
             style="fill:#841702;fill-opacity:1;fill-rule:nonzero;stroke:none"
             id="path58" />
        </g>
        <g
           id="g60"
           transform="translate(325.1723,93.6689)">
          <path
             d="m 0,0 c 0,-9.768 -5.602,-14.843 -13.981,-14.843 -8.284,0 -13.935,5.075 -13.935,14.556 v 19.488 h 3.783 V -0.048 c 0,-7.229 3.831,-11.3 10.247,-11.3 6.177,0 10.103,3.735 10.103,11.061 V 19.201 H 0 Z"
             style="fill:#841702;fill-opacity:1;fill-rule:nonzero;stroke:none"
             id="path62" />
        </g>
        <g
           id="g64"
           transform="translate(346.1396,97.9307)">
          <path
             d="m 0,0 c 7.47,-1.628 10.917,-4.357 10.917,-9.528 0,-5.794 -4.788,-9.529 -11.444,-9.529 -5.315,0 -9.672,1.772 -13.694,5.363 l 2.346,2.777 c 3.496,-3.16 6.847,-4.74 11.492,-4.74 4.501,0 7.469,2.345 7.469,5.746 0,3.16 -1.675,4.932 -8.714,6.416 -7.709,1.676 -11.252,4.166 -11.252,9.72 0,5.363 4.644,9.193 11.012,9.193 4.885,0 8.38,-1.389 11.78,-4.118 L 7.709,8.38 C 4.597,10.917 1.484,12.019 -1.963,12.019 -6.32,12.019 -9.098,9.624 -9.098,6.56 -9.098,3.352 -7.374,1.58 0,0"
             style="fill:#841702;fill-opacity:1;fill-rule:nonzero;stroke:none"
             id="path66" />
        </g>
        <path
           d="m 368.88,79.353 h -3.783 v 33.518 h 3.783 z"
           style="fill:#841702;fill-opacity:1;fill-rule:nonzero;stroke:none"
           id="path68" />
        <g
           id="g70"
           transform="translate(394.0151,78.7783)">
          <path
             d="m 0,0 c -9.672,0 -16.807,7.613 -16.807,17.285 0,9.576 7.087,17.381 16.951,17.381 6.081,0 9.72,-2.154 13.071,-5.314 L 10.63,26.574 c -2.825,2.682 -5.985,4.597 -10.534,4.597 -7.422,0 -12.976,-5.985 -12.976,-13.79 0,-7.805 5.602,-13.886 12.976,-13.886 4.596,0 7.613,1.772 10.821,4.836 l 2.49,-2.442 C 9.912,2.346 6.081,0 0,0"
             style="fill:#841702;fill-opacity:1;fill-rule:nonzero;stroke:none"
             id="path72" />
        </g>
        <g
           id="g74"
           transform="translate(428.1503,108.7041)">
          <path
             d="M 0,0 -7.661,-17.094 H 7.613 Z m 17.094,-29.352 h -4.07 l -3.926,8.859 H -9.146 l -3.974,-8.859 h -3.879 L -1.724,4.405 h 3.543 z"
             style="fill:#841702;fill-opacity:1;fill-rule:nonzero;stroke:none"
             id="path76" />
        </g>
        <g
           id="g78"
           transform="translate(451.8466,112.8701)">
          <path
             d="m 0,0 h 3.783 v -30.022 h 18.865 v -3.496 H 0 Z"
             style="fill:#841702;fill-opacity:1;fill-rule:nonzero;stroke:none"
             id="path80" />
        </g>
        <g
           id="g82"
           transform="translate(616.662,59.707)">
          <path
             d="M 0,0 C -2.589,1.138 -3.992,1.483 -8.247,2.378 L -14.51,6.2 c -0.616,0.397 -0.92,0.929 -0.926,1.67 -0.005,0.732 -0.074,1.463 -0.111,2.109 -0.765,0.352 -1.195,0.004 -1.445,-0.413 -1.117,-1.866 -1.286,-4.112 -1.507,-6.46 -0.224,-2.373 -0.425,-6.805 -1.522,-9.129 -2.264,-0.382 -4.559,-0.674 -6.879,-0.873 40.043,3.394 72.123,34.708 76.703,74.401 C 46.3,37.286 26.792,11.877 0,0"
             style="fill:#ffffff;fill-opacity:1;fill-rule:nonzero;stroke:none"
             id="path84" />
        </g>
        <g
           id="g86"
           transform="translate(554.6191,142.3677)">
          <path
             d="m 0,0 c -0.42,-0.855 -0.735,-1.81 -1.116,-2.704 -0.224,-0.523 -0.277,-1.258 -0.838,-1.399 -0.38,0.472 -0.204,0.971 -0.155,1.422 0.264,2.441 0.322,4.897 10e-4,7.427 -0.201,1.577 -0.156,3.146 0.013,4.768 C -0.999,9.398 -0.254,8.907 -0.006,7.341 0.11,6.607 -0.211,5.354 0.262,4.896 -0.008,4.917 0.125,0.254 0,0 m -2.055,-22.05 c -1.215,1.9 -2.465,3.768 -3.433,5.84 -0.753,1.607 -1.631,3.296 -3.552,4.056 -0.849,0.336 -0.979,1.253 -0.609,2.173 0.249,0.621 0.524,1.231 0.793,1.843 0.994,2.272 0.806,3.343 -0.888,5.132 -0.107,0.113 -0.142,0.295 -0.229,0.485 0.524,1.787 1.664,3.188 3.101,4.651 0.498,-1.081 -0.197,-1.88 -0.225,-2.719 -0.029,-0.896 -0.059,-1.793 -0.092,-2.818 0.46,-0.793 1.536,-0.593 2.314,-1.039 0.002,-0.635 -0.191,-1.254 0.288,-1.886 0.96,-1.266 1.797,-2.626 2.701,-3.936 0.076,-0.11 0.443,-0.92 0.241,-1.434 l -0.084,-2.122 c -0.63,-1.997 0.802,-9.99 -0.326,-8.226 m -0.941,-25.012 c -0.074,-0.595 -0.668,-1.024 -1.285,-0.94 -0.48,0.066 -0.984,0.207 -1.397,0.45 -1.133,0.667 -1.836,1.688 -2.124,2.97 -0.238,1.058 -0.47,2.12 -0.638,3.191 -0.351,2.225 -0.663,4.456 -0.977,6.687 -0.097,0.69 -0.044,1.36 0.646,1.753 0.652,0.371 1.359,0.652 1.986,1.057 0.677,0.438 1.289,0.976 2.027,1.545 0.663,-1.117 0.649,-2.208 0.75,-3.255 0.368,-3.82 0.714,-7.644 1.043,-11.469 0.057,-0.658 0.05,-1.334 -0.031,-1.989 m -7.419,41.894 c -0.047,-0.066 -0.107,-0.141 -0.145,-0.2 -0.47,0.393 -0.787,0.652 -1.077,0.854 -0.095,0.067 -0.194,0.129 -0.288,0.183 -0.097,0.057 -0.2,0.112 -0.304,0.161 -0.203,0.094 -0.422,0.18 -0.705,0.272 -0.335,0.109 -0.75,0.229 -1.303,0.388 -0.401,0.116 -0.803,0.228 -1.196,0.366 -2.442,0.858 -3.559,3.774 -1.233,6.225 0.551,0.58 0.924,1.157 1.045,1.914 0.09,0.564 0.142,1.134 0.233,1.892 1.026,-1.683 1.032,-3.385 0.994,-5.025 0.998,-0.297 1.104,1.197 2.203,0.659 -0.061,-0.481 -0.266,-1.053 -0.163,-1.563 0.127,-0.629 0.529,-1.199 0.776,-1.808 0.124,-0.306 0.265,-0.653 0.234,-0.965 -0.12,-1.222 0.336,-2.236 0.993,-3.207 0.016,-0.023 -0.017,-0.081 -0.064,-0.146 m -1.386,-12.781 c -0.394,-1.158 -1.295,-1.925 -2.456,-2.313 -0.495,-0.166 -0.999,-0.109 -1.242,0.665 0.757,1.058 1.466,2.227 1.718,3.661 0.157,0.894 0.924,1.528 2.046,2.112 0.515,-1.57 0.36,-2.877 -0.066,-4.125 m -7.034,7.969 c -0.38,-0.285 -0.71,-0.637 -1.337,-1.208 0.035,1.343 0.303,2.143 1.238,2.576 0.752,0.348 1.518,0.684 2.308,0.928 2.035,0.63 3.649,-0.389 3.985,-2.515 0.041,-0.264 -0.138,-0.698 -0.353,-0.832 -0.231,-0.144 -0.673,-0.126 -0.934,0.003 -0.355,0.175 -0.629,0.518 -0.931,0.796 -1.363,1.254 -2.517,1.338 -3.976,0.252 M -6.261,9.161 C -5.516,9.001 -4.896,8.869 -4.035,8.685 -4.339,7.526 -4.537,6.635 -4.82,5.772 -4.901,5.526 -5.227,5.361 -5.604,5.002 -6.14,6.475 -6.355,7.722 -6.261,9.161 M 3.274,4.39 C 3.678,5.829 4.371,7.125 5.482,8.45 6.236,7.388 5.891,6.663 5.586,6 5.118,4.983 4.991,3.735 3.94,3.098 3.206,3.371 3.141,3.914 3.274,4.39 M 4.35,26.284 c -0.231,0.836 0.117,1.757 0.772,2.282 1.036,0.83 1.535,1.935 2.102,3.058 0.558,1.106 1.243,2.153 1.937,3.183 0.1,0.147 0.688,0.182 0.838,0.042 0.589,-0.551 0.661,-1.203 0.321,-1.807 C 9.915,32.322 9.271,31.645 9.14,30.879 8.771,28.725 7.637,26.962 6.407,25.292 5.547,24.122 4.754,23.015 4.37,21.441 4.3,21.655 4.137,21.888 4.175,22.081 4.447,23.475 4.75,24.835 4.35,26.284 m 6.417,18.633 c 1.187,-0.594 2.018,-0.964 2.798,-1.42 0.312,-0.183 0.511,-0.556 0.777,-0.859 -0.37,-0.535 -0.733,-0.91 -0.913,-1.359 -0.214,-0.53 -0.271,-1.124 -0.397,-1.69 -0.037,-0.163 -0.066,-0.329 -0.124,-0.484 -0.171,-0.457 -1.007,-0.932 -1.45,-0.698 -0.308,0.162 -0.605,0.589 -0.66,0.937 -0.169,1.069 -0.266,2.156 -0.297,3.238 -0.019,0.645 0.14,1.294 0.266,2.335 m 7.13,-64.274 c 1.326,0.907 2.819,0.862 4.412,1.021 1.102,-0.978 1.716,-2.027 2.147,-3.207 -1.173,-2.466 -3.27,-3.226 -5.708,-3.36 -0.38,-0.021 -0.854,0.13 -1.148,0.369 -1.565,1.273 -1.354,4.048 0.297,5.177 m 2.233,61.438 c 0.218,0.313 0.624,0.653 0.974,0.687 1.217,0.119 2.221,0.616 3.207,1.307 0.524,0.367 1.221,0.592 1.865,0.665 2.071,0.235 4.151,0.41 6.232,0.521 0.758,0.04 1.37,0.235 1.604,0.942 0.512,1.557 1.702,1.683 3.03,1.546 0.813,-0.084 1.621,-0.24 2.517,-0.376 0.172,0.598 0.27,1.082 0.452,1.532 0.37,0.919 1.404,1.124 1.992,0.366 0.668,-0.86 1.358,-1.788 1.179,-2.95 -0.161,-1.031 0.288,-1.778 0.806,-2.55 0.325,-0.485 0.724,-0.953 0.908,-1.491 0.149,-0.434 0.216,-1.096 -0.013,-1.421 -0.734,-1.037 -0.914,-2.075 -0.675,-3.313 0.153,-0.796 -0.441,-1.47 -1.302,-1.565 -1.489,-0.164 -3.014,-0.629 -4.484,-0.113 -1.633,0.573 -3.144,0.294 -4.635,-0.345 -1.177,-0.503 -2.3,-0.48 -3.359,0.2 -0.727,0.465 -1.465,0.667 -2.329,0.77 -1.318,0.157 -2.665,0.441 -3.656,1.481 -1.001,1.053 -2.101,1.855 -3.615,2.089 -0.877,0.136 -1.221,1.27 -0.698,2.018 m 24.42,10.056 c 0.216,0.069 0.681,-0.142 0.797,-0.359 0.487,-0.919 1.287,-1.244 2.231,-1.388 0.328,-0.05 0.659,-0.116 0.97,-0.227 0.804,-0.288 1.317,-0.886 1.2,-1.689 -0.165,-1.141 -0.442,-2.278 -0.81,-3.37 -0.126,-0.373 -0.669,-0.604 -0.991,-0.875 -0.272,0.202 -0.461,0.271 -0.524,0.4 -0.62,1.271 -1.279,2.491 -2.308,3.517 -0.864,0.86 -1.019,2.071 -1.047,3.246 -0.005,0.259 0.257,0.674 0.482,0.745 m -7.904,-71.515 c 0.156,0.126 0.674,-0.002 0.881,-0.18 0.302,-0.259 0.508,-0.652 0.697,-1.019 0.474,-0.922 0.318,-1.666 -0.544,-2.126 -0.867,-0.463 -1.764,-0.925 -2.779,-0.905 -0.099,0.113 -0.193,0.17 -0.205,0.239 -0.299,1.789 0.695,2.974 1.95,3.991 M 9.162,-81.93 c -0.319,1.827 -1.445,6.741 -1.934,10.147 -0.089,0.615 -0.745,4.719 -0.956,6.21 -0.202,1.425 -1.119,4.616 -1.149,4.857 -0.311,2.436 -1.457,4.613 -2.118,6.939 -0.182,0.639 -0.274,1.314 -0.323,1.978 -0.067,0.886 0.294,1.636 0.922,2.256 0.448,0.443 0.975,0.688 1.594,0.448 0.782,-0.302 1.544,-0.655 2.311,-0.993 0.568,-0.251 0.995,-0.657 1.106,-1.28 0.274,-1.517 1.244,-2.313 2.663,-2.674 1.127,-0.286 1.78,-1.165 2.341,-2.22 0.763,0.439 1.317,0.758 1.937,1.115 0.378,-0.266 0.774,-0.545 1.218,-0.857 0.206,0.104 0.511,0.157 0.613,0.329 0.244,0.414 0.537,0.878 0.556,1.333 0.101,2.266 0.961,4.177 2.453,5.855 0.32,0.36 0.502,0.846 0.735,1.281 0.27,0.508 0.452,1.084 0.808,1.518 0.401,0.488 0.542,0.997 0.628,1.594 0.144,0.987 0.363,1.963 0.581,2.937 0.122,0.539 0.122,0.539 0.174,0.876 l -0.077,0.5 0.389,0.6 c 0.686,1.061 0.86,2.168 1.251,1.967 0.872,-0.012 1.279,0.723 1.807,1.215 1.242,1.159 2.728,1.577 4.366,1.646 0.998,0.043 1.999,0.07 2.992,0.176 0.477,0.051 1.039,0.144 1.39,0.429 1.656,1.344 3.414,0.722 4.956,0.052 1.001,-0.434 1.882,-0.634 2.868,-0.429 1.31,0.271 2.623,0.577 3.889,1.004 1.091,0.368 1.383,1.277 0.698,2.19 -0.671,0.893 -1.183,1.819 -1.404,2.91 -0.233,1.155 -0.955,1.92 -1.96,2.476 -0.732,0.405 -1.477,0.803 -2.149,1.296 -0.905,0.665 -0.94,1.584 -0.045,2.317 0.567,0.466 1.25,0.869 1.948,1.082 1.295,0.394 2.513,0.867 3.643,1.645 0.59,0.407 1.377,0.666 2.095,0.717 1.248,0.089 2.492,0.045 3.738,0.317 0.982,0.214 1.594,-0.449 1.522,-1.465 -0.059,-0.835 -0.263,-1.667 -0.247,-2.498 0.016,-0.732 0.247,-1.459 0.383,-2.187 -2.587,-0.584 -2.585,-0.584 -3.105,-3.359 -0.078,-0.412 -0.218,-0.816 -0.257,-1.231 -0.127,-1.336 -0.542,-2.457 -1.955,-2.934 -0.15,-0.051 -0.272,-0.194 -0.398,-0.303 -0.472,-0.407 -0.373,-1.19 0.21,-1.464 0.294,-0.139 0.652,-0.316 0.943,-0.263 1.878,0.349 2.776,-0.863 3.526,-2.22 0.358,-0.649 0.503,-1.415 0.754,-2.124 0.106,-0.301 0.239,-0.592 0.415,-1.023 0.387,0.199 0.656,0.348 0.935,0.478 0.728,0.338 1.304,0.191 1.344,-0.437 0.205,-3.164 0.946,-6.319 0.212,-9.504 -0.209,-0.907 -0.497,-1.761 -1.42,-2.511 -0.243,0.43 -0.52,0.737 -0.596,1.088 -0.246,1.145 -0.416,2.306 -0.62,3.461 -0.116,0.658 -0.194,1.33 -0.386,1.966 -0.085,0.283 -0.367,0.585 -0.637,0.72 -1.097,0.545 -2.941,-0.011 -3.593,-1.03 -0.451,-0.705 -0.439,-1.648 0.224,-2.039 2.631,-1.553 3.528,-4.339 5.088,-6.731 -0.188,-0.516 -0.337,-0.986 -0.527,-1.437 -0.288,-0.686 -0.841,-1.004 -1.565,-1.088 -1.166,-0.135 -2.34,-0.239 -3.492,-0.454 -1.329,-0.247 -1.765,-1.095 -1.382,-2.414 0.302,-1.039 0.469,-2.129 0.876,-3.122 0.568,-1.386 1.26,-2.726 1.986,-4.038 0.335,-0.607 1.274,-0.592 1.742,-0.037 0.323,0.38 0.59,0.813 0.838,1.248 2.171,3.806 3.738,7.823 4.697,12.123 0.952,4.263 1.705,8.545 2.027,12.893 0.17,2.303 0.764,4.465 1.714,6.526 1.731,3.761 2.615,7.785 3.737,11.731 0.699,2.46 0.522,4.993 -0.009,7.483 -0.474,2.223 -0.882,4.453 -0.628,6.733 0.176,1.58 0.456,3.149 0.684,4.723 0.034,0.239 0.034,0.482 0.05,0.726 -0.606,0.345 -0.772,-0.155 -0.91,-0.481 -0.422,-1.004 -0.781,-2.035 -1.172,-3.052 -0.362,-0.939 -0.762,-1.815 -1.576,-2.521 -0.813,-0.705 -1.404,-1.659 -2.157,-2.443 -0.908,-0.945 -1.232,-1.964 -0.689,-3.203 0.132,-0.3 0.219,-0.62 0.379,-1.077 -0.405,-0.279 -0.754,-0.653 -1.178,-0.785 -0.672,-0.208 -1.322,0.016 -1.875,0.47 -0.809,0.664 -1.242,1.565 -1.607,2.513 -0.66,1.722 -1.256,3.473 -2.006,5.156 -0.715,1.603 -1.528,3.171 -2.424,4.68 -0.411,0.692 -1.069,1.282 -1.723,1.775 -0.673,0.507 -1.515,0.393 -2.036,-0.269 -0.562,-0.714 -1.05,-1.516 -1.422,-2.346 -0.443,-0.991 -0.664,-2.082 -1.104,-3.075 -0.369,-0.828 -0.813,-1.666 -1.404,-2.342 -1.212,-1.386 -2.514,-2.699 -3.846,-3.972 -0.394,-0.375 -0.994,-0.658 -1.535,-0.731 -1.167,-0.155 -2.363,-0.123 -3.437,0.464 -1.149,0.628 -2.339,0.882 -3.636,0.635 -0.326,-0.062 -0.669,-0.053 -1.004,-0.044 -1.431,0.037 -2.971,1.311 -3.174,2.711 -0.052,0.367 0.135,0.811 0.321,1.163 1.05,1.979 1.042,1.944 -0.673,3.15 -0.675,0.475 -1.258,1.087 -1.846,1.674 -0.765,0.766 -1.493,1.569 -2.261,2.381 -0.652,-0.159 -1.205,-0.367 -1.77,-0.412 -0.743,-0.058 -1.521,-0.102 -2.241,0.051 -1.558,0.331 -2.321,1.425 -1.97,2.964 0.491,2.157 1.315,4.124 3.435,5.309 2.558,1.43 5.039,3.002 7.562,4.497 1.544,0.914 3.234,1.427 5.015,1.516 4.201,0.21 8.357,-0.079 12.443,-1.192 1.204,-0.329 2.472,-0.431 3.714,-0.613 1.657,-0.242 3.316,-0.478 4.979,-0.682 0.579,-0.072 1.215,-0.191 1.748,-0.03 1.762,0.534 3.279,-0.115 4.846,-0.752 1.931,-0.785 3.354,-2.225 4.728,-3.675 0.594,-0.626 0.819,-1.622 1.142,-2.476 0.317,-0.837 0.319,-1.79 0.972,-2.73 0.289,0.343 0.611,0.553 0.657,0.812 0.144,0.815 0.357,1.675 0.233,2.469 -0.442,2.812 -0.783,5.626 -0.9,8.471 -0.023,0.568 -0.287,1.13 -0.463,1.687 -0.3,0.96 -0.654,1.904 -0.922,2.873 -0.321,1.151 -0.803,2.208 -1.612,3.09 -0.868,0.948 -1.405,2.069 -1.863,3.252 -0.849,2.188 -1.716,4.37 -2.624,6.533 -0.413,0.983 -0.683,2.022 -0.002,2.869 0.795,0.987 1.991,1.11 3.215,0.819 0.961,-0.228 1.928,-0.429 2.935,-0.652 0.932,1.891 0.035,3.487 -0.441,5.04 -0.549,0.683 -1.81,0.499 -1.711,1.695 1.708,0.604 1.705,0.599 3.253,-0.337 0.204,-0.123 0.456,-0.188 0.693,-0.225 0.323,-0.051 0.654,-0.049 1.064,-0.075 0.444,0.939 -0.14,1.616 -0.453,2.409 -0.256,-0.013 -0.523,-0.105 -0.716,-0.023 -1.618,0.687 -2.977,1.716 -3.916,3.222 -0.248,0.398 0.167,1.047 0.679,1.141 0.819,0.152 1.649,0.251 2.466,0.416 0.54,0.11 0.878,0.455 0.917,1.04 0.042,0.64 -0.251,1.202 -0.95,1.257 -1.702,0.135 -2.331,1.002 -2.257,2.644 0.025,0.537 -0.302,1.091 -0.467,1.631 -0.666,0.05 -1.214,0.092 -1.965,0.148 0.575,0.726 1.018,1.285 1.471,1.856 -1.813,1.244 -2.166,1.254 -5.514,0.188 -0.153,0.232 -0.459,0.487 -0.472,0.757 -0.062,1.239 -0.822,1.892 -1.968,2.308 0.265,0.291 0.45,0.453 0.583,0.649 0.579,0.859 0.163,1.999 -0.774,2.085 -0.409,0.036 -0.831,-0.034 -1.244,-0.078 -0.326,-0.034 -0.647,-0.102 -0.965,-0.154 -0.309,0.353 -0.575,0.659 -0.84,0.961 -0.169,-0.021 -0.368,0.013 -0.484,-0.07 -1.085,-0.771 -2.076,-1.7 -3.607,-1.446 -0.286,0.047 -0.676,-0.403 -0.987,-0.661 -1.058,-0.873 -1.052,-0.88 -2.258,0.274 -1.594,-2.614 -3.985,-2.986 -6.709,-2.321 -0.732,0.178 -1.432,0.496 -2.166,0.658 -1.309,0.288 -2.583,0.438 -3.943,-0.045 -1.409,-0.5 -2.934,-0.666 -4.404,-0.999 -1.549,-0.351 -3.1,-0.699 -4.637,-1.098 -1.297,-0.336 -2.56,-0.742 -3.942,-0.685 -0.631,0.026 -1.29,-0.279 -1.911,-0.502 -0.784,-0.28 -1.519,-0.735 -2.32,-0.925 -1.095,-0.261 -1.808,-0.794 -2.075,-1.912 -0.072,-0.299 -0.286,-0.563 -0.484,-0.933 -0.595,0.475 -1.063,1.152 -1.585,1.197 -0.881,0.076 -1.848,-0.113 -2.683,-0.439 -0.897,-0.351 -1.939,-0.486 -2.812,-1.36 0.367,-0.237 0.61,-0.51 0.886,-0.55 0.991,-0.144 1.992,-0.224 2.992,-0.3 0.635,-0.048 1.194,-0.274 1.408,-0.872 0.118,-0.331 0.08,-0.891 -0.132,-1.118 C 10.472,46.46 9.868,46.333 9.588,46.472 9.089,46.718 8.706,47.2 8.289,47.569 6.375,46.774 6.376,46.776 4.17,47.176 3.841,47.236 3.509,47.3 3.176,47.316 2.271,47.361 1.91,46.972 1.876,45.942 1.865,45.632 1.874,45.322 1.874,44.916 1.247,45.035 0.778,45.124 0.273,45.22 -0.548,44.346 -0.322,43.363 -0.14,42.372 0.054,41.315 1,41.047 1.819,40.626 0.673,39.591 0.078,39.4 -0.569,40.115 c -0.845,0.933 -2.138,1.629 -1.928,3.281 0.054,0.42 -0.548,0.924 -0.953,1.552 -0.512,-0.427 -0.872,-0.728 -1.234,-1.028 -0.305,-0.253 -0.611,-0.506 -0.936,-0.774 1.168,-1.741 2.263,-3.373 3.361,-5.01 -0.419,-0.937 -0.811,-1.816 -1.172,-2.621 -1.256,-0.409 -2.16,0.545 -3.38,0.581 -0.285,-0.767 -0.569,-1.532 -0.827,-2.227 -1.077,-0.565 -2.026,-0.209 -3.094,0.139 -0.324,-0.55 -0.593,-1.145 -0.985,-1.644 -0.409,-0.521 -0.925,-0.962 -1.413,-1.416 -0.304,-0.283 -0.61,-0.671 -0.976,-0.76 -1.246,-0.305 -1.951,-1.167 -2.529,-2.584 -0.322,0.85 -0.511,1.351 -0.72,1.902 -1.465,0.052 -2.154,-0.996 -2.203,-2 -0.09,-1.851 -1.005,-3.331 -1.631,-4.948 -0.061,-0.157 -0.15,-0.309 -0.177,-0.471 -0.403,-2.466 -0.902,-4.922 -1.161,-7.404 -0.219,-2.087 -0.391,-4.168 -0.887,-6.214 -0.176,-0.725 -0.2,-1.486 -0.29,-2.231 -0.131,-1.082 -0.143,-2.194 -0.418,-3.237 -0.288,-1.089 -0.349,-2.135 -0.149,-3.226 0.076,-0.408 0.175,-0.859 0.079,-1.244 -0.614,-2.429 -0.926,-4.943 -2.111,-7.215 -0.732,-1.406 -1.342,-2.877 -2.011,-4.331 0.123,-0.725 0.525,-1 1.238,-0.737 0.37,0.137 0.728,0.307 1.282,0.543 0.122,-1.207 -0.032,-2.263 -0.246,-3.281 -0.071,-0.34 -0.149,-0.676 -0.227,-1.011 0.033,-0.076 0.053,-0.168 0.081,-0.251 0.027,-0.083 0.061,-0.157 0.119,-0.194 1.338,-0.88 1.888,-2.15 2.306,-3.684 0.774,-2.836 2.092,-5.479 3.996,-7.751 0.626,-0.748 1.529,-1.281 2.351,-1.846 0.548,-0.376 1.235,-0.56 1.754,-0.965 0.512,-0.401 0.89,-0.973 1.398,-1.55 1.07,-0.047 2.127,1.104 3.439,0.133 0.028,-0.26 0.182,-0.682 0.094,-1.045 -0.347,-1.428 -0.168,-2.826 0.052,-4.242 0.349,-2.237 0.645,-4.482 0.967,-6.723 0.059,-0.415 0.142,-0.827 0.203,-1.241 0.131,-0.878 0.241,-3.418 0.391,-4.423 0.291,-1.954 0.277,-3.417 0.408,-5.002 0.075,-0.904 0.014,-1.82 0.014,-2.819 0.014,-1.874 -0.711,-12.546 -0.76,-13.102 -0.218,-2.477 -0.677,-6.952 -1.782,-8.027 -2.587,1.358 -5.096,2.846 -7.517,4.456 -1.291,0.859 -2.559,1.748 -3.8,2.674 -18.037,13.473 -30.534,33.97 -33.404,57.401 4.926,-40.387 38.34,-71.977 79.54,-74.056 -4.303,0.218 -8.521,0.76 -12.633,1.601 -0.924,1.412 -1.635,5.356 -1.788,6.227"
             style="fill:#ffffff;fill-opacity:1;fill-rule:nonzero;stroke:none"
             id="path88" />
        </g>
        <g
           id="g90"
           transform="translate(596.2255,99.0225)">
          <path
             d="m 0,0 c -1.132,-0.032 -2.285,-0.098 -3.487,-0.747 0.339,-1.394 1.276,-1.699 2.25,-1.919 0.395,-0.089 0.82,-0.086 1.229,-0.065 0.988,0.05 1.625,0.529 1.631,1.18 C 1.631,-0.782 0.878,0.025 0,0"
             style="fill:#ffffff;fill-opacity:1;fill-rule:nonzero;stroke:none"
             id="path92" />
        </g>
        <g
           id="g94"
           transform="translate(594.8554,86.3003)">
          <path
             d="m 0,0 c -0.65,0.322 -6.269,0.926 -6.942,0.586 -1.848,-0.933 -3.985,-1.275 -5.683,-2.721 0.232,-1.229 0.462,-2.441 0.686,-3.623 0.704,-0.555 1.47,-0.428 2.212,-0.337 2.922,0.356 5.747,1.157 8.576,1.934 0.769,0.211 1.321,0.705 1.805,1.299 C 1.563,-1.747 1.311,-0.649 0,0"
             style="fill:#ffffff;fill-opacity:1;fill-rule:nonzero;stroke:none"
             id="path96" />
        </g>
        <g
           id="g98"
           transform="translate(538.5751,145.0732)">
          <path
             d="m 0,0 c -0.284,-0.385 -0.523,-0.661 -0.687,-0.977 -0.024,-0.047 0.306,-0.396 0.479,-0.402 0.461,-0.016 0.786,0.26 0.75,0.746 C 0.529,-0.461 0.274,-0.307 0,0"
             style="fill:#841702;fill-opacity:1;fill-rule:nonzero;stroke:none"
             id="path100" />
        </g>
        <g
           id="g102"
           transform="translate(575.4472,182.4307)">
          <path
             d="m 0,0 c 1.514,-0.234 2.614,-1.036 3.615,-2.089 0.99,-1.04 2.338,-1.324 3.656,-1.481 0.864,-0.103 1.602,-0.305 2.329,-0.77 1.059,-0.68 2.182,-0.703 3.359,-0.2 1.491,0.639 3.002,0.918 4.635,0.345 1.469,-0.516 2.995,-0.051 4.484,0.113 0.86,0.095 1.455,0.769 1.302,1.565 -0.239,1.238 -0.059,2.276 0.675,3.313 0.229,0.325 0.162,0.987 0.013,1.421 -0.184,0.538 -0.583,1.006 -0.908,1.491 -0.518,0.772 -0.967,1.519 -0.806,2.55 0.179,1.162 -0.511,2.09 -1.179,2.95 C 20.587,9.966 19.553,9.761 19.183,8.842 19.001,8.392 18.903,7.908 18.73,7.31 17.835,7.446 17.027,7.602 16.214,7.686 14.886,7.823 13.696,7.697 13.184,6.14 12.95,5.433 12.338,5.238 11.58,5.198 9.499,5.087 7.419,4.912 5.348,4.677 4.704,4.604 4.007,4.379 3.482,4.012 2.497,3.321 1.493,2.824 0.276,2.705 -0.074,2.671 -0.48,2.331 -0.698,2.018 -1.221,1.27 -0.877,0.136 0,0"
             style="fill:#841702;fill-opacity:1;fill-rule:nonzero;stroke:none"
             id="path104" />
        </g>
        <g
           id="g106"
           transform="translate(550.6113,108.7642)">
          <path
             d="M 0,0 C -0.102,1.047 -0.087,2.137 -0.75,3.254 -1.488,2.685 -2.101,2.148 -2.777,1.71 -3.404,1.304 -4.111,1.023 -4.763,0.653 -5.453,0.26 -5.506,-0.411 -5.409,-1.1 c 0.314,-2.231 0.626,-4.462 0.976,-6.688 0.168,-1.07 0.401,-2.132 0.639,-3.191 0.288,-1.281 0.991,-2.302 2.124,-2.97 0.413,-0.243 0.917,-0.384 1.397,-0.449 0.617,-0.085 1.21,0.344 1.285,0.94 0.081,0.655 0.088,1.331 0.031,1.989 C 0.714,-7.645 0.368,-3.821 0,0"
             style="fill:#841702;fill-opacity:1;fill-rule:nonzero;stroke:none"
             id="path108" />
        </g>
        <g
           id="g110"
           transform="translate(572.2187,117.8335)">
          <path
             d="M 0,0 C 0.294,-0.239 0.769,-0.39 1.148,-0.369 3.586,-0.235 5.684,0.525 6.856,2.991 6.426,4.171 5.812,5.22 4.709,6.198 3.116,6.039 1.623,6.084 0.298,5.177 -1.354,4.048 -1.564,1.273 0,0"
             style="fill:#841702;fill-opacity:1;fill-rule:nonzero;stroke:none"
             id="path112" />
        </g>
        <g
           id="g114"
           transform="translate(538.3671,143.6943)">
          <path
             d="M 0,0 C -0.173,0.006 -0.503,0.355 -0.479,0.402 -0.315,0.718 -0.076,0.994 0.208,1.379 0.482,1.072 0.737,0.918 0.75,0.746 0.786,0.26 0.461,-0.016 0,0 M 4.908,-3.142 C 4.939,-2.83 4.798,-2.483 4.674,-2.177 4.427,-1.567 4.025,-0.998 3.898,-0.369 3.795,0.141 4,0.713 4.061,1.194 2.962,1.732 2.855,0.239 1.858,0.536 1.896,2.176 1.89,3.877 0.864,5.56 0.772,4.803 0.721,4.232 0.631,3.668 0.51,2.911 0.137,2.334 -0.414,1.754 c -2.326,-2.45 -1.209,-5.367 1.233,-6.225 0.393,-0.138 0.795,-0.25 1.196,-0.365 0.553,-0.16 0.968,-0.28 1.303,-0.389 0.283,-0.092 0.502,-0.178 0.704,-0.272 0.105,-0.049 0.207,-0.104 0.305,-0.16 0.094,-0.055 0.193,-0.117 0.288,-0.184 0.29,-0.201 0.607,-0.46 1.077,-0.853 0.037,0.059 0.098,0.133 0.145,0.199 0.047,0.066 0.08,0.123 0.064,0.146 -0.657,0.971 -1.113,1.986 -0.993,3.207"
             style="fill:#841702;fill-opacity:1;fill-rule:nonzero;stroke:none"
             id="path116" />
        </g>
        <g
           id="g118"
           transform="translate(558.9892,163.8091)">
          <path
             d="M 0,0 C 0.384,1.573 1.177,2.681 2.037,3.85 3.267,5.521 4.4,7.283 4.77,9.438 4.9,10.204 5.545,10.88 5.95,11.601 6.29,12.205 6.218,12.857 5.629,13.407 5.479,13.547 4.891,13.513 4.791,13.365 4.097,12.336 3.412,11.289 2.854,10.183 2.287,9.06 1.788,7.955 0.752,7.125 0.097,6.6 -0.251,5.678 -0.021,4.843 0.38,3.394 0.077,2.033 -0.195,0.64 -0.233,0.447 -0.07,0.214 0,0"
             style="fill:#841702;fill-opacity:1;fill-rule:nonzero;stroke:none"
             id="path120" />
        </g>
        <g
           id="g122"
           transform="translate(602.0419,186.9971)">
          <path
             d="m 0,0 c 0.063,-0.129 0.252,-0.198 0.524,-0.4 0.322,0.27 0.865,0.502 0.991,0.875 0.368,1.092 0.645,2.229 0.81,3.37 0.117,0.803 -0.396,1.4 -1.2,1.689 C 0.814,5.645 0.483,5.711 0.155,5.761 -0.789,5.905 -1.589,6.23 -2.076,7.148 -2.191,7.365 -2.657,7.576 -2.873,7.508 -3.098,7.437 -3.36,7.021 -3.354,6.763 -3.327,5.587 -3.172,4.377 -2.308,3.516 -1.279,2.491 -0.62,1.271 0,0"
             style="fill:#841702;fill-opacity:1;fill-rule:nonzero;stroke:none"
             id="path124" />
        </g>
        <g
           id="g126"
           transform="translate(566.0771,180.7749)">
          <path
             d="M 0,0 C 0.443,-0.234 1.279,0.241 1.45,0.698 1.508,0.853 1.537,1.019 1.574,1.182 1.7,1.748 1.757,2.341 1.971,2.872 2.151,3.32 2.514,3.696 2.884,4.23 2.618,4.534 2.419,4.907 2.107,5.089 1.327,5.546 0.496,5.916 -0.691,6.509 -0.817,5.469 -0.976,4.819 -0.957,4.175 -0.926,3.092 -0.829,2.006 -0.66,0.937 -0.605,0.589 -0.308,0.162 0,0"
             style="fill:#841702;fill-opacity:1;fill-rule:nonzero;stroke:none"
             id="path128" />
        </g>
        <g
           id="g130"
           transform="translate(540.6913,131.3394)">
          <path
             d="M 0,0 C 0.261,-0.128 0.703,-0.146 0.934,-0.003 1.148,0.131 1.328,0.565 1.287,0.829 0.951,2.955 -0.663,3.974 -2.698,3.344 -3.488,3.1 -4.254,2.765 -5.006,2.417 -5.941,1.983 -6.209,1.183 -6.244,-0.16 -5.617,0.411 -5.287,0.764 -4.907,1.048 -3.448,2.134 -2.294,2.05 -0.932,0.796 -0.629,0.518 -0.355,0.175 0,0"
             style="fill:#841702;fill-opacity:1;fill-rule:nonzero;stroke:none"
             id="path132" />
        </g>
        <g
           id="g134"
           transform="translate(540.8378,126.4321)">
          <path
             d="m 0,0 c -0.252,-1.434 -0.961,-2.603 -1.718,-3.661 0.243,-0.775 0.747,-0.832 1.242,-0.666 1.162,0.389 2.062,1.156 2.456,2.313 0.426,1.248 0.582,2.556 0.066,4.126 C 0.924,1.528 0.157,0.893 0,0"
             style="fill:#841702;fill-opacity:1;fill-rule:nonzero;stroke:none"
             id="path136" />
        </g>
        <g
           id="g138"
           transform="translate(589.5204,118.7593)">
          <path
             d="M 0,0 C 1.015,-0.02 1.911,0.443 2.778,0.905 3.641,1.365 3.797,2.109 3.322,3.032 3.134,3.398 2.928,3.792 2.626,4.051 2.419,4.228 1.9,4.356 1.745,4.23 0.489,3.213 -0.504,2.029 -0.205,0.24 -0.193,0.17 -0.1,0.113 0,0"
             style="fill:#841702;fill-opacity:1;fill-rule:nonzero;stroke:none"
             id="path140" />
        </g>
        <g
           id="g142"
           transform="translate(558.5595,145.4653)">
          <path
             d="M 0,0 C 1.051,0.638 1.178,1.886 1.646,2.903 1.95,3.565 2.296,4.291 1.542,5.352 0.431,4.028 -0.263,2.731 -0.666,1.292 -0.8,0.816 -0.734,0.273 0,0"
             style="fill:#841702;fill-opacity:1;fill-rule:nonzero;stroke:none"
             id="path144" />
        </g>
        <g
           id="g146"
           transform="translate(549.7988,148.1396)">
          <path
             d="M 0,0 C 0.283,0.863 0.481,1.754 0.785,2.913 -0.075,3.097 -0.695,3.229 -1.44,3.389 -1.535,1.95 -1.319,0.703 -0.784,-0.77 -0.406,-0.411 -0.081,-0.246 0,0"
             style="fill:#841702;fill-opacity:1;fill-rule:nonzero;stroke:none"
             id="path148" />
        </g>
        <g
           id="g150"
           transform="translate(539.8232,176.4214)">
          <path
             d="m 0,0 c -0.028,-0.029 0.028,-0.211 0.061,-0.215 0.137,-0.017 0.28,0.005 0.42,0.013 C 0.432,-0.058 0.383,0.086 0.332,0.23 0.218,0.157 0.092,0.095 0,0"
             style="fill:#841702;fill-opacity:1;fill-rule:nonzero;stroke:none"
             id="path152" />
        </g>
        <g
           id="g154"
           transform="translate(552.8896,128.5439)">
          <path
             d="m 0,0 0.085,2.122 c 0.201,0.514 -0.165,1.324 -0.241,1.434 -0.905,1.31 -1.741,2.67 -2.701,3.936 -0.48,0.632 -0.287,1.251 -0.289,1.885 -0.778,0.446 -1.854,0.247 -2.314,1.04 0.033,1.025 0.064,1.921 0.093,2.817 0.027,0.839 0.722,1.639 0.224,2.72 -1.436,-1.463 -2.577,-2.864 -3.1,-4.651 0.087,-0.191 0.122,-0.372 0.228,-0.486 C -6.32,9.028 -6.133,7.958 -7.127,5.686 -7.396,5.073 -7.671,4.463 -7.92,3.843 -8.289,2.923 -8.159,2.005 -7.311,1.67 -5.39,0.91 -4.512,-0.779 -3.759,-2.387 -2.79,-4.458 -1.54,-6.327 -0.325,-8.227 0.803,-9.99 -0.63,-1.998 0,0"
             style="fill:#841702;fill-opacity:1;fill-rule:nonzero;stroke:none"
             id="path156" />
        </g>
        <g
           id="g158"
           transform="translate(554.6132,149.7085)">
          <path
             d="m 0,0 c -0.248,1.566 -0.993,2.058 -2.089,2.173 -0.169,-1.622 -0.214,-3.191 -0.014,-4.768 0.322,-2.53 0.264,-4.986 -10e-4,-7.427 -0.048,-0.451 -0.224,-0.95 0.156,-1.421 0.561,0.14 0.614,0.876 0.838,1.398 0.381,0.894 0.696,1.849 1.116,2.704 0.125,0.255 -0.008,4.917 0.262,4.896 C -0.205,-1.986 0.116,-0.734 0,0"
             style="fill:#841702;fill-opacity:1;fill-rule:nonzero;stroke:none"
             id="path160" />
        </g>
        <g
           id="g162"
           transform="translate(666.9775,134.1245)">
          <path
             d="M 0,0 C -0.008,-0.232 -0.017,-0.464 -0.026,-0.696 -0.017,-0.464 -0.008,-0.232 0,0"
             style="fill:#841702;fill-opacity:1;fill-rule:nonzero;stroke:none"
             id="path164" />
        </g>
        <g
           id="g166"
           transform="translate(596.2177,96.291)">
          <path
             d="M 0,0 C -0.409,-0.021 -0.834,-0.023 -1.229,0.066 -2.203,0.285 -3.141,0.59 -3.479,1.984 -2.277,2.633 -1.124,2.699 0.008,2.731 0.886,2.757 1.639,1.95 1.631,1.181 1.625,0.529 0.988,0.051 0,0 m -0.708,-12.853 c -0.484,-0.593 -1.036,-1.087 -1.806,-1.299 -2.829,-0.777 -5.653,-1.578 -8.575,-1.934 -0.742,-0.091 -1.509,-0.218 -2.213,0.337 -0.223,1.183 -0.453,2.395 -0.685,3.624 1.698,1.445 3.835,1.788 5.682,2.72 0.674,0.34 6.292,-0.264 6.943,-0.586 1.31,-0.649 1.563,-1.746 0.654,-2.862 m 25.394,87.362 c -0.043,0.356 -0.145,0.732 -0.122,1.1 0.035,0.534 0.499,0.939 0.731,0.706 0.193,-0.193 0.359,-0.549 0.326,-0.806 -0.058,-0.437 -0.066,-1.025 -0.935,-1 m -81.02,5.407 c -0.032,0.003 -0.089,0.186 -0.061,0.214 0.092,0.095 0.218,0.158 0.332,0.232 v -10e-4 c 0,0 0,0 0.001,0 0.049,-0.144 0.099,-0.288 0.149,-0.432 -0.141,-0.009 -0.283,-0.031 -0.421,-0.013 M 70.574,34.306 v 0.005 c 0.071,0.938 0.12,1.88 0.159,2.826 0.01,0.232 0.019,0.464 0.027,0.696 0.032,0.956 0.054,1.913 0.054,2.875 v 0.001 c 0,46.579 -37.883,84.477 -84.458,84.499 -0.013,0 -0.028,0.001 -0.042,0.001 -45.875,0 -83.328,-36.746 -84.473,-82.35 -0.017,-0.714 -0.027,-1.431 -0.027,-2.15 0,-0.013 0,-0.025 0,-0.038 0.001,-0.793 0.014,-1.583 0.037,-2.371 0.006,-0.245 0.018,-0.49 0.027,-0.735 0.021,-0.566 0.045,-1.131 0.077,-1.694 0.015,-0.262 0.033,-0.523 0.05,-0.785 0.037,-0.565 0.079,-1.128 0.128,-1.69 0.019,-0.23 0.039,-0.46 0.061,-0.689 0.061,-0.651 0.13,-1.3 0.206,-1.946 0.015,-0.129 0.029,-0.258 0.044,-0.386 2.87,-23.432 15.368,-43.929 33.405,-57.401 0.995,-0.588 2.361,-1.591 3.799,-2.675 2.421,-1.61 4.93,-3.097 7.517,-4.455 1.106,1.074 1.564,5.55 1.782,8.027 0.049,0.555 0.775,11.228 0.76,13.101 0,0.999 0.062,1.915 -0.014,2.82 -0.131,1.585 -0.117,3.047 -0.408,5.001 -0.149,1.005 -0.26,3.545 -0.39,4.423 -0.062,0.414 -0.145,0.826 -0.204,1.242 -0.322,2.24 -0.618,4.485 -0.966,6.722 -0.221,1.417 -0.4,2.815 -0.053,4.243 0.089,0.363 -0.066,0.785 -0.094,1.045 -1.311,0.97 -2.369,-0.18 -3.438,-0.133 -0.508,0.577 -0.887,1.148 -1.399,1.549 -0.518,0.406 -1.206,0.59 -1.754,0.966 -0.822,0.565 -1.724,1.097 -2.35,1.845 -1.905,2.272 -3.223,4.916 -3.996,7.752 -0.418,1.534 -0.968,2.803 -2.307,3.684 -0.058,0.037 -0.092,0.11 -0.118,0.193 -0.029,0.083 -0.049,0.176 -0.081,0.252 0.077,0.335 0.155,0.671 0.226,1.01 0.214,1.019 0.368,2.075 0.246,3.281 -0.553,-0.236 -0.912,-0.406 -1.282,-0.542 -0.713,-0.263 -1.115,0.012 -1.238,0.737 0.67,1.454 1.279,2.925 2.012,4.331 1.184,2.272 1.497,4.785 2.11,7.214 0.097,0.385 -0.003,0.836 -0.078,1.245 -0.2,1.091 -0.14,2.136 0.148,3.226 0.276,1.043 0.287,2.155 0.418,3.236 0.09,0.746 0.115,1.507 0.29,2.231 0.496,2.047 0.668,4.128 0.887,6.215 0.26,2.481 0.759,4.938 1.161,7.404 0.027,0.162 0.116,0.314 0.177,0.47 0.626,1.617 1.541,3.098 1.632,4.949 0.049,1.003 0.737,2.052 2.202,2 0.209,-0.551 0.398,-1.053 0.721,-1.902 0.578,1.417 1.283,2.279 2.528,2.584 0.366,0.089 0.673,0.477 0.976,0.759 0.489,0.455 1.004,0.895 1.414,1.416 0.391,0.499 0.661,1.094 0.984,1.645 1.068,-0.349 2.018,-0.704 3.095,-0.139 0.257,0.695 0.542,1.459 0.827,2.226 1.22,-0.036 2.124,-0.989 3.38,-0.58 0.36,0.804 0.753,1.684 1.172,2.621 -1.099,1.637 -2.194,3.268 -3.362,5.009 0.325,0.269 0.631,0.522 0.937,0.775 0.361,0.3 0.721,0.601 1.233,1.028 0.405,-0.628 1.007,-1.132 0.953,-1.553 -0.21,-1.651 1.083,-2.347 1.928,-3.281 0.647,-0.714 1.242,-0.523 2.389,0.512 -0.82,0.421 -1.766,0.689 -1.959,1.745 -0.183,0.992 -0.408,1.975 0.413,2.849 0.505,-0.096 0.973,-0.185 1.6,-0.304 0,0.405 -0.008,0.716 0.002,1.026 0.035,1.029 0.396,1.419 1.3,1.374 0.333,-0.016 0.665,-0.08 0.994,-0.14 2.206,-0.4 2.205,-0.402 4.119,0.393 0.417,-0.37 0.8,-0.851 1.299,-1.098 0.281,-0.138 0.884,-0.011 1.102,0.221 0.212,0.227 0.25,0.787 0.132,1.118 -0.214,0.598 -0.774,0.824 -1.409,0.872 -1,0.075 -2.001,0.156 -2.992,0.3 -0.276,0.04 -0.518,0.313 -0.885,0.549 0.873,0.874 1.915,1.01 2.811,1.36 0.835,0.326 1.803,0.516 2.684,0.44 0.521,-0.046 0.989,-0.722 1.585,-1.198 0.197,0.371 0.412,0.635 0.483,0.934 0.268,1.118 0.98,1.65 2.075,1.911 0.801,0.191 1.536,0.645 2.321,0.926 0.621,0.223 1.28,0.527 1.911,0.501 1.381,-0.057 2.644,0.35 3.941,0.686 1.537,0.399 3.088,0.747 4.638,1.098 1.469,0.333 2.994,0.499 4.403,0.999 1.36,0.483 2.635,0.333 3.943,0.045 0.735,-0.162 1.434,-0.48 2.166,-0.659 2.724,-0.665 5.116,-0.293 6.709,2.322 1.206,-1.154 1.201,-1.148 2.258,-0.274 0.312,0.258 0.701,0.708 0.988,0.66 1.531,-0.254 2.521,0.676 3.606,1.447 0.116,0.083 0.315,0.048 0.484,0.069 0.265,-0.302 0.532,-0.607 0.84,-0.96 0.319,0.051 0.64,0.119 0.965,0.153 0.413,0.044 0.835,0.115 1.244,0.078 0.938,-0.085 1.354,-1.226 0.775,-2.084 -0.133,-0.197 -0.319,-0.358 -0.583,-0.649 1.145,-0.416 1.906,-1.07 1.967,-2.309 0.013,-0.269 0.32,-0.524 0.472,-0.756 3.349,1.066 3.701,1.055 5.515,-0.188 -0.453,-0.571 -0.897,-1.13 -1.472,-1.856 0.751,-0.056 1.3,-0.098 1.966,-0.148 0.164,-0.54 0.491,-1.094 0.467,-1.632 -0.075,-1.642 0.554,-2.508 2.256,-2.643 0.7,-0.056 0.993,-0.617 0.951,-1.257 -0.039,-0.585 -0.377,-0.931 -0.917,-1.04 -0.818,-0.165 -1.648,-0.264 -2.467,-0.416 -0.512,-0.095 -0.927,-0.743 -0.679,-1.141 0.94,-1.506 2.298,-2.535 3.916,-3.222 0.194,-0.082 0.46,0.01 0.716,0.023 0.313,-0.793 0.897,-1.471 0.453,-2.409 -0.41,0.025 -0.741,0.023 -1.063,0.074 -0.238,0.037 -0.49,0.103 -0.694,0.226 -1.548,0.935 -1.545,0.941 -3.253,0.336 -0.098,-1.195 1.162,-1.011 1.711,-1.695 0.476,-1.552 1.373,-3.149 0.442,-5.04 -1.008,0.223 -1.975,0.425 -2.936,0.653 -1.223,0.291 -2.42,0.168 -3.215,-0.82 -0.68,-0.846 -0.411,-1.885 0.002,-2.868 0.908,-2.163 1.776,-4.345 2.624,-6.534 0.458,-1.183 0.995,-2.303 1.864,-3.251 0.808,-0.882 1.291,-1.939 1.611,-3.091 0.268,-0.968 0.622,-1.912 0.923,-2.872 0.176,-0.558 0.439,-1.119 0.463,-1.687 0.117,-2.846 0.458,-5.66 0.899,-8.471 0.124,-0.794 -0.089,-1.654 -0.232,-2.469 -0.046,-0.259 -0.369,-0.469 -0.658,-0.813 -0.653,0.941 -0.655,1.894 -0.971,2.731 -0.324,0.854 -0.549,1.85 -1.143,2.476 -1.374,1.449 -2.797,2.889 -4.727,3.675 -1.568,0.637 -3.084,1.285 -4.847,0.751 -0.532,-0.16 -1.169,-0.041 -1.748,0.03 -1.662,0.205 -3.321,0.44 -4.979,0.683 -1.242,0.182 -2.509,0.284 -3.713,0.612 -4.086,1.113 -8.243,1.403 -12.444,1.193 -1.781,-0.089 -3.471,-0.602 -5.015,-1.517 -2.523,-1.494 -5.003,-3.066 -7.562,-4.497 -2.12,-1.184 -2.943,-3.151 -3.435,-5.309 -0.35,-1.539 0.413,-2.632 1.97,-2.964 0.72,-0.152 1.498,-0.108 2.241,-0.05 0.566,0.045 1.119,0.253 1.771,0.411 0.767,-0.812 1.495,-1.614 2.261,-2.38 0.587,-0.588 1.171,-1.2 1.845,-1.674 1.715,-1.206 1.723,-1.171 0.673,-3.151 -0.185,-0.351 -0.373,-0.796 -0.32,-1.162 0.202,-1.401 1.742,-2.674 3.174,-2.711 0.335,-0.009 0.677,-0.018 1.004,0.044 1.296,0.246 2.486,-0.008 3.635,-0.636 1.075,-0.587 2.271,-0.619 3.438,-0.463 0.54,0.072 1.14,0.355 1.534,0.731 1.332,1.272 2.635,2.585 3.847,3.972 0.591,0.676 1.035,1.514 1.403,2.342 0.44,0.993 0.661,2.084 1.104,3.075 0.373,0.83 0.86,1.631 1.422,2.346 0.522,0.662 1.364,0.775 2.037,0.269 0.654,-0.493 1.311,-1.083 1.722,-1.776 0.897,-1.508 1.709,-3.077 2.424,-4.68 0.75,-1.682 1.347,-3.433 2.007,-5.155 0.364,-0.948 0.798,-1.85 1.606,-2.514 0.553,-0.453 1.203,-0.677 1.875,-0.469 0.424,0.132 0.774,0.505 1.178,0.785 -0.159,0.457 -0.247,0.777 -0.379,1.076 -0.543,1.239 -0.219,2.258 0.69,3.204 0.752,0.783 1.343,1.738 2.157,2.443 0.813,0.705 1.214,1.581 1.575,2.521 0.392,1.017 0.75,2.048 1.173,3.052 0.138,0.326 0.304,0.826 0.909,0.481 -0.016,-0.244 -0.016,-0.488 -0.05,-0.726 -0.227,-1.575 -0.508,-3.143 -0.683,-4.723 -0.254,-2.28 0.153,-4.51 0.628,-6.734 0.531,-2.489 0.708,-5.022 0.008,-7.482 C 23.989,20.28 23.105,16.256 21.374,12.496 20.425,10.435 19.83,8.273 19.66,5.969 19.338,1.622 18.585,-2.66 17.634,-6.924 c -0.959,-4.3 -2.527,-8.317 -4.697,-12.122 -0.249,-0.435 -0.516,-0.868 -0.838,-1.248 -0.469,-0.555 -1.408,-0.57 -1.743,0.036 -0.725,1.312 -1.418,2.653 -1.986,4.038 -0.407,0.994 -0.574,2.084 -0.876,3.123 -0.383,1.319 0.054,2.167 1.382,2.414 1.152,0.214 2.326,0.319 3.492,0.454 0.725,0.084 1.278,0.402 1.566,1.087 0.189,0.452 0.338,0.921 0.526,1.438 -1.56,2.392 -2.457,5.178 -5.088,6.73 -0.663,0.392 -0.675,1.335 -0.224,2.039 0.653,1.02 2.497,1.576 3.593,1.031 0.271,-0.135 0.552,-0.437 0.637,-0.72 0.192,-0.637 0.27,-1.308 0.387,-1.967 0.204,-1.154 0.374,-2.316 0.62,-3.461 0.075,-0.35 0.352,-0.657 0.595,-1.087 0.923,0.749 1.211,1.603 1.42,2.511 0.735,3.185 -0.006,6.34 -0.212,9.504 -0.04,0.628 -0.616,0.775 -1.343,0.437 -0.28,-0.13 -0.549,-0.279 -0.936,-0.478 -0.176,0.431 -0.308,0.722 -0.415,1.022 -0.251,0.71 -0.395,1.476 -0.754,2.124 -0.75,1.358 -1.647,2.57 -3.526,2.221 -0.29,-0.054 -0.649,0.124 -0.943,0.262 -0.583,0.275 -0.681,1.058 -0.209,1.465 0.126,0.109 0.248,0.252 0.397,0.302 1.413,0.478 1.828,1.599 1.955,2.935 0.039,0.415 0.18,0.819 0.257,1.231 0.52,2.775 0.518,2.775 3.105,3.358 -0.135,0.728 -0.367,1.456 -0.382,2.188 -0.017,0.83 0.187,1.662 0.247,2.497 0.071,1.017 -0.54,1.68 -1.523,1.465 C 10.872,27.634 9.628,27.677 8.38,27.589 7.662,27.538 6.875,27.279 6.285,26.872 5.155,26.093 3.938,25.621 2.643,25.227 1.944,25.014 1.262,24.611 0.694,24.145 -0.2,23.412 -0.166,22.493 0.739,21.828 c 0.672,-0.494 1.417,-0.891 2.15,-1.296 1.005,-0.556 1.726,-1.321 1.96,-2.476 0.22,-1.092 0.732,-2.017 1.403,-2.91 0.685,-0.913 0.394,-1.822 -0.697,-2.19 -1.267,-0.427 -2.579,-0.733 -3.89,-1.005 -0.985,-0.204 -1.866,-0.004 -2.867,0.43 -1.543,0.669 -3.301,1.291 -4.956,-0.052 -0.352,-0.286 -0.913,-0.378 -1.391,-0.429 -0.993,-0.106 -1.994,-0.133 -2.992,-0.176 -1.638,-0.07 -3.124,-0.487 -4.365,-1.646 -0.529,-0.493 -0.936,-1.227 -1.808,-1.216 -0.39,0.201 -0.564,-0.905 -1.251,-1.966 l -0.389,-0.601 0.078,-0.499 c -0.053,-0.338 -0.053,-0.338 -0.174,-0.877 -0.219,-0.973 -0.438,-1.95 -0.581,-2.936 -0.086,-0.597 -0.228,-1.107 -0.628,-1.594 -0.357,-0.434 -0.538,-1.011 -0.809,-1.518 -0.232,-0.435 -0.415,-0.921 -0.735,-1.282 -1.491,-1.677 -2.352,-3.589 -2.452,-5.854 -0.02,-0.455 -0.313,-0.919 -0.557,-1.333 -0.101,-0.173 -0.406,-0.226 -0.612,-0.33 -0.445,0.313 -0.841,0.592 -1.219,0.858 -0.62,-0.357 -1.174,-0.677 -1.936,-1.116 -0.562,1.056 -1.214,1.935 -2.341,2.221 -1.419,0.361 -2.39,1.156 -2.663,2.673 -0.112,0.624 -0.538,1.029 -1.107,1.28 -0.766,0.339 -1.528,0.692 -2.31,0.994 -0.62,0.239 -1.147,-0.005 -1.595,-0.448 -0.628,-0.62 -0.988,-1.37 -0.922,-2.256 0.05,-0.665 0.142,-1.339 0.323,-1.978 0.661,-2.326 1.807,-4.503 2.118,-6.939 0.031,-0.241 0.948,-3.432 1.15,-4.857 0.211,-1.491 0.866,-5.595 0.955,-6.211 0.489,-3.406 1.615,-8.319 1.934,-10.146 0.154,-0.872 0.865,-4.815 1.789,-6.228 4.111,-0.84 8.33,-1.382 12.632,-1.601 1.434,-0.072 2.878,-0.109 4.33,-0.109 0.018,0 0.035,0 0.052,0 1.078,10e-4 2.15,0.028 3.217,0.069 0.176,0.007 0.352,0.012 0.527,0.02 1.098,0.049 2.192,0.117 3.279,0.208 0.051,0.005 0.103,0.01 0.155,0.014 2.32,0.199 4.615,0.491 6.88,0.873 1.097,2.324 1.298,6.756 1.521,9.129 0.221,2.348 0.39,4.594 1.507,6.46 0.25,0.417 0.681,0.765 1.445,0.413 0.038,-0.645 0.106,-1.377 0.112,-2.109 0.006,-0.741 0.309,-1.273 0.926,-1.67 l 6.262,-3.822 c 4.255,-0.895 5.658,-1.24 8.247,-2.378 26.792,11.877 46.3,37.286 49.803,67.505 0.017,0.145 0.033,0.291 0.05,0.437 0.107,0.978 0.203,1.96 0.277,2.948"
             style="fill:#841702;fill-opacity:1;fill-rule:nonzero;stroke:none"
             id="path168" />
        </g>
        <g
           id="g170"
           transform="translate(620.7822,171.8999)">
          <path
             d="m 0,0 c -0.023,-0.368 0.078,-0.744 0.121,-1.1 0.869,-0.025 0.878,0.563 0.936,1 C 1.09,0.157 0.924,0.513 0.73,0.707 0.499,0.939 0.034,0.534 0,0"
             style="fill:#841702;fill-opacity:1;fill-rule:nonzero;stroke:none"
             id="path172" />
        </g>
      </g>
    </g>
  </g>
</svg>
