<svg width="640" height="320" viewBox="0 0 640 320" fill="none" xmlns="http://www.w3.org/2000/svg">
<path d="M640 0H0V320H640V0Z" fill="white"/>
<path d="M290.896 35.4414H260.746V59.0714H290.896V35.4414Z" fill="#004B98"/>
<path d="M290.896 59.0713H260.746V179.581H290.896V59.0713Z" fill="#0676D3"/>
<path d="M290.896 59.0715H319.076C319.076 59.0715 341.236 59.9515 340.876 81.8715C340.516 103.272 321.226 104.212 321.226 104.212L304.226 104.532L315.616 127.422C315.616 127.422 370.316 132.992 371.726 81.7715C371.726 32.9815 321.146 35.4215 321.146 35.4215H290.896V59.0715Z" fill="#0676D3"/>
<path d="M304.226 104.531L341.816 179.531L378.476 179.591L347.226 122.021C347.226 122.021 336.636 104.711 325.846 104.251L304.226 104.531Z" fill="#004B98"/>
<path d="M207.352 216.596H221.022C223.288 216.537 225.537 217.017 227.582 217.996C229.365 218.862 230.859 220.228 231.882 221.926C232.928 223.749 233.454 225.825 233.402 227.926V227.986C233.472 230.503 232.69 232.97 231.182 234.986C229.66 236.947 227.515 238.33 225.102 238.906L234.502 255.366H230.231L221.312 239.466C221.182 239.478 221.051 239.478 220.922 239.466H211.002V255.336H207.352V216.596ZM220.722 236.226C223.108 236.364 225.457 235.589 227.292 234.056C228.09 233.283 228.713 232.347 229.119 231.312C229.524 230.276 229.703 229.166 229.642 228.056C229.703 226.94 229.518 225.824 229.1 224.787C228.682 223.75 228.04 222.818 227.222 222.056C225.346 220.538 222.971 219.774 220.562 219.916H211.002V236.266L220.722 236.226Z" fill="black"/>
<path d="M244.871 254.056C242.949 252.856 241.422 251.117 240.481 249.056C239.403 246.657 238.877 244.046 238.941 241.416C238.88 238.783 239.406 236.17 240.481 233.766C241.413 231.693 242.919 229.931 244.821 228.686C246.771 227.462 249.038 226.836 251.341 226.886C253.616 226.828 255.859 227.429 257.801 228.616C259.649 229.802 261.114 231.497 262.021 233.496C263.056 235.799 263.565 238.302 263.511 240.826V242.226H240.721V239.406H261.791L259.991 241.956V240.606C260.052 238.621 259.673 236.647 258.881 234.826C258.228 233.367 257.165 232.13 255.821 231.266C254.803 230.624 253.659 230.208 252.467 230.045C251.275 229.881 250.061 229.975 248.908 230.32C247.755 230.665 246.69 231.253 245.783 232.044C244.876 232.835 244.149 233.811 243.651 234.906C242.847 236.696 242.457 238.645 242.511 240.606V241.956C242.455 243.95 242.844 245.932 243.651 247.756C244.336 249.264 245.453 250.534 246.861 251.406C248.33 252.278 250.013 252.721 251.721 252.686C252.966 252.707 254.204 252.493 255.371 252.056C256.391 251.675 257.311 251.066 258.061 250.276C258.769 249.508 259.292 248.588 259.591 247.586L259.671 247.346H263.161V247.616C262.89 248.793 262.402 249.909 261.721 250.906C261.061 251.926 260.221 252.817 259.241 253.536C258.196 254.294 257.034 254.875 255.801 255.256C254.442 255.666 253.03 255.868 251.611 255.856C249.24 255.899 246.905 255.275 244.871 254.056Z" fill="black"/>
<path d="M274.371 254.796C272.89 254.159 271.598 253.149 270.621 251.866C269.68 250.603 269.106 249.105 268.961 247.536V247.286H272.481V247.536C272.724 249.086 273.564 250.478 274.821 251.416C276.289 252.421 278.044 252.923 279.821 252.846C281.077 252.878 282.328 252.678 283.511 252.256C284.453 251.928 285.283 251.339 285.901 250.556C286.462 249.817 286.761 248.913 286.751 247.986C286.795 247.453 286.726 246.916 286.548 246.411C286.371 245.907 286.089 245.445 285.721 245.056C284.556 244.146 283.18 243.544 281.721 243.306L277.501 242.306C275.342 241.908 273.323 240.957 271.641 239.546C271.009 238.95 270.51 238.226 270.179 237.423C269.848 236.619 269.692 235.755 269.721 234.886C269.694 233.412 270.139 231.968 270.991 230.766C271.892 229.532 273.108 228.561 274.511 227.956C276.133 227.257 277.886 226.916 279.651 226.956C281.442 226.913 283.22 227.275 284.851 228.016C286.26 228.669 287.474 229.679 288.371 230.946C289.242 232.214 289.757 233.692 289.861 235.226V235.526H286.521V235.336C286.444 234.578 286.217 233.842 285.855 233.171C285.493 232.5 285.003 231.907 284.411 231.426C283.073 230.389 281.413 229.855 279.721 229.916C278.582 229.892 277.45 230.096 276.391 230.516C275.514 230.867 274.752 231.456 274.191 232.216C273.668 232.947 273.395 233.827 273.411 234.726C273.398 235.248 273.499 235.767 273.709 236.245C273.918 236.724 274.229 237.151 274.621 237.496C275.793 238.399 277.165 239.006 278.621 239.266L282.811 240.266C285.611 240.933 287.595 241.849 288.761 243.016C289.357 243.636 289.82 244.37 290.123 245.175C290.425 245.98 290.561 246.837 290.521 247.696C290.545 249.216 290.063 250.7 289.151 251.916C288.174 253.182 286.88 254.168 285.401 254.776C283.68 255.481 281.831 255.822 279.971 255.776C278.056 255.859 276.145 255.525 274.371 254.796Z" fill="black"/>
<path d="M302.871 254.056C300.949 252.856 299.422 251.117 298.481 249.056C297.399 246.657 296.87 244.047 296.931 241.416C296.873 238.783 297.403 236.17 298.481 233.766C299.227 232.241 300.282 230.887 301.578 229.79C302.874 228.693 304.384 227.877 306.011 227.393C307.639 226.909 309.349 226.768 311.034 226.978C312.719 227.189 314.342 227.747 315.801 228.616C317.645 229.803 319.107 231.498 320.011 233.496C321.051 235.797 321.56 238.302 321.501 240.826V242.226H298.721V239.406H319.811L318.011 241.956V240.606C318.074 238.62 317.691 236.645 316.891 234.826C316.245 233.363 315.18 232.124 313.831 231.266C312.814 230.623 311.671 230.205 310.479 230.041C309.287 229.877 308.074 229.971 306.921 230.316C305.769 230.661 304.704 231.249 303.798 232.041C302.892 232.833 302.167 233.81 301.671 234.906C300.859 236.694 300.466 238.644 300.521 240.606V241.956C300.463 243.951 300.856 245.934 301.671 247.756C302.355 249.261 303.469 250.531 304.871 251.406C306.345 252.272 308.032 252.708 309.741 252.666C310.986 252.685 312.224 252.472 313.391 252.036C314.408 251.655 315.325 251.046 316.071 250.256C316.786 249.493 317.31 248.571 317.601 247.566L317.681 247.326H321.181L321.121 247.596C320.874 248.766 320.416 249.88 319.771 250.886C319.104 251.905 318.261 252.795 317.281 253.516C316.237 254.276 315.075 254.857 313.841 255.236C312.483 255.647 311.07 255.85 309.651 255.836C307.268 255.896 304.917 255.278 302.871 254.056Z" fill="black"/>
<path d="M329.391 227.416H332.941V232.416H333.021C333.444 230.857 334.33 229.462 335.561 228.416C336.779 227.418 338.316 226.892 339.891 226.936C340.639 226.939 341.383 227.047 342.101 227.256V230.726C341.779 230.595 341.444 230.501 341.101 230.446C340.559 230.36 340.01 230.32 339.461 230.326C338.257 230.294 337.072 230.625 336.059 231.276C335.046 231.927 334.252 232.868 333.781 233.976C333.225 235.273 332.956 236.675 332.991 238.086V255.376H329.441L329.391 227.416Z" fill="black"/>
<path d="M347.24 227.416H350.97L359.46 251.636H359.56L368.08 227.416H371.72L361.35 255.346H357.59L347.24 227.416Z" fill="black"/>
<path d="M381.131 254.056C379.19 252.855 377.638 251.119 376.661 249.056C375.542 246.654 374.995 244.025 375.061 241.376V241.316C374.991 238.673 375.539 236.05 376.661 233.656C377.634 231.591 379.187 229.854 381.131 228.656C383.159 227.503 385.452 226.896 387.786 226.896C390.119 226.896 392.413 227.503 394.441 228.656C396.376 229.864 397.926 231.599 398.911 233.656C400.037 236.056 400.588 238.686 400.521 241.336V241.396C400.587 244.05 400.036 246.682 398.911 249.086C397.924 251.14 396.378 252.873 394.451 254.086C392.444 255.296 390.134 255.91 387.791 255.856C385.448 255.88 383.143 255.257 381.131 254.056ZM392.601 251.326C394.012 250.364 395.113 249.013 395.771 247.436C396.564 245.513 396.949 243.446 396.901 241.366V241.306C396.953 239.226 396.568 237.158 395.771 235.236C395.106 233.669 393.997 232.331 392.581 231.386C391.129 230.469 389.437 230.006 387.721 230.056C386.04 230.023 384.387 230.49 382.971 231.396C381.562 232.355 380.458 233.698 379.791 235.266C378.992 237.164 378.604 239.208 378.651 241.266V241.326C378.6 243.407 378.988 245.476 379.791 247.396C380.452 248.973 381.557 250.325 382.971 251.286C384.417 252.163 386.075 252.626 387.766 252.626C389.457 252.626 391.115 252.163 392.561 251.286L392.601 251.326Z" fill="black"/>
<path d="M407.722 221.686C407.5 221.467 407.325 221.206 407.208 220.917C407.091 220.628 407.034 220.318 407.042 220.006C407.034 219.699 407.091 219.394 407.208 219.109C407.325 218.825 407.5 218.569 407.722 218.356C407.94 218.137 408.2 217.963 408.485 217.844C408.771 217.726 409.078 217.665 409.387 217.665C409.696 217.665 410.003 217.726 410.288 217.844C410.574 217.963 410.834 218.137 411.052 218.356C411.278 218.576 411.454 218.841 411.57 219.134C411.685 219.427 411.737 219.741 411.722 220.056C411.719 220.518 411.58 220.969 411.323 221.353C411.066 221.736 410.702 222.036 410.276 222.215C409.85 222.394 409.381 222.444 408.927 222.359C408.473 222.274 408.054 222.057 407.722 221.736V221.686ZM407.602 227.416H411.142V255.346H407.602V227.416Z" fill="black"/>
<path d="M419.522 227.416H423.072V232.416H423.152C423.572 230.858 424.454 229.464 425.682 228.416C426.904 227.418 428.444 226.893 430.022 226.936C430.454 226.934 430.886 226.971 431.312 227.046C431.619 227.096 431.923 227.166 432.222 227.256V230.726C431.901 230.592 431.565 230.498 431.222 230.446C430.679 230.361 430.131 230.321 429.582 230.326C428.376 230.284 427.186 230.612 426.172 231.264C425.157 231.916 424.365 232.862 423.902 233.976C423.346 235.273 423.077 236.675 423.112 238.086V255.376H419.522V227.416Z" fill="black"/>
<path d="M207 270.946H208.92L217.16 282.776L214.96 280.826H215.86V270.946H217.92V284.336H216L207.77 272.486L209.97 274.426H209.07V284.336H207V270.946Z" fill="black"/>
<path d="M225.72 278.846L221.01 270.946H223.32L226.74 276.846H226.8L230.21 270.946H232.53L227.81 278.846V284.336H225.72V278.846Z" fill="black"/>
<path d="M235.58 270.946H237.66V284.336H235.58V270.946ZM236.58 278.016H240.01C240.772 278.067 241.523 277.815 242.1 277.316C242.356 277.065 242.555 276.762 242.685 276.427C242.814 276.092 242.87 275.734 242.85 275.376C242.878 275.008 242.825 274.639 242.696 274.293C242.566 273.948 242.363 273.635 242.1 273.376C241.517 272.886 240.77 272.636 240.01 272.676H236.62V270.926H240.62C241.427 270.912 242.225 271.101 242.94 271.476C243.58 271.852 244.103 272.399 244.45 273.056C244.84 273.759 245.037 274.552 245.02 275.356C245.037 276.16 244.84 276.953 244.45 277.656C244.085 278.308 243.545 278.845 242.89 279.206C242.177 279.585 241.378 279.775 240.57 279.756H236.57L236.58 278.016Z" fill="black"/>
<path d="M248.432 270.946H250.512V282.536H256.722V284.336H248.432V270.946Z" fill="black"/>
<path d="M268.602 270.946H273.322C274.506 270.913 275.679 271.182 276.732 271.726C277.668 272.246 278.425 273.037 278.902 273.996C279.435 275.12 279.695 276.353 279.662 277.596C279.699 278.846 279.438 280.087 278.902 281.216C278.434 282.2 277.672 283.014 276.722 283.546C275.667 284.096 274.49 284.367 273.302 284.336H268.602V270.946ZM273.122 282.536C273.961 282.562 274.793 282.366 275.532 281.966C276.191 281.584 276.713 281.003 277.022 280.306C277.384 279.464 277.558 278.553 277.532 277.636C277.557 276.723 277.383 275.815 277.022 274.976C276.7 274.287 276.177 273.712 275.522 273.326C274.784 272.933 273.957 272.74 273.122 272.766H270.722V282.556L273.122 282.536Z" fill="black"/>
<path d="M283.241 270.946H291.721V272.746H285.321V276.646H291.391V278.386H285.321V282.536H291.721V284.336H283.221L283.241 270.946Z" fill="black"/>
<path d="M297.411 284.106C296.709 283.836 296.091 283.384 295.621 282.796C295.181 282.218 294.923 281.522 294.881 280.796V280.656H296.881V280.776C296.935 281.177 297.118 281.548 297.401 281.836C297.707 282.152 298.084 282.388 298.501 282.526C299.011 282.694 299.545 282.775 300.081 282.766C300.609 282.78 301.135 282.696 301.631 282.516C302.022 282.374 302.368 282.129 302.631 281.806C302.865 281.491 302.988 281.108 302.981 280.716C302.991 280.472 302.944 280.23 302.843 280.007C302.743 279.785 302.591 279.589 302.401 279.436C301.833 279.035 301.179 278.772 300.491 278.666L299.031 278.366C297.951 278.195 296.937 277.732 296.101 277.026C295.774 276.717 295.517 276.343 295.344 275.928C295.172 275.513 295.089 275.066 295.101 274.616C295.091 273.899 295.312 273.198 295.731 272.616C296.165 272.017 296.757 271.549 297.441 271.266C298.236 270.925 299.096 270.758 299.961 270.776C300.805 270.762 301.642 270.922 302.421 271.246C303.087 271.531 303.667 271.987 304.101 272.566C304.526 273.15 304.769 273.845 304.801 274.566V274.716H302.801V274.596C302.757 274.202 302.597 273.829 302.341 273.526C302.072 273.215 301.728 272.978 301.341 272.836C300.42 272.523 299.422 272.523 298.501 272.836C298.129 272.974 297.804 273.213 297.561 273.526C297.337 273.811 297.217 274.164 297.221 274.526C297.216 274.764 297.267 275 297.372 275.214C297.476 275.428 297.63 275.614 297.821 275.756C298.373 276.135 299.001 276.387 299.661 276.496L301.121 276.816C302.222 276.983 303.258 277.442 304.121 278.146C304.441 278.464 304.691 278.845 304.853 279.266C305.015 279.686 305.086 280.136 305.061 280.586C305.078 281.34 304.862 282.081 304.441 282.706C304.022 283.304 303.443 283.771 302.771 284.056C301.904 284.405 300.975 284.571 300.041 284.546C299.144 284.568 298.252 284.418 297.411 284.106Z" fill="black"/>
<path d="M308.981 270.946H311.061V284.336H308.981V270.946Z" fill="black"/>
<path d="M317.57 283.706C316.63 283.132 315.879 282.294 315.41 281.296C314.872 280.132 314.608 278.859 314.64 277.576C314.604 276.32 314.865 275.073 315.4 273.936C315.876 272.954 316.626 272.131 317.56 271.566C318.569 270.996 319.712 270.71 320.87 270.736C321.807 270.714 322.736 270.902 323.59 271.286C324.339 271.629 324.994 272.147 325.5 272.796C325.988 273.438 326.329 274.179 326.5 274.966V275.126H324.42V275.016C324.18 274.295 323.722 273.667 323.11 273.216C322.462 272.778 321.693 272.554 320.91 272.576C320.134 272.558 319.37 272.767 318.71 273.176C318.077 273.589 317.585 274.186 317.3 274.886C316.952 275.739 316.785 276.655 316.81 277.576C316.784 278.521 316.954 279.461 317.31 280.336C317.608 281.031 318.097 281.628 318.72 282.056C319.377 282.474 320.143 282.686 320.92 282.666C321.585 282.681 322.243 282.537 322.84 282.246C323.375 281.977 323.825 281.565 324.14 281.056C324.457 280.517 324.623 279.902 324.62 279.276V279.056H321.11V277.356H326.68V278.726C326.71 279.804 326.473 280.872 325.99 281.836C325.545 282.693 324.847 283.391 323.99 283.836C323.027 284.321 321.958 284.558 320.88 284.526C319.722 284.565 318.576 284.281 317.57 283.706Z" fill="black"/>
<path d="M330.282 270.946H332.201L340.442 282.776L338.242 280.826H339.142V270.946H341.212V284.336H339.292L331.052 272.486L333.252 274.426H332.352V284.336H330.282V270.946Z" fill="black"/>
<path d="M355.722 284.106C355.019 283.836 354.402 283.384 353.932 282.796C353.487 282.22 353.229 281.523 353.192 280.796V280.656H355.192V280.776C355.247 281.174 355.425 281.545 355.702 281.836C356.013 282.149 356.393 282.386 356.812 282.526C357.321 282.694 357.855 282.775 358.392 282.766C358.919 282.78 359.445 282.695 359.942 282.516C360.333 282.374 360.678 282.128 360.942 281.806C361.175 281.491 361.298 281.108 361.292 280.716C361.302 280.472 361.255 280.229 361.154 280.007C361.053 279.785 360.902 279.589 360.712 279.436C360.143 279.035 359.489 278.771 358.802 278.666L357.342 278.366C356.261 278.195 355.248 277.731 354.412 277.026C354.086 276.717 353.828 276.342 353.656 275.927C353.483 275.512 353.4 275.065 353.412 274.616C353.409 273.899 353.633 273.199 354.052 272.616C354.486 272.016 355.078 271.549 355.762 271.266C357.365 270.618 359.158 270.618 360.762 271.266C361.432 271.548 362.015 272.004 362.452 272.586C362.877 273.169 363.12 273.865 363.152 274.586V274.736H361.152V274.616C361.108 274.222 360.948 273.849 360.692 273.546C360.422 273.235 360.078 272.997 359.692 272.856C358.771 272.543 357.772 272.543 356.852 272.856C356.48 272.994 356.154 273.233 355.912 273.546C355.688 273.831 355.568 274.184 355.572 274.546C355.566 274.784 355.618 275.02 355.722 275.234C355.826 275.448 355.981 275.634 356.172 275.776C356.723 276.154 357.352 276.407 358.012 276.516L359.472 276.836C360.573 277.002 361.609 277.462 362.472 278.166C362.79 278.484 363.039 278.866 363.2 279.286C363.362 279.707 363.434 280.156 363.412 280.606C363.429 281.36 363.212 282.1 362.792 282.726C362.352 283.348 361.74 283.828 361.032 284.106C360.165 284.454 359.236 284.62 358.302 284.596C357.419 284.595 356.544 284.429 355.722 284.106Z" fill="black"/>
<path d="M370.101 278.846L365.381 270.946H367.721L371.151 276.846L374.571 270.946H376.891L372.161 278.846V284.336H370.081L370.101 278.846Z" fill="black"/>
<path d="M381.571 284.106C380.869 283.836 380.251 283.384 379.781 282.796C379.341 282.218 379.083 281.522 379.041 280.796V280.656H381.041V280.776C381.1 281.175 381.282 281.545 381.561 281.836C381.869 282.154 382.25 282.39 382.671 282.526C383.177 282.694 383.708 282.776 384.241 282.766C384.769 282.78 385.295 282.695 385.791 282.516C386.182 282.374 386.528 282.129 386.791 281.806C387.033 281.495 387.16 281.11 387.151 280.716C387.159 280.473 387.111 280.23 387.01 280.009C386.91 279.787 386.76 279.591 386.571 279.436C385.998 279.037 385.341 278.774 384.651 278.666L383.191 278.366C382.112 278.192 381.099 277.729 380.261 277.026C379.935 276.717 379.677 276.343 379.504 275.928C379.332 275.512 379.249 275.066 379.261 274.616C379.251 273.899 379.472 273.198 379.891 272.616C380.325 272.017 380.917 271.549 381.601 271.266C383.205 270.621 384.997 270.621 386.601 271.266C387.269 271.554 387.851 272.008 388.291 272.586C388.709 273.172 388.949 273.867 388.981 274.586V274.736H386.981V274.616C386.937 274.222 386.777 273.849 386.521 273.546C386.252 273.235 385.908 272.997 385.521 272.856C384.6 272.543 383.602 272.543 382.681 272.856C382.311 272.996 381.986 273.235 381.741 273.546C381.521 273.833 381.402 274.185 381.401 274.546C381.396 274.784 381.447 275.02 381.552 275.234C381.656 275.448 381.81 275.634 382.001 275.776C382.553 276.154 383.181 276.407 383.841 276.516L385.301 276.836C386.403 277 387.44 277.46 388.301 278.166C388.621 278.483 388.871 278.865 389.033 279.285C389.195 279.706 389.266 280.156 389.241 280.606C389.263 281.36 389.046 282.102 388.621 282.726C388.184 283.35 387.572 283.83 386.861 284.106C385.994 284.454 385.065 284.621 384.131 284.596C383.255 284.593 382.387 284.427 381.571 284.106Z" fill="black"/>
<path d="M396.081 272.746H391.981V270.946H402.251V272.746H398.161V284.336H396.081V272.746Z" fill="black"/>
<path d="M405.541 270.946H414.041V272.746H407.621V276.646H413.721V278.386H407.621V282.536H414.041V284.336H405.541V270.946Z" fill="black"/>
<path d="M417.782 270.946H420.182L424.511 281.626H424.572L428.901 270.946H431.312V284.336H429.412V274.466H428.412L430.582 271.316L425.272 284.316H423.731L418.422 271.316L420.591 274.466H419.722V284.336H417.822L417.782 270.946Z" fill="black"/>
</svg>
