<svg width="320" height="320" viewBox="0 0 320 320" fill="none" xmlns="http://www.w3.org/2000/svg">
<rect width="320" height="320" fill="white"/>
<path d="M131.285 35.4414H101.135V59.0714H131.285V35.4414Z" fill="#004B98"/>
<path d="M131.285 59.0713H101.135V179.581H131.285V59.0713Z" fill="#0676D3"/>
<path d="M131.285 59.0715H159.465C159.465 59.0715 181.625 59.9515 181.265 81.8715C180.905 103.272 161.615 104.212 161.615 104.212L144.615 104.532L156.005 127.422C156.005 127.422 210.705 132.992 212.115 81.7715C212.115 32.9815 161.535 35.4215 161.535 35.4215H131.285V59.0715Z" fill="#0676D3"/>
<path d="M144.615 104.531L182.205 179.531L218.865 179.591L187.615 122.021C187.615 122.021 177.025 104.711 166.235 104.251L144.615 104.531Z" fill="#004B98"/>
<path d="M47.7408 216.596H61.4108C63.6775 216.537 65.9258 217.017 67.9708 217.996C69.7544 218.862 71.2482 220.228 72.2708 221.926C73.3173 223.749 73.843 225.825 73.7908 227.926V227.986C73.8617 230.503 73.0793 232.97 71.5708 234.986C70.0495 236.947 67.9046 238.33 65.4908 238.906L74.8908 255.366H70.6208L61.7008 239.466C61.5711 239.478 61.4406 239.478 61.3108 239.466H51.3908V255.336H47.7408V216.596ZM61.1108 236.226C63.4971 236.364 65.8464 235.589 67.6808 234.056C68.4795 233.283 69.1026 232.347 69.508 231.312C69.9135 230.276 70.0918 229.166 70.0308 228.056C70.0923 226.94 69.9074 225.824 69.4892 224.787C69.071 223.75 68.4297 222.818 67.6108 222.056C65.7352 220.538 63.36 219.774 60.9508 219.916H51.3908V236.266L61.1108 236.226Z" fill="black"/>
<path d="M85.26 254.056C83.3383 252.856 81.8117 251.117 80.87 249.056C79.7922 246.657 79.266 244.046 79.33 241.416C79.2692 238.783 79.7952 236.17 80.87 233.766C81.8023 231.693 83.3083 229.931 85.21 228.686C87.1607 227.462 89.4275 226.836 91.73 226.886C94.0051 226.828 96.2483 227.429 98.19 228.616C100.038 229.802 101.503 231.497 102.41 233.496C103.445 235.799 103.954 238.302 103.9 240.826V242.226H81.11V239.406H102.18L100.38 241.956V240.606C100.441 238.621 100.062 236.647 99.27 234.826C98.6178 233.367 97.5544 232.13 96.21 231.266C95.1921 230.624 94.0486 230.208 92.8563 230.045C91.6641 229.881 90.4507 229.975 89.2978 230.32C88.1448 230.665 87.0791 231.253 86.1722 232.044C85.2653 232.835 84.5383 233.811 84.04 234.906C83.2363 236.696 82.8466 238.645 82.9 240.606V241.956C82.8442 243.95 83.2337 245.932 84.04 247.756C84.7254 249.264 85.8425 250.534 87.25 251.406C88.719 252.278 90.4024 252.721 92.11 252.686C93.3554 252.707 94.5936 252.493 95.76 252.056C96.7804 251.675 97.7004 251.066 98.45 250.276C99.1583 249.508 99.6816 248.588 99.98 247.586L100.06 247.346H103.55V247.616C103.279 248.793 102.791 249.909 102.11 250.906C101.45 251.926 100.61 252.817 99.63 253.536C98.5851 254.294 97.423 254.875 96.19 255.256C94.8315 255.666 93.4189 255.868 92 255.856C89.6292 255.899 87.294 255.275 85.26 254.056Z" fill="black"/>
<path d="M114.76 254.796C113.279 254.159 111.987 253.149 111.01 251.866C110.069 250.603 109.495 249.105 109.35 247.536V247.286H112.87V247.536C113.113 249.086 113.953 250.478 115.21 251.416C116.678 252.421 118.433 252.923 120.21 252.846C121.466 252.878 122.717 252.678 123.9 252.256C124.842 251.928 125.672 251.339 126.29 250.556C126.851 249.817 127.15 248.913 127.14 247.986C127.184 247.453 127.115 246.916 126.937 246.411C126.76 245.907 126.478 245.445 126.11 245.056C124.945 244.146 123.569 243.544 122.11 243.306L117.89 242.306C115.731 241.908 113.712 240.957 112.03 239.546C111.398 238.95 110.899 238.226 110.568 237.423C110.237 236.619 110.081 235.755 110.11 234.886C110.083 233.412 110.528 231.968 111.38 230.766C112.281 229.532 113.497 228.561 114.9 227.956C116.522 227.257 118.275 226.916 120.04 226.956C121.831 226.913 123.609 227.275 125.24 228.016C126.649 228.669 127.863 229.679 128.76 230.946C129.631 232.214 130.146 233.692 130.25 235.226V235.526H126.91V235.336C126.833 234.578 126.606 233.842 126.244 233.171C125.882 232.5 125.392 231.907 124.8 231.426C123.462 230.389 121.802 229.855 120.11 229.916C118.971 229.892 117.839 230.096 116.78 230.516C115.903 230.867 115.141 231.456 114.58 232.216C114.057 232.947 113.784 233.827 113.8 234.726C113.787 235.248 113.888 235.767 114.098 236.245C114.307 236.724 114.618 237.151 115.01 237.496C116.182 238.399 117.554 239.006 119.01 239.266L123.2 240.266C126 240.933 127.984 241.849 129.15 243.016C129.746 243.636 130.209 244.37 130.512 245.175C130.814 245.98 130.95 246.837 130.91 247.696C130.934 249.216 130.452 250.7 129.54 251.916C128.563 253.182 127.269 254.168 125.79 254.776C124.069 255.481 122.22 255.822 120.36 255.776C118.445 255.859 116.534 255.525 114.76 254.796Z" fill="black"/>
<path d="M143.26 254.056C141.338 252.856 139.811 251.117 138.87 249.056C137.788 246.657 137.259 244.047 137.32 241.416C137.262 238.783 137.792 236.17 138.87 233.766C139.616 232.241 140.671 230.887 141.967 229.79C143.263 228.693 144.773 227.877 146.4 227.393C148.028 226.909 149.738 226.768 151.423 226.978C153.108 227.189 154.731 227.747 156.19 228.616C158.034 229.803 159.496 231.498 160.4 233.496C161.44 235.797 161.949 238.302 161.89 240.826V242.226H139.11V239.406H160.2L158.4 241.956V240.606C158.463 238.62 158.08 236.645 157.28 234.826C156.634 233.363 155.569 232.124 154.22 231.266C153.203 230.623 152.06 230.205 150.868 230.041C149.676 229.877 148.463 229.971 147.31 230.316C146.158 230.661 145.093 231.249 144.187 232.041C143.281 232.833 142.556 233.81 142.06 234.906C141.248 236.694 140.855 238.644 140.91 240.606V241.956C140.852 243.951 141.245 245.934 142.06 247.756C142.744 249.261 143.858 250.531 145.26 251.406C146.734 252.272 148.421 252.708 150.13 252.666C151.375 252.685 152.613 252.472 153.78 252.036C154.797 251.655 155.714 251.046 156.46 250.256C157.175 249.493 157.699 248.571 157.99 247.566L158.07 247.326H161.57L161.51 247.596C161.263 248.766 160.805 249.88 160.16 250.886C159.493 251.905 158.65 252.795 157.67 253.516C156.626 254.276 155.464 254.857 154.23 255.236C152.872 255.647 151.459 255.85 150.04 255.836C147.657 255.896 145.306 255.278 143.26 254.056Z" fill="black"/>
<path d="M169.78 227.416H173.33V232.416H173.41C173.833 230.857 174.719 229.462 175.95 228.416C177.168 227.418 178.705 226.892 180.28 226.936C181.028 226.939 181.772 227.047 182.49 227.256V230.726C182.168 230.595 181.833 230.501 181.49 230.446C180.948 230.36 180.399 230.32 179.85 230.326C178.646 230.294 177.461 230.625 176.448 231.276C175.435 231.927 174.641 232.868 174.17 233.976C173.614 235.273 173.345 236.675 173.38 238.086V255.376H169.83L169.78 227.416Z" fill="black"/>
<path d="M187.629 227.416H191.359L199.849 251.636H199.949L208.469 227.416H212.109L201.739 255.346H197.979L187.629 227.416Z" fill="black"/>
<path d="M221.52 254.056C219.579 252.855 218.027 251.119 217.05 249.056C215.931 246.654 215.384 244.025 215.45 241.376V241.316C215.38 238.673 215.928 236.05 217.05 233.656C218.023 231.591 219.576 229.854 221.52 228.656C223.548 227.503 225.841 226.896 228.175 226.896C230.508 226.896 232.802 227.503 234.83 228.656C236.765 229.864 238.315 231.599 239.3 233.656C240.426 236.056 240.977 238.686 240.91 241.336V241.396C240.976 244.05 240.425 246.682 239.3 249.086C238.313 251.14 236.767 252.873 234.84 254.086C232.833 255.296 230.523 255.91 228.18 255.856C225.837 255.88 223.532 255.257 221.52 254.056ZM232.99 251.326C234.401 250.364 235.502 249.013 236.16 247.436C236.953 245.513 237.338 243.446 237.29 241.366V241.306C237.342 239.226 236.957 237.158 236.16 235.236C235.495 233.669 234.386 232.331 232.97 231.386C231.518 230.469 229.826 230.006 228.11 230.056C226.429 230.023 224.776 230.49 223.36 231.396C221.951 232.355 220.847 233.698 220.18 235.266C219.381 237.164 218.993 239.208 219.04 241.266V241.326C218.989 243.407 219.377 245.476 220.18 247.396C220.841 248.973 221.946 250.325 223.36 251.286C224.806 252.163 226.464 252.626 228.155 252.626C229.846 252.626 231.504 252.163 232.95 251.286L232.99 251.326Z" fill="black"/>
<path d="M248.111 221.686C247.889 221.467 247.714 221.206 247.597 220.917C247.48 220.628 247.423 220.318 247.431 220.006C247.423 219.699 247.48 219.394 247.597 219.109C247.714 218.825 247.889 218.569 248.111 218.356C248.329 218.137 248.589 217.963 248.874 217.844C249.16 217.726 249.467 217.665 249.776 217.665C250.085 217.665 250.392 217.726 250.677 217.844C250.963 217.963 251.223 218.137 251.441 218.356C251.667 218.576 251.843 218.841 251.959 219.134C252.074 219.427 252.126 219.741 252.111 220.056C252.108 220.518 251.969 220.969 251.712 221.353C251.455 221.736 251.091 222.036 250.665 222.215C250.239 222.394 249.77 222.444 249.316 222.359C248.862 222.274 248.443 222.057 248.111 221.736V221.686ZM247.991 227.416H251.531V255.346H247.991V227.416Z" fill="black"/>
<path d="M259.911 227.416H263.461V232.416H263.541C263.961 230.858 264.843 229.464 266.071 228.416C267.293 227.418 268.833 226.893 270.411 226.936C270.843 226.934 271.275 226.971 271.701 227.046C272.008 227.096 272.312 227.166 272.611 227.256V230.726C272.29 230.592 271.954 230.498 271.611 230.446C271.068 230.361 270.52 230.321 269.971 230.326C268.765 230.284 267.575 230.612 266.561 231.264C265.546 231.916 264.754 232.862 264.291 233.976C263.735 235.273 263.466 236.675 263.501 238.086V255.376H259.911V227.416Z" fill="black"/>
<path d="M47.3893 270.946H49.3093L57.5493 282.776L55.3493 280.826H56.2493V270.946H58.3093V284.336H56.3893L48.1593 272.486L50.3593 274.426H49.4593V284.336H47.3893V270.946Z" fill="black"/>
<path d="M66.109 278.846L61.399 270.946H63.709L67.129 276.846H67.189L70.599 270.946H72.919L68.199 278.846V284.336H66.109V278.846Z" fill="black"/>
<path d="M75.9693 270.946H78.0493V284.336H75.9693V270.946ZM76.9693 278.016H80.3993C81.161 278.067 81.9119 277.815 82.4893 277.316C82.7452 277.065 82.9445 276.762 83.0738 276.427C83.2032 276.092 83.2596 275.734 83.2393 275.376C83.267 275.008 83.2143 274.639 83.0848 274.293C82.9553 273.948 82.7521 273.635 82.4893 273.376C81.9067 272.886 81.1596 272.636 80.3993 272.676H77.0093V270.926H81.0093C81.8165 270.912 82.6143 271.101 83.3293 271.476C83.9696 271.852 84.4924 272.399 84.8393 273.056C85.2296 273.759 85.4263 274.552 85.4093 275.356C85.4263 276.16 85.2296 276.953 84.8393 277.656C84.4744 278.308 83.9339 278.845 83.2793 279.206C82.566 279.585 81.767 279.775 80.9593 279.756H76.9593L76.9693 278.016Z" fill="black"/>
<path d="M88.8209 270.946H90.9009V282.536H97.1109V284.336H88.8209V270.946Z" fill="black"/>
<path d="M108.991 270.946H113.711C114.895 270.913 116.068 271.182 117.121 271.726C118.057 272.246 118.814 273.037 119.291 273.996C119.824 275.12 120.084 276.353 120.051 277.596C120.088 278.846 119.827 280.087 119.291 281.216C118.823 282.2 118.061 283.014 117.111 283.546C116.056 284.096 114.879 284.367 113.691 284.336H108.991V270.946ZM113.511 282.536C114.35 282.562 115.182 282.366 115.921 281.966C116.58 281.584 117.102 281.003 117.411 280.306C117.773 279.464 117.947 278.553 117.921 277.636C117.946 276.723 117.772 275.815 117.411 274.976C117.089 274.287 116.566 273.712 115.911 273.326C115.173 272.933 114.346 272.74 113.511 272.766H111.111V282.556L113.511 282.536Z" fill="black"/>
<path d="M123.63 270.946H132.11V272.746H125.71V276.646H131.78V278.386H125.71V282.536H132.11V284.336H123.61L123.63 270.946Z" fill="black"/>
<path d="M137.8 284.106C137.098 283.836 136.48 283.384 136.01 282.796C135.57 282.218 135.312 281.522 135.27 280.796V280.656H137.27V280.776C137.324 281.177 137.507 281.548 137.79 281.836C138.096 282.152 138.473 282.388 138.89 282.526C139.4 282.694 139.934 282.775 140.47 282.766C140.998 282.78 141.524 282.696 142.02 282.516C142.411 282.374 142.757 282.129 143.02 281.806C143.254 281.491 143.377 281.108 143.37 280.716C143.38 280.472 143.333 280.23 143.232 280.007C143.132 279.785 142.98 279.589 142.79 279.436C142.222 279.035 141.568 278.772 140.88 278.666L139.42 278.366C138.34 278.195 137.326 277.732 136.49 277.026C136.163 276.717 135.906 276.343 135.733 275.928C135.561 275.513 135.478 275.066 135.49 274.616C135.48 273.899 135.701 273.198 136.12 272.616C136.554 272.017 137.146 271.549 137.83 271.266C138.625 270.925 139.485 270.758 140.35 270.776C141.194 270.762 142.031 270.922 142.81 271.246C143.476 271.531 144.056 271.987 144.49 272.566C144.915 273.15 145.158 273.845 145.19 274.566V274.716H143.19V274.596C143.146 274.202 142.986 273.829 142.73 273.526C142.461 273.215 142.117 272.978 141.73 272.836C140.809 272.523 139.811 272.523 138.89 272.836C138.518 272.974 138.193 273.213 137.95 273.526C137.726 273.811 137.606 274.164 137.61 274.526C137.605 274.764 137.656 275 137.761 275.214C137.865 275.428 138.019 275.614 138.21 275.756C138.762 276.135 139.39 276.387 140.05 276.496L141.51 276.816C142.611 276.983 143.647 277.442 144.51 278.146C144.83 278.464 145.08 278.845 145.242 279.266C145.404 279.686 145.475 280.136 145.45 280.586C145.467 281.34 145.251 282.081 144.83 282.706C144.411 283.304 143.832 283.771 143.16 284.056C142.293 284.405 141.364 284.571 140.43 284.546C139.533 284.568 138.641 284.418 137.8 284.106Z" fill="black"/>
<path d="M149.37 270.946H151.45V284.336H149.37V270.946Z" fill="black"/>
<path d="M157.959 283.706C157.019 283.132 156.268 282.294 155.799 281.296C155.261 280.132 154.997 278.859 155.029 277.576C154.993 276.32 155.254 275.073 155.789 273.936C156.265 272.954 157.015 272.131 157.949 271.566C158.958 270.996 160.101 270.71 161.259 270.736C162.196 270.714 163.125 270.902 163.979 271.286C164.728 271.629 165.383 272.147 165.889 272.796C166.377 273.438 166.718 274.179 166.889 274.966V275.126H164.809V275.016C164.569 274.295 164.111 273.667 163.499 273.216C162.851 272.778 162.082 272.554 161.299 272.576C160.523 272.558 159.759 272.767 159.099 273.176C158.466 273.589 157.974 274.186 157.689 274.886C157.341 275.739 157.174 276.655 157.199 277.576C157.173 278.521 157.343 279.461 157.699 280.336C157.997 281.031 158.486 281.628 159.109 282.056C159.766 282.474 160.532 282.686 161.309 282.666C161.974 282.681 162.632 282.537 163.229 282.246C163.764 281.977 164.214 281.565 164.529 281.056C164.846 280.517 165.012 279.902 165.009 279.276V279.056H161.499V277.356H167.069V278.726C167.099 279.804 166.862 280.872 166.379 281.836C165.934 282.693 165.236 283.391 164.379 283.836C163.416 284.321 162.347 284.558 161.269 284.526C160.111 284.565 158.965 284.281 157.959 283.706Z" fill="black"/>
<path d="M170.671 270.946H172.59L180.831 282.776L178.631 280.826H179.531V270.946H181.601V284.336H179.681L171.441 272.486L173.641 274.426H172.741V284.336H170.671V270.946Z" fill="black"/>
<path d="M196.111 284.106C195.408 283.836 194.791 283.384 194.321 282.796C193.876 282.22 193.618 281.523 193.581 280.796V280.656H195.581V280.776C195.636 281.174 195.814 281.545 196.091 281.836C196.402 282.149 196.782 282.386 197.201 282.526C197.71 282.694 198.244 282.775 198.781 282.766C199.308 282.78 199.834 282.695 200.331 282.516C200.722 282.374 201.067 282.128 201.331 281.806C201.564 281.491 201.687 281.108 201.681 280.716C201.691 280.472 201.644 280.229 201.543 280.007C201.442 279.785 201.291 279.589 201.101 279.436C200.532 279.035 199.878 278.771 199.191 278.666L197.731 278.366C196.65 278.195 195.637 277.731 194.801 277.026C194.475 276.717 194.217 276.342 194.045 275.927C193.872 275.512 193.789 275.065 193.801 274.616C193.798 273.899 194.022 273.199 194.441 272.616C194.875 272.016 195.467 271.549 196.151 271.266C197.754 270.618 199.547 270.618 201.151 271.266C201.821 271.548 202.404 272.004 202.841 272.586C203.266 273.169 203.509 273.865 203.541 274.586V274.736H201.541V274.616C201.497 274.222 201.337 273.849 201.081 273.546C200.811 273.235 200.467 272.997 200.081 272.856C199.16 272.543 198.161 272.543 197.241 272.856C196.869 272.994 196.543 273.233 196.301 273.546C196.077 273.831 195.957 274.184 195.961 274.546C195.955 274.784 196.007 275.02 196.111 275.234C196.215 275.448 196.37 275.634 196.561 275.776C197.112 276.154 197.741 276.407 198.401 276.516L199.861 276.836C200.962 277.002 201.998 277.462 202.861 278.166C203.179 278.484 203.428 278.866 203.589 279.286C203.751 279.707 203.823 280.156 203.801 280.606C203.818 281.36 203.601 282.1 203.181 282.726C202.741 283.348 202.129 283.828 201.421 284.106C200.554 284.454 199.625 284.62 198.691 284.596C197.808 284.595 196.933 284.429 196.111 284.106Z" fill="black"/>
<path d="M210.49 278.846L205.77 270.946H208.11L211.54 276.846L214.96 270.946H217.28L212.55 278.846V284.336H210.47L210.49 278.846Z" fill="black"/>
<path d="M221.96 284.106C221.258 283.836 220.64 283.384 220.17 282.796C219.73 282.218 219.472 281.522 219.43 280.796V280.656H221.43V280.776C221.489 281.175 221.671 281.545 221.95 281.836C222.258 282.154 222.639 282.39 223.06 282.526C223.566 282.694 224.097 282.776 224.63 282.766C225.158 282.78 225.684 282.695 226.18 282.516C226.571 282.374 226.917 282.129 227.18 281.806C227.422 281.495 227.549 281.11 227.54 280.716C227.548 280.473 227.5 280.23 227.399 280.009C227.299 279.787 227.149 279.591 226.96 279.436C226.387 279.037 225.73 278.774 225.04 278.666L223.58 278.366C222.501 278.192 221.488 277.729 220.65 277.026C220.324 276.717 220.066 276.343 219.893 275.928C219.721 275.512 219.638 275.066 219.65 274.616C219.64 273.899 219.861 273.198 220.28 272.616C220.714 272.017 221.306 271.549 221.99 271.266C223.594 270.621 225.386 270.621 226.99 271.266C227.658 271.554 228.24 272.008 228.68 272.586C229.098 273.172 229.338 273.867 229.37 274.586V274.736H227.37V274.616C227.326 274.222 227.166 273.849 226.91 273.546C226.641 273.235 226.297 272.997 225.91 272.856C224.989 272.543 223.991 272.543 223.07 272.856C222.7 272.996 222.375 273.235 222.13 273.546C221.91 273.833 221.791 274.185 221.79 274.546C221.785 274.784 221.836 275.02 221.941 275.234C222.045 275.448 222.199 275.634 222.39 275.776C222.942 276.154 223.57 276.407 224.23 276.516L225.69 276.836C226.792 277 227.829 277.46 228.69 278.166C229.01 278.483 229.26 278.865 229.422 279.285C229.584 279.706 229.655 280.156 229.63 280.606C229.652 281.36 229.435 282.102 229.01 282.726C228.573 283.35 227.961 283.83 227.25 284.106C226.383 284.454 225.454 284.621 224.52 284.596C223.644 284.593 222.776 284.427 221.96 284.106Z" fill="black"/>
<path d="M236.47 272.746H232.37V270.946H242.64V272.746H238.55V284.336H236.47V272.746Z" fill="black"/>
<path d="M245.93 270.946H254.43V272.746H248.01V276.646H254.11V278.386H248.01V282.536H254.43V284.336H245.93V270.946Z" fill="black"/>
<path d="M258.171 270.946H260.571L264.9 281.626H264.961L269.29 270.946H271.701V284.336H269.801V274.466H268.801L270.971 271.316L265.661 284.316H264.12L258.811 271.316L260.98 274.466H260.111V284.336H258.211L258.171 270.946Z" fill="black"/>
</svg>
